# Blender 5.2.0 LTS
# www.blender.org
mtllib Boots.mtl
o 平面
v -0.139494 0.075044 0.815610
v 0.131611 0.075044 0.849688
v -0.127710 0.039684 -0.875000
v 0.127710 0.039684 -0.875000
v -0.180103 0.026456 0.000000
v 0.229027 0.026456 0.000000
v 0.221132 0.026456 -0.500000
v -0.208901 0.026456 -0.500000
v -0.212391 0.034314 0.484909
v 0.222870 0.034314 0.496268
v -0.159903 0.215787 0.819977
v 0.153150 0.215519 0.865764
v -0.144751 0.179204 -0.891456
v 0.144961 0.179204 -0.891089
v -0.250671 0.179086 -0.000564
v 0.300444 0.179149 -0.000453
v 0.299081 0.179204 -0.493166
v -0.286154 0.179204 -0.494634
v -0.290718 0.186095 0.476313
v 0.302306 0.186236 0.490634
v -0.315118 0.139946 0.481026
v -0.173895 0.171029 0.839345
v 0.165519 0.170975 0.889395
v 0.322719 0.132281 -0.498525
v 0.157974 0.132281 -0.911443
v -0.157950 0.132281 -0.911517
v -0.310367 0.132281 -0.498819
v -0.276051 0.132258 -0.000005
v 0.325801 0.139974 0.497521
v 0.325127 0.132270 0.000017
v 0.228704 0.316379 -0.002735
v -0.171540 0.316343 -0.002905
v 0.293342 0.330009 -0.493847
v -0.279930 0.330009 -0.495610
v 0.199762 0.267908 0.484594
v -0.187605 0.267795 0.475409
v -0.122927 0.283161 0.786818
v 0.117618 0.282972 0.816529
v 0.141879 0.330009 -0.888022
v -0.141280 0.330009 -0.888463
v 0.162891 0.591765 -0.127326
v -0.106408 0.591765 -0.127767
v 0.197842 0.626235 -0.494680
v -0.184339 0.626236 -0.495855
v 0.112885 0.591765 -0.849731
v -0.112123 0.591765 -0.850172
v -0.191536 0.051786 0.691393
v -0.004230 0.068931 0.856947
v 0.183513 0.028722 -0.734182
v -0.000000 0.030988 -0.902392
v -0.195423 0.026456 -0.250000
v 0.230804 0.027438 0.249534
v 0.024462 0.006614 0.000000
v 0.230587 0.026456 -0.250000
v -0.181984 0.028722 -0.734182
v 0.006115 0.006614 -0.500000
v -0.195859 0.027438 0.248114
v 0.187923 0.051786 0.721723
v 0.005240 0.014472 0.490589
v -0.279672 0.155487 0.685156
v -0.004829 0.176826 0.919089
v 0.267989 0.132281 -0.736192
v 0.000003 0.132281 -0.973271
v -0.295622 0.132278 -0.249764
v 0.331319 0.133217 0.249476
v 0.145089 0.253991 0.852495
v 0.330930 0.132280 -0.249559
v -0.266388 0.132281 -0.736403
v -0.280777 0.228754 -0.494679
v -0.296213 0.133183 0.247527
v 0.276239 0.155462 0.730935
v -0.237377 0.225730 -0.001667
v 0.162056 0.119625 0.886597
v -0.170618 0.119632 0.838651
v -0.302216 0.079369 -0.499852
v -0.155272 0.081084 -0.908886
v 0.317751 0.079367 0.000002
v 0.317348 0.087206 0.498555
v 0.155275 0.081084 -0.908876
v 0.314462 0.079369 -0.499816
v -0.306844 0.087202 0.482294
v -0.268808 0.079366 -0.000001
v -0.258214 0.200938 0.673556
v -0.003950 0.221198 0.894698
v 0.247421 0.179204 -0.723165
v 0.000060 0.179204 -0.950227
v -0.270362 0.179189 -0.249357
v 0.306762 0.179952 0.247288
v 0.306340 0.179197 -0.248334
v -0.245441 0.179204 -0.724221
v -0.270919 0.179785 0.246062
v 0.256048 0.200815 0.715025
v -0.166916 0.195655 0.829863
v -0.302935 0.165267 0.478871
v 0.159317 0.195493 0.877782
v 0.151450 0.157989 -0.901064
v 0.310883 0.157989 -0.495643
v -0.151367 0.157989 -0.901284
v -0.263378 0.157918 -0.000082
v -0.298278 0.157989 -0.496525
v 0.312769 0.157956 -0.000016
v 0.314036 0.165351 0.494280
v 0.030762 0.343205 0.062489
v 0.201074 0.480295 -0.084323
v 0.006112 0.283201 0.479597
v -0.169547 0.280179 0.671403
v -0.002883 0.292194 0.823894
v 0.242449 0.330009 -0.721930
v 0.000246 0.330009 -0.946487
v -0.256087 0.328544 -0.253025
v 0.209045 0.267466 0.246256
v 0.293566 0.328549 -0.251790
v -0.240034 0.330009 -0.723197
v -0.171685 0.267334 0.245556
v 0.168128 0.280092 0.697516
v -0.151203 0.254283 0.810318
v -0.273194 0.226862 0.474608
v 0.288202 0.225799 -0.001530
v 0.285143 0.227020 0.487880
v 0.142196 0.228754 -0.887597
v 0.293991 0.228754 -0.492954
v -0.141782 0.228754 -0.888028
v 0.030253 0.614426 -0.100305
v 0.006751 0.677941 -0.495268
v 0.163180 0.620331 -0.717636
v 0.000357 0.614426 -0.875478
v -0.162053 0.620331 -0.267370
v 0.199366 0.620331 -0.266505
v -0.160664 0.620331 -0.718502
v -0.140066 0.480292 -0.084741
v 0.281438 0.485797 -0.494356
v -0.267947 0.485797 -0.496045
v 0.137120 0.481329 -0.881841
v -0.136429 0.481329 -0.882284
v 0.000764 0.009676 -0.736883
v 0.017473 0.007596 0.248824
v 0.017582 0.006614 -0.250000
v -0.001835 0.032995 0.708954
v 0.290278 0.221913 0.245824
v -0.253927 0.221725 0.244798
v -0.003592 0.260065 0.880534
v -0.263332 0.228374 -0.250233
v -0.004909 0.124419 0.915750
v -0.259902 0.079797 -0.737836
v 0.323368 0.080345 0.249793
v 0.261440 0.079797 -0.737809
v 0.000000 0.080226 -0.968785
v -0.288403 0.080341 0.247774
v -0.272782 0.103197 0.687467
v 0.323007 0.079369 -0.249945
v -0.287824 0.079368 -0.249970
v 0.269121 0.103194 0.732010
v -0.268960 0.180459 0.679558
v -0.004406 0.201258 0.907096
v 0.257688 0.157989 -0.729476
v 0.000015 0.157989 -0.961547
v -0.283009 0.157980 -0.249358
v 0.319024 0.158831 0.248585
v 0.318618 0.157985 -0.248744
v -0.255932 0.157989 -0.730110
v -0.283583 0.158731 0.246997
v 0.266127 0.180385 0.723182
v 0.278721 0.484315 -0.260512
v 0.018913 0.284912 0.250690
v 0.034601 0.484530 -0.023167
v -0.000701 0.295106 0.686280
v 0.243002 0.228754 -0.721276
v 0.241448 0.240959 0.708545
v 0.299803 0.228382 -0.249030
v 0.000154 0.228754 -0.946146
v -0.243153 0.241095 0.669906
v -0.240778 0.228754 -0.722516
v 0.001256 0.669962 -0.720586
v 0.018855 0.669961 -0.264252
v -0.240895 0.484315 -0.261725
v 0.232712 0.484680 -0.721167
v -0.230215 0.484680 -0.722386
v 0.000294 0.483563 -0.937970
vn -0.0919 -0.9956 -0.0202
vn -0.1047 -0.9876 -0.1172
vn 0.1047 -0.9874 -0.1183
vn 0.0919 -0.9955 -0.0244
vn -0.0914 -0.9956 0.0225
vn -0.0926 -0.9957 -0.0019
vn 0.0926 -0.9957 0.0065
vn 0.0899 -0.9954 0.0329
vn -0.0965 -0.9953 0.0027
vn -0.0928 -0.9957 0.0043
vn 0.0928 -0.9957 -0.0035
vn 0.0965 -0.9953 0.0006
vn -0.1147 -0.9658 0.2327
vn -0.1056 -0.9911 0.0807
vn 0.0924 -0.9919 0.0871
vn 0.0563 -0.9700 0.2365
vn 0.9215 0.3883 0.0068
vn 0.9308 0.3648 -0.0249
vn 0.4891 0.8722 0.0096
vn 0.4314 0.9020 0.0151
vn -0.9603 0.2723 -0.0601
vn -0.9243 0.3719 -0.0858
vn -0.4844 0.8741 -0.0353
vn -0.8029 0.5849 0.1149
vn -0.4196 0.3090 0.8535
vn 0.1878 0.3348 0.9234
vn 0.0963 0.8652 0.4920
vn -0.3023 0.7620 0.5727
vn -0.9917 0.1077 0.0709
vn -0.9843 0.1425 0.1043
vn -0.9917 0.0746 0.1044
vn -0.9952 0.0092 0.0979
vn -0.3224 -0.6024 0.7302
vn 0.0692 -0.7252 0.6851
vn 0.1693 -0.0629 0.9836
vn -0.4206 -0.0391 0.9064
vn -0.6017 -0.7061 -0.3733
vn -0.5445 -0.8358 -0.0707
vn -0.9779 -0.1161 -0.1741
vn -0.8507 -0.0713 -0.5209
vn 0.4875 -0.8724 0.0359
vn 0.4962 -0.8682 -0.0078
vn 0.9886 -0.1488 -0.0240
vn 0.9872 -0.1576 0.0263
vn 0.4903 -0.8645 -0.1108
vn 0.5192 -0.8112 -0.2689
vn 0.8436 -0.0889 -0.5296
vn 0.9642 -0.1451 -0.2220
vn 0.2573 -0.7088 -0.6568
vn -0.1795 -0.7902 -0.5860
vn -0.3591 -0.0801 -0.9298
vn 0.3637 -0.0658 -0.9292
vn -0.5120 -0.8585 -0.0291
vn -0.4962 -0.8681 -0.0094
vn -0.9865 -0.1462 -0.0733
vn -0.9878 -0.1353 -0.0776
vn -0.4863 -0.8612 0.1479
vn -0.4997 -0.7576 0.4200
vn -0.8214 -0.0833 0.5642
vn -0.9736 -0.1486 0.1732
vn 0.5122 -0.8589 0.0032
vn 0.4968 -0.8677 -0.0170
vn 0.9885 -0.1478 -0.0326
vn 0.9902 -0.1381 0.0230
vn -0.4930 -0.8696 0.0284
vn -0.4966 -0.8672 0.0378
vn -0.9863 -0.1457 0.0773
vn -0.9866 -0.1531 0.0568
vn 0.5269 -0.7259 0.4421
vn 0.5160 -0.8441 0.1454
vn 0.9685 -0.1275 0.2141
vn 0.8127 -0.0862 0.5763
vn -0.7486 0.4835 0.4536
vn -0.8665 0.4869 0.1098
vn -0.9014 0.4147 0.1249
vn -0.7746 0.4062 0.4848
vn 0.1664 0.5446 0.8221
vn -0.3872 0.4932 0.7790
vn -0.4007 0.4093 0.8197
vn 0.1680 0.4564 0.8738
vn 0.7582 0.4526 -0.4694
vn 0.8587 0.4737 -0.1954
vn 0.8890 0.4097 -0.2047
vn 0.7782 0.3947 -0.4885
vn -0.3300 0.4796 -0.8131
vn 0.3324 0.4434 -0.8324
vn 0.3355 0.3908 -0.8572
vn -0.3354 0.4213 -0.8426
vn -0.8547 0.5146 0.0679
vn -0.8576 0.5114 0.0552
vn -0.8967 0.4392 0.0554
vn -0.8943 0.4419 0.0705
vn 0.8644 0.5022 -0.0237
vn 0.8648 0.5022 0.0029
vn 0.9014 0.4329 0.0068
vn 0.9009 0.4334 -0.0242
vn 0.8722 0.4884 -0.0273
vn 0.8655 0.5006 0.0204
vn 0.9019 0.4313 0.0210
vn 0.9067 0.4208 -0.0299
vn -0.8524 0.5006 -0.1512
vn -0.7453 0.4931 -0.4487
vn -0.7709 0.4289 -0.4709
vn -0.8875 0.4317 -0.1609
vn -0.8639 0.4962 -0.0861
vn -0.8561 0.5118 -0.0717
vn -0.8946 0.4407 -0.0745
vn -0.9007 0.4261 -0.0853
vn 0.8521 0.5035 0.1429
vn 0.7224 0.5325 0.4412
vn 0.7533 0.4538 0.4761
vn 0.8881 0.4318 0.1575
vn 0.9248 0.2826 0.2547
vn 0.9955 0.0949 -0.0003
vn 0.8634 0.5043 0.0132
vn 0.8242 0.4262 0.3729
vn -0.0791 0.9968 -0.0075
vn 0.0784 0.9969 0.0118
vn 0.0941 0.9493 0.3000
vn -0.1893 0.9634 0.1899
vn -0.3273 0.4716 0.8188
vn 0.3324 0.4822 0.8105
vn 0.2541 0.5001 0.8278
vn -0.3104 0.4224 0.8516
vn -0.0889 0.9960 0.0102
vn 0.0776 0.9967 0.0223
vn 0.0920 0.9943 -0.0542
vn -0.0780 0.9954 -0.0557
vn 0.9707 0.1006 -0.2180
vn 0.8513 0.0956 -0.5159
vn 0.8552 0.0013 -0.5183
vn 0.9760 0.0043 -0.2179
vn 0.7955 0.3397 0.5018
vn 0.9192 0.3600 0.1593
vn 0.4685 0.8832 0.0191
vn 0.5589 0.8001 0.2178
vn 0.9669 0.2543 0.0230
vn 0.9909 0.1313 -0.0294
vn 0.9978 0.0615 -0.0237
vn 0.8105 0.5355 0.2372
vn 0.3797 0.0861 -0.9211
vn -0.3749 0.0768 -0.9239
vn -0.3793 -0.0028 -0.9253
vn 0.3811 -0.0027 -0.9245
vn -0.9102 0.3963 0.1202
vn -0.7954 0.3437 0.4992
vn -0.4609 0.8595 0.2211
vn -0.4315 0.9021 0.0006
vn -0.8535 0.0867 -0.5139
vn -0.9802 0.0982 -0.1721
vn -0.9850 0.0061 -0.1727
vn -0.8584 0.0021 -0.5129
vn -0.2607 0.9640 -0.0533
vn 0.2935 0.9551 -0.0410
vn 0.2580 0.9090 -0.3274
vn -0.2829 0.9104 -0.3018
vn -0.2578 0.9213 0.2912
vn 0.2196 0.9286 0.2993
vn 0.2611 0.9651 0.0197
vn -0.2610 0.9640 0.0504
vn -0.9904 0.0765 0.1148
vn -0.8624 0.1117 0.4938
vn -0.7824 0.4704 0.4081
vn -0.8548 0.5088 0.1019
vn 0.9733 0.0737 -0.2172
vn 0.8575 0.0565 -0.5114
vn 0.8110 0.4261 -0.4009
vn 0.8448 0.5024 -0.1840
vn -0.8574 0.0484 -0.5123
vn -0.9844 0.0634 -0.1644
vn -0.8836 0.4561 -0.1061
vn -0.8143 0.3200 -0.4843
vn 0.3811 0.0497 -0.9232
vn -0.3774 0.0514 -0.9246
vn -0.2784 0.4140 -0.8667
vn 0.3626 0.3327 -0.8706
vn -0.1038 -0.9945 -0.0105
vn -0.0944 -0.9874 -0.1267
vn 0.0946 -0.9873 -0.1276
vn 0.1039 -0.9945 -0.0152
vn -0.0927 -0.9954 0.0236
vn -0.0965 -0.9953 0.0012
vn 0.0965 -0.9953 0.0032
vn 0.0925 -0.9952 0.0307
vn -0.0928 -0.9957 0.0057
vn -0.0919 -0.9958 0.0050
vn 0.0919 -0.9958 -0.0042
vn 0.0928 -0.9957 -0.0026
vn -0.1170 -0.9662 0.2299
vn -0.0928 -0.9913 0.0933
vn 0.0881 -0.9920 0.0905
vn 0.0821 -0.9736 0.2131
vn 0.9305 0.3660 0.0120
vn 0.9673 0.2538 -0.0041
vn 0.8224 0.5425 0.1715
vn 0.4891 0.8722 -0.0080
vn -0.9249 0.3724 -0.0770
vn -0.9164 0.3902 -0.0895
vn -0.4303 0.9009 -0.0562
vn -0.4848 0.8744 -0.0183
vn -0.4178 0.3145 0.8524
vn 0.1817 0.3544 0.9172
vn 0.1382 0.8201 0.5553
vn -0.2123 0.8511 0.4801
vn -0.9878 0.1423 0.0636
vn -0.9584 0.2750 0.0760
vn -0.7727 0.5653 0.2888
vn -0.9947 0.0739 0.0711
vn -0.2354 -0.7082 0.6656
vn 0.1078 -0.6766 0.7284
vn 0.1698 -0.0650 0.9833
vn -0.4243 -0.0569 0.9037
vn -0.5201 -0.8124 -0.2637
vn -0.4914 -0.8664 -0.0889
vn -0.9727 -0.1463 -0.1801
vn -0.8467 -0.0903 -0.5243
vn 0.4957 -0.8675 0.0401
vn 0.5122 -0.8589 -0.0003
vn 0.9902 -0.1381 -0.0217
vn 0.9885 -0.1485 0.0280
vn 0.5426 -0.8346 -0.0952
vn 0.5986 -0.7069 -0.3768
vn 0.8473 -0.0711 -0.5264
vn 0.9696 -0.1143 -0.2162
vn 0.1795 -0.7902 -0.5860
vn -0.2573 -0.7089 -0.6568
vn -0.3633 -0.0668 -0.9293
vn 0.3592 -0.0801 -0.9298
vn -0.4959 -0.8677 -0.0358
vn -0.4883 -0.8726 -0.0129
vn -0.9848 -0.1563 -0.0752
vn -0.9860 -0.1461 -0.0798
vn -0.5348 -0.8357 0.1247
vn -0.6461 -0.6542 0.3932
vn -0.8203 -0.0600 0.5688
vn -0.9765 -0.1208 0.1787
vn 0.4968 -0.8678 0.0104
vn 0.4931 -0.8698 -0.0186
vn 0.9876 -0.1533 -0.0338
vn 0.9887 -0.1482 0.0208
vn -0.4967 -0.8675 0.0268
vn -0.5120 -0.8584 0.0314
vn -0.9880 -0.1353 0.0752
vn -0.9876 -0.1458 0.0585
vn 0.4681 -0.8100 0.3532
vn 0.4794 -0.8632 0.1582
vn 0.9661 -0.1506 0.2099
vn 0.8131 -0.0989 0.5737
vn -0.7325 0.5149 0.4453
vn -0.8526 0.5126 0.1019
vn -0.8909 0.4387 0.1176
vn -0.7625 0.4345 0.4793
vn 0.1731 0.5172 0.8382
vn -0.3857 0.5114 0.7679
vn -0.4003 0.4259 0.8114
vn 0.1737 0.4315 0.8852
vn 0.7422 0.4939 -0.4529
vn 0.8482 0.4941 -0.1905
vn 0.8812 0.4282 -0.2005
vn 0.7670 0.4314 -0.4749
vn -0.3313 0.4447 -0.8322
vn 0.3310 0.4825 -0.8109
vn 0.3358 0.4247 -0.8408
vn -0.3351 0.3911 -0.8572
vn -0.8569 0.5110 0.0676
vn -0.8690 0.4918 0.0537
vn -0.9055 0.4210 0.0536
vn -0.8959 0.4386 0.0702
vn 0.8652 0.5008 -0.0235
vn 0.8715 0.4903 0.0047
vn 0.9068 0.4215 0.0087
vn 0.9016 0.4320 -0.0240
vn 0.8650 0.5012 -0.0256
vn 0.8641 0.5029 0.0206
vn 0.9009 0.4335 0.0212
vn 0.9012 0.4325 -0.0282
vn -0.8672 0.4725 -0.1572
vn -0.7609 0.4527 -0.4648
vn -0.7818 0.3929 -0.4841
vn -0.8985 0.4062 -0.1663
vn -0.8554 0.5106 -0.0875
vn -0.8559 0.5122 -0.0717
vn -0.8942 0.4414 -0.0746
vn -0.8938 0.4400 -0.0870
vn 0.8620 0.4846 0.1486
vn 0.7341 0.5011 0.4582
vn 0.7611 0.4247 0.4902
vn 0.8956 0.4140 0.1627
vn 0.9087 0.1092 0.4030
vn 0.9970 0.0762 0.0121
vn 0.8593 0.5115 0.0075
vn 0.8141 0.4888 0.3137
vn -0.0919 0.9958 0.0023
vn 0.0914 0.9958 0.0017
vn 0.1972 0.9589 0.2039
vn -0.0956 0.9525 0.2890
vn -0.2986 0.5006 0.8126
vn 0.3157 0.4649 0.8272
vn 0.3203 0.4345 0.8418
vn -0.2490 0.4883 0.8364
vn -0.0811 0.9965 0.0198
vn 0.0877 0.9961 0.0131
vn 0.0798 0.9958 -0.0451
vn -0.0827 0.9948 -0.0600
vn 0.9716 0.0949 -0.2170
vn 0.8506 0.0841 -0.5190
vn 0.8554 0.0005 -0.5180
vn 0.9760 0.0039 -0.2178
vn 0.7848 0.3661 0.5000
vn 0.9057 0.3920 0.1612
vn 0.4308 0.9020 0.0283
vn 0.4351 0.8750 0.2121
vn 0.9901 0.1323 0.0478
vn 0.9945 0.1023 -0.0235
vn 1.0000 0.0064 -0.0009
vn 0.9969 0.0634 0.0474
vn 0.3768 0.0753 -0.9232
vn -0.3775 0.0864 -0.9220
vn -0.3789 -0.0021 -0.9254
vn 0.3816 -0.0035 -0.9243
vn -0.9264 0.3581 0.1164
vn -0.8088 0.3084 0.5007
vn -0.5999 0.7685 0.2225
vn -0.4687 0.8832 -0.0126
vn -0.8541 0.0980 -0.5108
vn -0.9791 0.1061 -0.1736
vn -0.9849 0.0066 -0.1729
vn -0.8582 0.0029 -0.5133
vn -0.2933 0.9557 -0.0267
vn 0.2608 0.9631 -0.0661
vn 0.2842 0.9090 -0.3048
vn -0.2565 0.9103 -0.3249
vn -0.2181 0.9196 0.3267
vn 0.2591 0.9305 0.2589
vn 0.2653 0.9639 0.0232
vn -0.2650 0.9631 0.0471
vn -0.9900 0.1020 0.0979
vn -0.8896 0.3289 0.3168
vn -0.7868 0.4142 0.4576
vn -0.8594 0.5021 0.0968
vn 0.9757 0.0625 -0.2099
vn 0.8544 0.0480 -0.5174
vn 0.8112 0.3203 -0.4893
vn 0.8784 0.4541 -0.1486
vn -0.8606 0.0573 -0.5060
vn -0.9822 0.0751 -0.1722
vn -0.8502 0.5063 -0.1442
vn -0.8137 0.4284 -0.3929
vn 0.3798 0.0511 -0.9237
vn -0.3789 0.0499 -0.9241
vn -0.3604 0.3327 -0.8715
vn 0.2814 0.4134 -0.8660
vt 0.000000 0.875000
vt 0.500000 0.750000
vt 0.000000 0.750000
vt 0.000000 1.000000
vt 0.500000 0.875000
vt 1.000000 1.000000
vt 1.000000 0.875000
vt 1.000000 0.750000
vt 0.000000 0.375000
vt 0.500000 0.250000
vt 0.000000 0.250000
vt 0.000000 0.500000
vt 0.500000 0.375000
vt 0.500000 0.500000
vt 1.000000 0.375000
vt 1.000000 0.250000
vt 0.500000 0.625000
vt 0.000000 0.625000
vt 1.000000 0.625000
vt 1.000000 0.500000
vt 0.000000 0.000000
vt 0.500000 0.125000
vt 0.500000 0.000000
vt 0.000000 0.125000
vt 1.000000 0.125000
vt 1.000000 0.000000
vt 0.950571 0.376031
vt 0.925006 0.254299
vt 0.951837 0.253658
vt 0.948758 0.499974
vt 0.924643 0.376204
vt 0.928858 0.499967
vt 0.798208 0.375310
vt 0.794981 0.254393
vt 0.052397 0.500012
vt 0.076338 0.375845
vt 0.072507 0.500017
vt 0.050262 0.375712
vt 0.076039 0.254319
vt 0.206086 0.254408
vt 0.202799 0.375057
vt 0.168794 0.500032
vt 0.501565 0.027314
vt 0.225276 0.063291
vt 0.206249 0.057328
vt 0.777896 0.061483
vt 0.501803 0.034712
vt 0.718030 0.078026
vt 0.501594 0.066044
vt 0.284955 0.079287
vt 0.050158 0.747048
vt 0.061427 0.624306
vt 0.058936 0.746531
vt 0.050601 0.624409
vt 0.071664 0.625157
vt 0.060190 0.746457
vt 0.500039 0.009103
vt 0.153767 0.038586
vt 0.825966 0.044469
vt 0.500313 0.013796
vt 0.174583 0.044799
vt 0.018698 0.870461
vt 0.153812 0.961484
vt 0.001254 0.749926
vt 0.031530 0.868202
vt 0.174942 0.955758
vt 0.998764 0.375026
vt 0.998796 0.250091
vt 0.998719 0.499999
vt 0.989752 0.499995
vt 0.990114 0.375206
vt 0.990367 0.250732
vt 0.981318 0.870448
vt 0.998774 0.749908
vt 0.825102 0.955722
vt 0.968601 0.868096
vt 0.990188 0.749263
vt 0.500001 0.990951
vt 0.846193 0.961479
vt 0.500000 1.000000
vt 0.500005 0.986636
vt 0.001310 0.500000
vt 0.001257 0.375018
vt 0.001226 0.250092
vt 0.010052 0.375143
vt 0.010479 0.500003
vt 0.018642 0.129589
vt 0.031080 0.132195
vt 0.009810 0.250735
vt 0.998767 0.624973
vt 0.990137 0.624780
vt 0.001265 0.624985
vt 0.010120 0.624882
vt 0.010032 0.749410
vt 0.981402 0.129558
vt 0.846301 0.038545
vt 0.969268 0.131950
vt 0.072069 0.140143
vt 0.190416 0.051064
vt 0.029431 0.252206
vt 0.051575 0.136169
vt 0.796495 0.055679
vt 0.500939 0.020555
vt 0.811231 0.050074
vt 0.792175 0.945275
vt 0.947469 0.864705
vt 0.808638 0.950498
vt 0.926337 0.861313
vt 0.970565 0.747788
vt 0.500027 0.974844
vt 0.191493 0.950608
vt 0.208043 0.945459
vt 0.500016 0.980740
vt 0.031438 0.500008
vt 0.030361 0.624645
vt 0.030095 0.748229
vt 0.969255 0.499984
vt 0.970343 0.375619
vt 0.971102 0.252195
vt 0.950941 0.746314
vt 0.970409 0.624340
vt 0.950682 0.623900
vt 0.074318 0.861841
vt 0.052924 0.865021
vt 0.049052 0.253676
vt 0.030157 0.375427
vt 0.929674 0.138916
vt 0.949471 0.135433
vt 0.929888 0.624541
vt 0.783857 0.540565
vt 0.832661 0.499956
vt 0.941129 0.745576
vt 0.905949 0.628671
vt 0.922776 0.745595
vt 0.781708 0.631635
vt 0.719720 0.562046
vt 0.500534 0.254401
vt 0.500502 0.372593
vt 0.500705 0.467188
vt 0.217748 0.540774
vt 0.500802 0.509975
vt 0.500811 0.548536
vt 0.281897 0.562266
vt 0.501036 0.142637
vt 0.222021 0.144349
vt 0.780031 0.143413
vt 0.942356 0.745668
vt 0.784972 0.942990
vt 0.917092 0.859829
vt 0.915772 0.859618
vt 0.903524 0.141098
vt 0.940083 0.623707
vt 0.500032 0.972264
vt 0.216319 0.942884
vt 0.500033 0.971896
vt 0.783943 0.942663
vt 0.098514 0.142467
vt 0.215284 0.943205
vt 0.083678 0.860449
vt 0.085015 0.860251
vt 0.500660 0.746017
vt 0.223566 0.857634
vt 0.207013 0.746310
vt 0.777238 0.857201
vt 0.500398 0.858676
vt 0.714290 0.923248
vt 0.500153 0.936122
vt 0.286103 0.923469
vt 0.500785 0.630509
vt 0.219861 0.632068
vt 0.794306 0.745723
vt 0.095617 0.629277
vt 0.078543 0.746439
vt 0.772046 0.939337
vt 0.898446 0.859000
vt 0.228238 0.939559
vt 0.102345 0.859610
vt 0.500048 0.967402
s 0
f 55/1/1 56/2/1 8/3/1
f 3/4/2 135/5/2 55/1/2
f 135/5/3 4/6/3 49/7/3
f 56/2/4 49/7/4 7/8/4
f 57/9/5 59/10/5 9/11/5
f 5/12/6 136/13/6 57/9/6
f 53/14/7 52/15/7 136/13/7
f 136/13/8 10/16/8 59/10/8
f 5/12/9 137/17/9 53/14/9
f 51/18/10 56/2/10 137/17/10
f 137/17/11 7/8/11 54/19/11
f 53/14/12 54/19/12 6/20/12
f 1/21/13 138/22/13 48/23/13
f 47/24/14 59/10/14 138/22/14
f 59/10/15 58/25/15 138/22/15
f 138/22/16 2/26/16 48/23/16
f 88/27/17 119/28/17 20/29/17
f 16/30/18 139/31/18 88/27/18
f 118/32/19 111/33/19 139/31/19
f 119/28/20 111/33/20 35/34/20
f 15/35/21 140/36/21 72/37/21
f 91/38/22 117/39/22 140/36/22
f 140/36/23 36/40/23 114/41/23
f 72/37/24 114/41/24 32/42/24
f 84/43/25 116/44/25 11/45/25
f 84/43/26 66/46/26 141/47/26
f 141/47/27 38/48/27 107/49/27
f 141/47/28 37/50/28 116/44/28
f 18/51/29 142/52/29 69/53/29
f 87/54/30 72/37/30 142/52/30
f 72/37/31 110/55/31 142/52/31
f 69/53/32 110/55/32 34/56/32
f 1/21/33 143/57/33 74/58/33
f 2/26/34 143/57/34 48/23/34
f 143/57/35 23/59/35 61/60/35
f 143/57/36 22/61/36 74/58/36
f 3/4/37 144/62/37 76/63/37
f 8/3/38 144/62/38 55/1/38
f 75/64/39 68/65/39 144/62/39
f 144/62/40 26/66/40 76/63/40
f 10/16/41 145/67/41 78/68/41
f 52/15/42 77/69/42 145/67/42
f 145/67/43 30/70/43 65/71/43
f 78/68/44 65/71/44 29/72/44
f 7/8/45 146/73/45 80/74/45
f 4/6/46 146/73/46 49/7/46
f 146/73/47 25/75/47 62/76/47
f 80/74/48 62/76/48 24/77/48
f 4/6/49 147/78/49 79/79/49
f 3/4/50 147/78/50 50/80/50
f 76/63/51 63/81/51 147/78/51
f 79/79/52 63/81/52 25/75/52
f 57/9/53 82/82/53 5/12/53
f 9/11/54 148/83/54 57/9/54
f 81/84/55 70/85/55 148/83/55
f 148/83/56 28/86/56 82/82/56
f 9/11/57 149/87/57 81/84/57
f 47/24/58 74/58/58 149/87/58
f 74/58/59 60/88/59 149/87/59
f 149/87/60 21/89/60 81/84/60
f 54/19/61 77/69/61 6/20/61
f 54/19/62 80/74/62 150/90/62
f 150/90/63 24/77/63 67/91/63
f 77/69/64 67/91/64 30/70/64
f 8/3/65 151/92/65 75/64/65
f 51/18/66 82/82/66 151/92/66
f 151/92/67 28/86/67 64/93/67
f 151/92/68 27/94/68 75/64/68
f 2/26/69 152/95/69 73/96/69
f 10/16/70 152/95/70 58/25/70
f 152/95/71 29/72/71 71/97/71
f 73/96/72 71/97/72 23/59/72
f 83/98/73 93/99/73 11/45/73
f 83/98/74 94/100/74 153/101/74
f 153/101/75 21/89/75 60/88/75
f 153/101/76 22/61/76 93/99/76
f 12/102/77 154/103/77 95/104/77
f 84/43/78 93/99/78 154/103/78
f 154/103/79 22/61/79 61/60/79
f 95/104/80 61/60/80 23/59/80
f 14/105/81 155/106/81 96/107/81
f 85/108/82 97/109/82 155/106/82
f 155/106/83 24/77/83 62/76/83
f 96/107/84 62/76/84 25/75/84
f 86/110/85 98/111/85 13/112/85
f 86/110/86 96/107/86 156/113/86
f 156/113/87 25/75/87 63/81/87
f 156/113/88 26/66/88 98/111/88
f 87/54/89 99/114/89 15/35/89
f 18/51/90 157/115/90 87/54/90
f 100/116/91 64/93/91 157/115/91
f 157/115/92 28/86/92 99/114/92
f 88/27/93 101/117/93 16/30/93
f 20/29/94 158/118/94 88/27/94
f 102/119/95 65/71/95 158/118/95
f 158/118/96 30/70/96 101/117/96
f 17/120/97 159/121/97 97/109/97
f 89/122/98 101/117/98 159/121/98
f 159/121/99 30/70/99 67/91/99
f 97/109/100 67/91/100 24/77/100
f 90/123/101 100/116/101 18/51/101
f 13/112/102 160/124/102 90/123/102
f 98/111/103 68/65/103 160/124/103
f 160/124/104 27/94/104 100/116/104
f 19/125/105 161/126/105 94/100/105
f 91/38/106 99/114/106 161/126/106
f 161/126/107 28/86/107 70/85/107
f 94/100/108 70/85/108 21/89/108
f 92/127/109 102/119/109 20/29/109
f 12/102/110 162/128/110 92/127/110
f 95/104/111 71/97/111 162/128/111
f 162/128/112 29/72/112 102/119/112
f 112/129/113 104/130/113 31/131/113
f 33/132/114 163/133/114 112/129/114
f 131/134/115 128/135/115 163/133/115
f 163/133/116 41/136/116 104/130/116
f 105/137/117 114/41/117 36/40/117
f 35/34/118 164/138/118 105/137/118
f 111/33/119 103/139/119 164/138/119
f 114/41/120 103/139/120 32/42/120
f 103/139/121 130/140/121 32/42/121
f 31/131/122 165/141/122 103/139/122
f 165/141/123 41/136/123 123/142/123
f 165/141/124 42/143/124 130/140/124
f 37/50/125 166/144/125 106/145/125
f 38/48/126 166/144/126 107/49/126
f 115/146/127 105/137/127 166/144/127
f 106/145/128 105/137/128 36/40/128
f 85/108/129 121/147/129 17/120/129
f 85/108/130 120/148/130 167/149/130
f 120/148/131 108/150/131 167/149/131
f 167/149/132 33/132/132 121/147/132
f 12/102/133 168/151/133 66/46/133
f 92/127/134 119/28/134 168/151/134
f 168/151/135 35/34/135 115/146/135
f 66/46/136 115/146/136 38/48/136
f 89/122/137 118/32/137 16/30/137
f 17/120/138 169/152/138 89/122/138
f 121/147/139 112/129/139 169/152/139
f 118/32/140 112/129/140 31/131/140
f 14/105/141 170/153/141 120/148/141
f 13/112/142 170/153/142 86/110/142
f 170/153/143 40/154/143 109/155/143
f 170/153/144 39/156/144 120/148/144
f 83/98/145 117/39/145 19/125/145
f 11/45/146 171/157/146 83/98/146
f 116/44/147 106/145/147 171/157/147
f 171/157/148 36/40/148 117/39/148
f 90/123/149 122/158/149 13/112/149
f 90/123/150 69/53/150 172/159/150
f 172/159/151 34/56/151 113/160/151
f 122/158/152 113/160/152 40/154/152
f 124/161/153 129/162/153 44/163/153
f 124/161/154 125/164/154 173/165/154
f 173/165/155 45/166/155 126/167/155
f 173/165/156 46/168/156 129/162/156
f 42/143/157 174/169/157 127/170/157
f 41/136/158 174/169/158 123/142/158
f 174/169/159 43/171/159 124/161/159
f 127/170/160 124/161/160 44/163/160
f 34/56/161 175/172/161 132/173/161
f 110/55/162 130/140/162 175/172/162
f 175/172/163 42/143/163 127/170/163
f 175/172/164 44/163/164 132/173/164
f 108/150/165 131/134/165 33/132/165
f 108/150/166 133/174/166 176/175/166
f 176/175/167 45/166/167 125/164/167
f 176/175/168 43/171/168 131/134/168
f 113/160/169 134/176/169 40/154/169
f 113/160/170 132/173/170 177/177/170
f 177/177/171 44/163/171 129/162/171
f 177/177/172 46/168/172 134/176/172
f 109/155/173 133/174/173 39/156/173
f 109/155/174 134/176/174 178/178/174
f 178/178/175 46/168/175 126/167/175
f 178/178/176 45/166/176 133/174/176
f 55/1/177 135/5/177 56/2/177
f 3/4/178 50/80/178 135/5/178
f 135/5/179 50/80/179 4/6/179
f 56/2/180 135/5/180 49/7/180
f 57/9/181 136/13/181 59/10/181
f 5/12/182 53/14/182 136/13/182
f 53/14/183 6/20/183 52/15/183
f 136/13/184 52/15/184 10/16/184
f 5/12/185 51/18/185 137/17/185
f 51/18/186 8/3/186 56/2/186
f 137/17/187 56/2/187 7/8/187
f 53/14/188 137/17/188 54/19/188
f 1/21/189 47/24/189 138/22/189
f 47/24/190 9/11/190 59/10/190
f 59/10/191 10/16/191 58/25/191
f 138/22/192 58/25/192 2/26/192
f 88/27/193 139/31/193 119/28/193
f 16/30/194 118/32/194 139/31/194
f 118/32/195 31/131/195 111/33/195
f 119/28/196 139/31/196 111/33/196
f 15/35/197 91/38/197 140/36/197
f 91/38/198 19/125/198 117/39/198
f 140/36/199 117/39/199 36/40/199
f 72/37/200 140/36/200 114/41/200
f 84/43/201 141/47/201 116/44/201
f 84/43/202 12/102/202 66/46/202
f 141/47/203 66/46/203 38/48/203
f 141/47/204 107/49/204 37/50/204
f 18/51/205 87/54/205 142/52/205
f 87/54/206 15/35/206 72/37/206
f 72/37/207 32/42/207 110/55/207
f 69/53/208 142/52/208 110/55/208
f 1/21/209 48/23/209 143/57/209
f 2/26/210 73/96/210 143/57/210
f 143/57/211 73/96/211 23/59/211
f 143/57/212 61/60/212 22/61/212
f 3/4/213 55/1/213 144/62/213
f 8/3/214 75/64/214 144/62/214
f 75/64/215 27/94/215 68/65/215
f 144/62/216 68/65/216 26/66/216
f 10/16/217 52/15/217 145/67/217
f 52/15/218 6/20/218 77/69/218
f 145/67/219 77/69/219 30/70/219
f 78/68/220 145/67/220 65/71/220
f 7/8/221 49/7/221 146/73/221
f 4/6/222 79/79/222 146/73/222
f 146/73/223 79/79/223 25/75/223
f 80/74/224 146/73/224 62/76/224
f 4/6/225 50/80/225 147/78/225
f 3/4/226 76/63/226 147/78/226
f 76/63/227 26/66/227 63/81/227
f 79/79/228 147/78/228 63/81/228
f 57/9/229 148/83/229 82/82/229
f 9/11/230 81/84/230 148/83/230
f 81/84/231 21/89/231 70/85/231
f 148/83/232 70/85/232 28/86/232
f 9/11/233 47/24/233 149/87/233
f 47/24/234 1/21/234 74/58/234
f 74/58/235 22/61/235 60/88/235
f 149/87/236 60/88/236 21/89/236
f 54/19/237 150/90/237 77/69/237
f 54/19/238 7/8/238 80/74/238
f 150/90/239 80/74/239 24/77/239
f 77/69/240 150/90/240 67/91/240
f 8/3/241 51/18/241 151/92/241
f 51/18/242 5/12/242 82/82/242
f 151/92/243 82/82/243 28/86/243
f 151/92/244 64/93/244 27/94/244
f 2/26/245 58/25/245 152/95/245
f 10/16/246 78/68/246 152/95/246
f 152/95/247 78/68/247 29/72/247
f 73/96/248 152/95/248 71/97/248
f 83/98/249 153/101/249 93/99/249
f 83/98/250 19/125/250 94/100/250
f 153/101/251 94/100/251 21/89/251
f 153/101/252 60/88/252 22/61/252
f 12/102/253 84/43/253 154/103/253
f 84/43/254 11/45/254 93/99/254
f 154/103/255 93/99/255 22/61/255
f 95/104/256 154/103/256 61/60/256
f 14/105/257 85/108/257 155/106/257
f 85/108/258 17/120/258 97/109/258
f 155/106/259 97/109/259 24/77/259
f 96/107/260 155/106/260 62/76/260
f 86/110/261 156/113/261 98/111/261
f 86/110/262 14/105/262 96/107/262
f 156/113/263 96/107/263 25/75/263
f 156/113/264 63/81/264 26/66/264
f 87/54/265 157/115/265 99/114/265
f 18/51/266 100/116/266 157/115/266
f 100/116/267 27/94/267 64/93/267
f 157/115/268 64/93/268 28/86/268
f 88/27/269 158/118/269 101/117/269
f 20/29/270 102/119/270 158/118/270
f 102/119/271 29/72/271 65/71/271
f 158/118/272 65/71/272 30/70/272
f 17/120/273 89/122/273 159/121/273
f 89/122/274 16/30/274 101/117/274
f 159/121/275 101/117/275 30/70/275
f 97/109/276 159/121/276 67/91/276
f 90/123/277 160/124/277 100/116/277
f 13/112/278 98/111/278 160/124/278
f 98/111/279 26/66/279 68/65/279
f 160/124/280 68/65/280 27/94/280
f 19/125/281 91/38/281 161/126/281
f 91/38/282 15/35/282 99/114/282
f 161/126/283 99/114/283 28/86/283
f 94/100/284 161/126/284 70/85/284
f 92/127/285 162/128/285 102/119/285
f 12/102/286 95/104/286 162/128/286
f 95/104/287 23/59/287 71/97/287
f 162/128/288 71/97/288 29/72/288
f 112/129/289 163/133/289 104/130/289
f 33/132/290 131/134/290 163/133/290
f 131/134/291 43/171/291 128/135/291
f 163/133/292 128/135/292 41/136/292
f 105/137/293 164/138/293 114/41/293
f 35/34/294 111/33/294 164/138/294
f 111/33/295 31/131/295 103/139/295
f 114/41/296 164/138/296 103/139/296
f 103/139/297 165/141/297 130/140/297
f 31/131/298 104/130/298 165/141/298
f 165/141/299 104/130/299 41/136/299
f 165/141/300 123/142/300 42/143/300
f 37/50/301 107/49/301 166/144/301
f 38/48/302 115/146/302 166/144/302
f 115/146/303 35/34/303 105/137/303
f 106/145/304 166/144/304 105/137/304
f 85/108/305 167/149/305 121/147/305
f 85/108/306 14/105/306 120/148/306
f 120/148/307 39/156/307 108/150/307
f 167/149/308 108/150/308 33/132/308
f 12/102/309 92/127/309 168/151/309
f 92/127/310 20/29/310 119/28/310
f 168/151/311 119/28/311 35/34/311
f 66/46/312 168/151/312 115/146/312
f 89/122/313 169/152/313 118/32/313
f 17/120/314 121/147/314 169/152/314
f 121/147/315 33/132/315 112/129/315
f 118/32/316 169/152/316 112/129/316
f 14/105/317 86/110/317 170/153/317
f 13/112/318 122/158/318 170/153/318
f 170/153/319 122/158/319 40/154/319
f 170/153/320 109/155/320 39/156/320
f 83/98/321 171/157/321 117/39/321
f 11/45/322 116/44/322 171/157/322
f 116/44/323 37/50/323 106/145/323
f 171/157/324 106/145/324 36/40/324
f 90/123/325 172/159/325 122/158/325
f 90/123/326 18/51/326 69/53/326
f 172/159/327 69/53/327 34/56/327
f 122/158/328 172/159/328 113/160/328
f 124/161/329 173/165/329 129/162/329
f 124/161/330 43/171/330 125/164/330
f 173/165/331 125/164/331 45/166/331
f 173/165/332 126/167/332 46/168/332
f 42/143/333 123/142/333 174/169/333
f 41/136/334 128/135/334 174/169/334
f 174/169/335 128/135/335 43/171/335
f 127/170/336 174/169/336 124/161/336
f 34/56/337 110/55/337 175/172/337
f 110/55/338 32/42/338 130/140/338
f 175/172/339 130/140/339 42/143/339
f 175/172/340 127/170/340 44/163/340
f 108/150/341 176/175/341 131/134/341
f 108/150/342 39/156/342 133/174/342
f 176/175/343 133/174/343 45/166/343
f 176/175/344 125/164/344 43/171/344
f 113/160/345 177/177/345 134/176/345
f 113/160/346 34/56/346 132/173/346
f 177/177/347 132/173/347 44/163/347
f 177/177/348 129/162/348 46/168/348
f 109/155/349 178/178/349 133/174/349
f 109/155/350 40/154/350 134/176/350
f 178/178/351 134/176/351 46/168/351
f 178/178/352 126/167/352 45/166/352
