# Blender 5.2.0 LTS
# www.blender.org
mtllib Double.mtl
o 平面.001
v -0.000911 0.000000 -0.797946
v -0.000911 0.000000 -0.797946
v -0.000911 0.000000 -0.797946
v -0.002721 0.000000 -0.797940
v -0.000911 0.000000 -0.797946
v -0.374087 0.000000 -0.296584
v 0.375908 0.000000 -0.299315
v 0.000911 0.000000 -0.297949
v -0.125899 0.000000 -0.297488
v 0.125910 0.000000 -0.298405
v 0.375908 0.179090 -0.299315
v -0.000911 0.179090 -0.797946
v -0.002721 0.179090 -0.797940
v -0.000911 0.179090 -0.797946
v -0.000911 0.179090 -0.797946
v -0.000911 0.179090 -0.797946
v 0.000911 0.179090 -0.297949
v -0.125899 0.179090 -0.297488
v 0.125910 0.179090 -0.298405
v -0.374087 0.179090 -0.296584
v -0.003620 0.000000 -0.050376
v -0.122754 0.000000 -0.049686
v 0.130155 0.000000 -0.048918
v -0.003620 0.179090 -0.050376
v -0.122754 0.179090 -0.049686
v 0.130155 0.179090 -0.048918
v -0.000911 0.000000 0.023015
v -0.000911 0.000000 0.023015
v -0.000911 0.000000 0.023015
v -0.002721 0.000000 0.023021
v -0.000911 0.000000 0.023015
v -0.374087 0.000000 0.524377
v 0.375908 0.000000 0.521646
v 0.000911 0.000000 0.523011
v -0.125899 0.000000 0.523473
v 0.125910 0.000000 0.522556
v 0.375908 0.179090 0.521646
v -0.000911 0.179090 0.023015
v -0.002721 0.179090 0.023021
v -0.000911 0.179090 0.023015
v -0.000911 0.179090 0.023015
v -0.000911 0.179090 0.023015
v 0.000911 0.179090 0.523011
v -0.125899 0.179090 0.523473
v 0.125910 0.179090 0.522556
v -0.374087 0.179090 0.524377
v -0.003620 0.000000 0.770584
v -0.122754 0.000000 0.771275
v 0.130155 0.000000 0.772043
v -0.003620 0.179090 0.770584
v -0.122754 0.179090 0.771275
v 0.130155 0.179090 0.772043
vn -0.0000 -1.0000 -0.0000
vn -0.0000 1.0000 -0.0000
vn 0.9999 -0.0000 -0.0170
vn -0.8022 -0.0000 -0.5971
vn 0.0036 -0.0000 1.0000
vn 0.7978 -0.0000 -0.6029
vn -0.0036 -0.0000 -1.0000
vn -0.9999 -0.0000 0.0127
vn 0.0058 -0.0000 1.0000
vn -0.0109 -0.0000 0.9999
vt 0.750000 0.500000
vt 1.000000 1.000000
vt 1.000000 0.500000
vt 0.248189 1.000000
vt 0.500000 0.500000
vt 0.248189 0.500000
vt 0.000000 0.500000
vt 0.750000 1.000000
vt 0.500000 0.250000
vt 0.750000 0.250000
vt 0.248189 0.250000
vt 0.000000 1.000000
vt 0.500000 1.000000
vt 0.248189 0.250000
s 0
f 10/1/1 2/2/1 7/3/1
f 4/4/1 8/5/1 9/6/1
f 6/7/1 4/4/1 9/6/1
f 8/5/1 5/8/1 10/1/1
f 21/9/1 10/1/1 23/10/1
f 9/6/1 21/9/1 22/11/1
f 19/1/2 12/2/2 15/8/2
f 17/5/2 13/4/2 18/6/2
f 20/7/1 13/4/1 14/12/1
f 17/5/2 15/8/2 16/13/2
f 24/9/2 19/1/2 17/5/2
f 24/9/2 18/6/2 25/14/2
f 10/1/3 26/10/3 23/10/3
f 5/8/2 16/13/2 15/8/2
f 6/7/4 14/12/4 1/12/4
f 7/3/5 19/1/5 10/1/5
f 2/2/6 11/3/6 7/3/6
f 1/12/5 13/4/5 4/4/5
f 2/2/2 15/8/2 12/2/2
f 9/6/5 20/7/5 6/7/5
f 4/4/7 16/13/7 3/13/7
f 22/11/8 18/6/8 9/6/8
f 21/9/9 25/14/9 22/11/9
f 23/10/10 24/9/10 21/9/10
f 36/1/1 28/2/1 33/3/1
f 30/4/1 34/5/1 35/6/1
f 32/7/1 30/4/1 35/6/1
f 34/5/1 31/8/1 36/1/1
f 47/9/1 36/1/1 49/10/1
f 35/6/1 47/9/1 48/11/1
f 45/1/2 38/2/2 41/8/2
f 43/5/2 39/4/2 44/6/2
f 46/7/1 39/4/1 40/12/1
f 43/5/2 41/8/2 42/13/2
f 50/9/2 45/1/2 43/5/2
f 50/9/2 44/6/2 51/14/2
f 36/1/3 52/10/3 49/10/3
f 31/8/2 42/13/2 41/8/2
f 32/7/4 40/12/4 27/12/4
f 33/3/5 45/1/5 36/1/5
f 28/2/6 37/3/6 33/3/6
f 27/12/5 39/4/5 30/4/5
f 28/2/2 41/8/2 38/2/2
f 35/6/5 46/7/5 32/7/5
f 30/4/7 42/13/7 29/13/7
f 48/11/8 44/6/8 35/6/8
f 47/9/9 51/14/9 48/11/9
f 49/10/10 50/9/10 47/9/10
f 10/1/2 5/8/2 2/2/2
f 4/4/1 3/13/1 8/5/1
f 6/7/2 1/12/2 4/4/2
f 8/5/2 3/13/2 5/8/2
f 21/9/1 8/5/1 10/1/1
f 9/6/1 8/5/1 21/9/1
f 19/1/2 11/3/2 12/2/2
f 17/5/2 16/13/2 13/4/2
f 20/7/2 18/6/2 13/4/2
f 17/5/2 19/1/2 15/8/2
f 24/9/2 26/10/2 19/1/2
f 24/9/2 17/5/2 18/6/2
f 10/1/3 19/1/3 26/10/3
f 5/8/2 3/13/2 16/13/2
f 6/7/4 20/7/4 14/12/4
f 7/3/5 11/3/5 19/1/5
f 2/2/6 12/2/6 11/3/6
f 1/12/5 14/12/5 13/4/5
f 2/2/2 5/8/2 15/8/2
f 9/6/5 18/6/5 20/7/5
f 4/4/7 13/4/7 16/13/7
f 22/11/8 25/14/8 18/6/8
f 21/9/9 24/9/9 25/14/9
f 23/10/10 26/10/10 24/9/10
f 36/1/2 31/8/2 28/2/2
f 30/4/1 29/13/1 34/5/1
f 32/7/2 27/12/2 30/4/2
f 34/5/2 29/13/2 31/8/2
f 47/9/1 34/5/1 36/1/1
f 35/6/1 34/5/1 47/9/1
f 45/1/2 37/3/2 38/2/2
f 43/5/2 42/13/2 39/4/2
f 46/7/2 44/6/2 39/4/2
f 43/5/2 45/1/2 41/8/2
f 50/9/2 52/10/2 45/1/2
f 50/9/2 43/5/2 44/6/2
f 36/1/3 45/1/3 52/10/3
f 31/8/2 29/13/2 42/13/2
f 32/7/4 46/7/4 40/12/4
f 33/3/5 37/3/5 45/1/5
f 28/2/6 38/2/6 37/3/6
f 27/12/5 40/12/5 39/4/5
f 28/2/2 31/8/2 41/8/2
f 35/6/5 44/6/5 46/7/5
f 30/4/7 39/4/7 42/13/7
f 48/11/8 51/14/8 44/6/8
f 47/9/9 50/9/9 51/14/9
f 49/10/10 52/10/10 50/9/10
