# Blender 4.2.0
# www.blender.org
mtllib Fork.mtl
o 平面
v 0.206813 1.538867 0.099013
v -0.206813 1.538867 0.099013
v 0.295045 3.399309 -0.026083
v -0.295045 3.399309 -0.026083
v 0.132876 1.540206 0.090698
v 0.044281 1.540206 0.090675
v -0.044281 1.540206 0.090675
v -0.132876 1.540206 0.090698
v -0.227546 3.399330 -0.026087
v -0.033749 3.399320 -0.026085
v 0.033749 3.399320 -0.026085
v 0.227546 3.399330 -0.026087
v 0.165264 -1.608372 -0.011667
v 0.106241 -1.608333 -0.020000
v 0.035414 -1.608333 -0.020000
v -0.165264 -1.608372 -0.011667
v -0.035414 -1.608333 -0.020000
v -0.106241 -1.608333 -0.020000
v 0.350295 1.896199 0.141374
v 0.384863 3.095117 0.030721
v 0.433858 2.288534 0.136023
v 0.440430 2.704186 0.093852
v -0.384863 3.095117 0.030721
v -0.350295 1.896199 0.141374
v -0.440430 2.704186 0.093852
v -0.433858 2.288534 0.136023
v 0.274902 3.095179 0.030710
v 0.224879 1.896445 0.132629
v 0.314593 2.704198 0.093848
v 0.281098 2.285769 0.135235
v 0.054980 3.095149 0.030715
v 0.074915 1.896445 0.132537
v 0.062919 2.704179 0.093851
v 0.093647 2.285765 0.135219
v -0.054980 3.095149 0.030715
v -0.074915 1.896445 0.132537
v -0.062919 2.704179 0.093851
v -0.093647 2.285765 0.135219
v -0.224879 1.896445 0.132629
v -0.274902 3.095179 0.030710
v -0.281098 2.285769 0.135235
v -0.314593 2.704198 0.093848
v -0.140207 -2.179167 -0.011666
v -0.046736 -2.179166 -0.011666
v 0.046736 -2.179166 -0.011666
v 0.140207 -2.179167 -0.011666
v -0.204649 -2.168750 -0.007500
v 0.204649 -2.168750 -0.007500
v -0.072499 0.388720 -0.018535
v -0.094830 1.342011 0.047345
v -0.068326 1.011067 -0.008671
v -0.078214 1.182842 0.014273
v -0.031610 1.342011 0.047345
v -0.024166 0.388720 -0.018535
v -0.026071 1.182842 0.014273
v -0.022775 1.011067 -0.008671
v 0.031610 1.342011 0.047345
v 0.024166 0.388720 -0.018535
v 0.026071 1.182842 0.014273
v 0.022775 1.011067 -0.008671
v 0.072499 0.388720 -0.018535
v 0.094830 1.342011 0.047345
v 0.068326 1.011067 -0.008671
v 0.078214 1.182842 0.014273
v -0.147513 1.340176 0.055470
v -0.112776 0.388431 -0.010210
v -0.121666 1.181390 0.022471
v -0.106285 1.010246 -0.000386
v 0.112776 0.388431 -0.010210
v 0.147513 1.340176 0.055470
v 0.106285 1.010246 -0.000386
v 0.121666 1.181390 0.022471
v 0.206797 1.533341 0.131809
v -0.206797 1.533341 0.131809
v 0.295045 3.404236 -0.001575
v -0.295045 3.404236 -0.001575
v 0.132865 1.531326 0.139809
v 0.044280 1.531153 0.139761
v -0.044280 1.531153 0.139761
v -0.132865 1.531326 0.139809
v -0.227546 3.404298 -0.001587
v -0.033749 3.404269 -0.001581
v 0.033749 3.404269 -0.001581
v 0.227546 3.404298 -0.001587
v 0.165264 -1.608526 0.021664
v 0.106241 -1.608566 0.029997
v 0.035414 -1.608566 0.029997
v -0.165264 -1.608527 0.021664
v -0.035414 -1.608566 0.029997
v -0.106241 -1.608566 0.029997
v 0.350275 1.894958 0.174591
v 0.384863 3.100992 0.063523
v 0.433848 2.290595 0.169255
v 0.440428 2.708474 0.126889
v -0.384863 3.100992 0.063523
v -0.350275 1.894958 0.174591
v -0.440428 2.708474 0.126889
v -0.433848 2.290595 0.169255
v 0.274902 3.101176 0.063490
v 0.224861 1.893670 0.182413
v 0.314591 2.708510 0.126877
v 0.281089 2.287549 0.173149
v 0.054980 3.101089 0.063506
v 0.074913 1.893396 0.182309
v 0.062919 2.708426 0.126887
v 0.093646 2.287416 0.173137
v -0.054980 3.101089 0.063506
v -0.074913 1.893396 0.182309
v -0.062919 2.708426 0.126887
v -0.093646 2.287416 0.173137
v -0.224861 1.893670 0.182413
v -0.274902 3.101177 0.063490
v -0.281089 2.287549 0.173149
v -0.314591 2.708510 0.126877
v -0.140207 -2.179167 0.021667
v -0.046736 -2.179167 0.021667
v 0.046736 -2.179167 0.021667
v 0.140207 -2.179167 0.021667
v -0.204649 -2.168750 0.017500
v 0.204649 -2.168750 0.017500
v -0.072499 0.387002 0.031415
v -0.094828 1.331071 0.096115
v -0.068326 1.006253 0.041053
v -0.078214 1.174367 0.063506
v -0.031610 1.331084 0.096120
v -0.024166 0.387005 0.031415
v -0.026071 1.174414 0.063514
v -0.022775 1.006275 0.041055
v 0.031610 1.331084 0.096120
v 0.024166 0.387005 0.031415
v 0.026071 1.174414 0.063514
v 0.022775 1.006275 0.041055
v 0.072499 0.387002 0.031415
v 0.094828 1.331071 0.096115
v 0.068326 1.006253 0.041053
v 0.078214 1.174367 0.063506
v -0.147510 1.332853 0.087973
v -0.112776 0.387280 0.023089
v -0.121666 1.175631 0.055273
v -0.106285 1.006984 0.032756
v 0.112776 0.387280 0.023089
v 0.147510 1.332852 0.087973
v 0.106285 1.006984 0.032756
v 0.121666 1.175631 0.055273
v -0.175381 1.540038 0.091778
v 0.000000 -2.179167 -0.011666
v 0.255577 3.421404 -0.033521
v 0.175381 1.540038 0.091778
v 0.088565 1.540206 0.090676
v 0.000000 1.540206 0.090676
v -0.088565 1.540206 0.090676
v -0.255577 3.421404 -0.033521
v 0.134927 -0.611955 -0.011486
v -0.000000 3.421405 -0.033521
v 0.086738 -0.611827 -0.019817
v 0.093471 -2.179167 -0.011666
v 0.183003 -2.177382 -0.010953
v -0.000000 -1.608334 -0.020000
v -0.140179 -1.608338 -0.018958
v -0.183003 -2.177382 -0.010953
v -0.093471 -2.179167 -0.011666
v -0.300359 2.901081 0.064874
v 0.028913 -0.611827 -0.019817
v -0.060072 2.901053 0.064878
v -0.193548 -2.075217 -0.010953
v -0.315260 2.497650 0.118015
v -0.067021 2.497639 0.118014
v -0.185967 2.230517 0.141713
v -0.259412 2.088303 0.137299
v -0.086433 2.088302 0.137233
v -0.149845 1.896445 0.132541
v -0.000000 3.094035 0.024567
v 0.060072 2.901053 0.064878
v -0.000000 2.703383 0.087656
v 0.067021 2.497639 0.118014
v -0.000000 2.287509 0.129170
v 0.086433 2.088302 0.137233
v -0.000000 1.896445 0.132540
v -0.028913 -0.611827 -0.019817
v 0.300359 2.901081 0.064874
v -0.125771 -2.076563 -0.018958
v 0.315260 2.497650 0.118015
v 0.185967 2.230517 0.141713
v 0.259412 2.088303 0.137299
v 0.149845 1.896445 0.132541
v 0.329883 3.094035 0.024567
v 0.420502 2.901026 0.064883
v 0.377512 2.703386 0.087656
v 0.445365 2.496675 0.118134
v 0.368871 2.287815 0.129491
v 0.403511 2.090260 0.144982
v 0.296953 1.896414 0.133884
v -0.420502 2.901026 0.064883
v -0.329883 3.094035 0.024567
v -0.377512 2.703386 0.087656
v -0.445365 2.496675 0.118134
v -0.368871 2.287815 0.129491
v -0.403511 2.090260 0.144982
v -0.296953 1.896414 0.133884
v 0.275937 1.703777 0.123560
v 0.177166 1.704581 0.114981
v 0.336072 3.283079 -0.005556
v 0.242889 3.283120 -0.005564
v -0.242889 3.283120 -0.005564
v -0.336072 3.283079 -0.005556
v -0.177166 1.704581 0.114981
v -0.275937 1.703777 0.123560
v 0.046592 3.283100 -0.005560
v 0.059024 1.704581 0.114915
v -0.046592 3.283100 -0.005560
v -0.059024 1.704581 0.114915
v 0.070827 -1.608334 -0.020000
v -0.070827 -1.608334 -0.020000
v 0.140179 -1.608338 -0.018958
v -0.022406 0.871468 -0.015104
v -0.048333 0.388720 -0.018535
v -0.067218 0.871468 -0.015104
v -0.045551 1.011067 -0.008671
v -0.024106 1.097155 0.001300
v -0.072317 1.097155 0.001300
v -0.052143 1.182842 0.014273
v -0.028577 1.263741 0.029611
v -0.085731 1.263741 0.029611
v -0.063220 1.342011 0.047345
v 0.104561 0.870940 -0.006794
v 0.095658 0.388684 -0.017494
v 0.067218 0.871468 -0.015104
v 0.090152 1.010964 -0.007636
v 0.112494 1.096017 0.009546
v 0.072317 1.097155 0.001300
v 0.103199 1.182660 0.015298
v 0.133359 1.262022 0.037760
v 0.085731 1.263741 0.029611
v 0.125123 1.341781 0.048361
v 0.022406 0.871468 -0.015104
v 0.000000 0.388720 -0.018535
v 0.000000 1.011067 -0.008671
v 0.024106 1.097155 0.001300
v 0.000000 1.182842 0.014273
v 0.028577 1.263741 0.029611
v -0.000000 1.342011 0.047345
v -0.095658 0.388684 -0.017494
v -0.104561 0.870940 -0.006794
v -0.090152 1.010964 -0.007636
v -0.112494 1.096017 0.009546
v -0.103199 1.182660 0.015298
v -0.133359 1.262022 0.037760
v -0.125123 1.341781 0.048361
v 0.048333 0.388720 -0.018535
v 0.045551 1.011067 -0.008671
v 0.052143 1.182842 0.014273
v 0.063220 1.342011 0.047345
v -0.086739 -0.611827 -0.019817
v -0.041924 -2.076562 -0.018958
v -0.167096 1.424037 0.075825
v -0.107411 1.425740 0.067662
v -0.035802 1.425740 0.067659
v -0.134927 -0.611955 -0.011486
v 0.041924 -2.076562 -0.018958
v 0.035802 1.425740 0.067659
v 0.107411 1.425740 0.067662
v 0.125771 -2.076563 -0.018958
v 0.167096 1.424037 0.075825
v 0.193548 -2.075217 -0.010953
v -0.175363 1.531832 0.138885
v 0.000000 -2.179166 0.021667
v 0.255577 3.427475 -0.003656
v 0.175363 1.531832 0.138885
v 0.088560 1.531176 0.139766
v 0.000000 1.531152 0.139762
v -0.088560 1.531176 0.139766
v -0.255577 3.427475 -0.003656
v 0.134927 -0.612465 0.021838
v -0.000000 3.427477 -0.003656
v 0.086738 -0.612593 0.030169
v 0.093471 -2.179166 0.021667
v 0.183003 -2.177383 0.020953
v -0.000000 -1.608566 0.029997
v -0.140179 -1.608561 0.028955
v -0.183003 -2.177382 0.020953
v -0.093471 -2.179166 0.021667
v -0.300359 2.906352 0.097772
v 0.028913 -0.612593 0.030169
v -0.060072 2.906268 0.097786
v -0.193548 -2.075236 0.020953
v -0.315255 2.500803 0.151667
v -0.067021 2.500688 0.151673
v -0.185962 2.231534 0.175994
v -0.259397 2.088321 0.185972
v -0.086430 2.088083 0.185905
v -0.149835 1.893436 0.182315
v -0.000000 3.102203 0.069655
v 0.060072 2.906268 0.097786
v 0.000000 2.709223 0.133081
v 0.067021 2.500688 0.151673
v 0.000000 2.289719 0.176579
v 0.086430 2.088083 0.185905
v -0.000000 1.893393 0.182312
v -0.028913 -0.612593 0.030169
v 0.300359 2.906352 0.097772
v -0.125771 -2.076591 0.028958
v 0.315255 2.500803 0.151667
v 0.185962 2.231534 0.175994
v 0.259397 2.088321 0.185972
v 0.149835 1.893436 0.182315
v 0.329883 3.102197 0.069655
v 0.420502 2.906189 0.097800
v 0.377510 2.709298 0.133077
v 0.445360 2.499942 0.151281
v 0.368857 2.290453 0.176039
v 0.403495 2.090857 0.178254
v 0.296928 1.894223 0.181616
v -0.420502 2.906189 0.097800
v -0.329883 3.102197 0.069655
v -0.377510 2.709298 0.133077
v -0.445360 2.499942 0.151281
v -0.368857 2.290453 0.176039
v -0.403495 2.090857 0.178254
v -0.296928 1.894223 0.181616
v 0.275917 1.700320 0.156597
v 0.177150 1.698560 0.164458
v 0.336072 3.289169 0.025759
v 0.242889 3.289295 0.025736
v -0.242889 3.289295 0.025736
v -0.336072 3.289169 0.025759
v -0.177150 1.698560 0.164458
v -0.275917 1.700320 0.156597
v 0.046592 3.289235 0.025747
v 0.059021 1.698311 0.164369
v -0.046592 3.289235 0.025747
v -0.059021 1.698311 0.164369
v 0.070827 -1.608566 0.029997
v -0.070827 -1.608566 0.029997
v 0.140179 -1.608561 0.028955
v -0.022406 0.868366 0.034765
v -0.048333 0.387005 0.031415
v -0.067218 0.868355 0.034764
v -0.045551 1.006273 0.041055
v -0.024106 1.090541 0.050813
v -0.072317 1.090505 0.050808
v -0.052143 1.174408 0.063513
v -0.028577 1.253712 0.078562
v -0.085731 1.253665 0.078552
v -0.063219 1.331083 0.096119
v 0.104561 0.868840 0.026449
v 0.095658 0.387033 0.030374
v 0.067218 0.868355 0.034764
v 0.090152 1.006310 0.040011
v 0.112494 1.091500 0.042539
v 0.072317 1.090505 0.050808
v 0.103199 1.174455 0.062464
v 0.133359 1.255194 0.070363
v 0.085731 1.253665 0.078552
v 0.125120 1.331274 0.095091
v 0.022406 0.868366 0.034765
v -0.000000 0.387005 0.031415
v 0.000000 1.006275 0.041055
v 0.024106 1.090541 0.050813
v 0.000000 1.174414 0.063514
v 0.028577 1.253712 0.078562
v -0.000000 1.331084 0.096120
v -0.095658 0.387033 0.030374
v -0.104561 0.868840 0.026449
v -0.090152 1.006310 0.040011
v -0.112494 1.091500 0.042539
v -0.103199 1.174455 0.062464
v -0.133359 1.255194 0.070363
v -0.125120 1.331274 0.095091
v 0.048333 0.387005 0.031415
v 0.045551 1.006273 0.041055
v 0.052143 1.174408 0.063513
v 0.063219 1.331082 0.096119
v -0.086739 -0.612593 0.030169
v -0.041924 -2.076592 0.028958
v -0.167087 1.417154 0.108412
v -0.107405 1.415168 0.116503
v -0.035802 1.415096 0.116489
v -0.134927 -0.612465 0.021838
v 0.041924 -2.076592 0.028958
v 0.035802 1.415096 0.116489
v 0.107405 1.415168 0.116503
v 0.125771 -2.076591 0.028958
v 0.167087 1.417154 0.108412
v 0.193548 -2.075236 0.020953
v 0.217900 1.536167 0.115441
v -0.217900 1.536167 0.115441
v 0.295829 3.424419 -0.018585
v -0.295829 3.424419 -0.018585
v -0.215325 3.424461 -0.018592
v -0.040252 3.424441 -0.018589
v 0.040252 3.424441 -0.018589
v 0.215325 3.424461 -0.018592
v 0.174117 -1.608449 0.004999
v -0.174117 -1.608449 0.004999
v 0.369119 1.895676 0.158069
v 0.405481 3.098031 0.047126
v 0.457113 2.289621 0.152658
v 0.464024 2.706326 0.110372
v -0.405481 3.098031 0.047126
v -0.369119 1.895676 0.158069
v -0.464024 2.706326 0.110372
v -0.457113 2.289621 0.152658
v 0.254284 3.098200 0.047096
v 0.290998 2.706358 0.110361
v 0.260850 2.338954 0.151587
v 0.075598 3.098119 0.047111
v 0.086513 2.706303 0.110369
v 0.120419 2.338930 0.151587
v -0.075598 3.098119 0.047111
v -0.086513 2.706303 0.110369
v -0.120419 2.338930 0.151587
v -0.254284 3.098201 0.047096
v -0.260850 2.338954 0.151587
v -0.290998 2.706358 0.110361
v -0.145302 -2.194792 0.005000
v -0.048434 -2.194792 0.005000
v 0.048434 -2.194792 0.005000
v 0.145302 -2.194792 0.005000
v -0.212964 -2.175598 0.005000
v 0.212964 -2.175598 0.005000
v -0.155413 1.336510 0.071720
v -0.118817 0.387855 0.006439
v -0.128184 1.178493 0.038869
v -0.111979 1.008606 0.016184
v 0.118817 0.387855 0.006439
v 0.155413 1.336510 0.071720
v 0.111979 1.008606 0.016184
v 0.128184 1.178493 0.038869
v -0.233931 1.704481 0.116170
v -0.288917 3.284175 -0.011915
v 0.118057 1.704581 0.114918
v -0.000000 1.704581 0.114917
v -0.118057 1.704581 0.114918
v -0.071605 1.425740 0.067659
v 0.000000 3.284175 -0.011915
v 0.288917 3.284175 -0.011915
v 0.114447 -0.611843 -0.018775
v -0.114447 -0.611843 -0.018775
v 0.057826 -0.611827 -0.019817
v -0.172787 2.083929 0.137917
v -0.000000 2.900075 0.058708
v 0.000000 2.495889 0.111867
v -0.000000 2.089928 0.136595
v 0.000000 -0.611827 -0.019817
v -0.057826 -0.611827 -0.019817
v 0.172787 2.083929 0.137917
v 0.360431 2.900075 0.058708
v 0.381147 2.495971 0.111894
v 0.342200 2.090017 0.137700
v -0.360431 2.900075 0.058708
v -0.381147 2.495971 0.111894
v -0.342200 2.090017 0.137700
v 0.233931 1.704481 0.116170
v 0.071605 1.425740 0.067659
v 0.165509 -2.076225 -0.017955
v -0.165509 -2.076226 -0.017955
v 0.083848 -2.076562 -0.018958
v -0.000000 -2.076562 -0.018958
v 0.141730 1.425527 0.068687
v -0.000000 1.425740 0.067659
v -0.141730 1.425527 0.068687
v -0.044812 0.871468 -0.015104
v -0.048212 1.097155 0.001300
v -0.057154 1.263742 0.029611
v 0.088690 0.871402 -0.014065
v 0.095419 1.097013 0.002331
v 0.113117 1.263527 0.030630
v 0.000000 0.871468 -0.015104
v 0.000000 1.097155 0.001300
v 0.000000 1.263742 0.029611
v -0.088690 0.871402 -0.014065
v -0.095419 1.097013 0.002331
v -0.113117 1.263527 0.030630
v 0.044812 0.871468 -0.015104
v 0.048212 1.097155 0.001300
v 0.057154 1.263742 0.029611
v -0.083848 -2.076562 -0.018958
v -0.233908 1.699139 0.163625
v -0.288917 3.292622 0.031164
v 0.118049 1.698346 0.164375
v -0.000000 1.698310 0.164371
v -0.118049 1.698346 0.164375
v -0.071603 1.415106 0.116491
v 0.000000 3.292626 0.031164
v 0.288917 3.292622 0.031164
v 0.114447 -0.612577 0.029128
v -0.114447 -0.612577 0.029128
v 0.057826 -0.612594 0.030169
v -0.172779 2.083673 0.185995
v -0.000000 2.907246 0.103956
v 0.000000 2.500065 0.157710
v -0.000000 2.089762 0.186055
v 0.000000 -0.612594 0.030169
v -0.057826 -0.612594 0.030169
v 0.172779 2.083673 0.185995
v 0.360430 2.907248 0.103956
v 0.381140 2.500380 0.157600
v 0.342180 2.090510 0.185305
v -0.360430 2.907248 0.103956
v -0.381140 2.500380 0.157600
v -0.342180 2.090510 0.185305
v 0.233908 1.699139 0.163625
v 0.071603 1.415106 0.116491
v 0.165509 -2.076254 0.027955
v -0.165509 -2.076254 0.027955
v 0.083848 -2.076591 0.028958
v 0.000000 -2.076591 0.028958
v 0.141720 1.415523 0.115513
v -0.000000 1.415096 0.116489
v -0.141720 1.415523 0.115513
v -0.044812 0.868365 0.034765
v -0.048212 1.090537 0.050812
v -0.057154 1.253706 0.078561
v 0.088690 0.868400 0.033723
v 0.095419 1.090576 0.049766
v 0.113117 1.253785 0.077513
v 0.000000 0.868366 0.034765
v 0.000000 1.090541 0.050813
v 0.000000 1.253712 0.078562
v -0.088690 0.868400 0.033723
v -0.095419 1.090576 0.049766
v -0.113117 1.253785 0.077513
v 0.044812 0.868365 0.034765
v 0.048212 1.090537 0.050812
v 0.057154 1.253706 0.078561
v -0.083848 -2.076591 0.028958
v -0.000000 -2.194791 0.005000
v 0.243576 3.471966 -0.028568
v -0.243576 3.471966 -0.028568
v 0.142155 -0.612209 0.005176
v -0.000000 3.471966 -0.028568
v 0.096868 -2.194791 0.005000
v 0.189896 -2.192380 0.005000
v -0.189896 -2.192380 0.005000
v -0.096868 -2.194791 0.005000
v -0.277832 2.903737 0.081319
v -0.082599 2.903660 0.081332
v -0.203886 -2.075902 0.005000
v -0.291111 2.503314 0.134649
v -0.091707 2.503273 0.134653
v -0.190029 2.281995 0.157141
v 0.082599 2.903660 0.081332
v 0.091707 2.503273 0.134653
v 0.277832 2.903737 0.081319
v 0.291111 2.503314 0.134649
v 0.190029 2.281995 0.157141
v 0.443029 2.903587 0.081345
v 0.469223 2.498333 0.134709
v 0.425168 2.090642 0.161678
v -0.443029 2.903587 0.081345
v -0.469223 2.498333 0.134709
v -0.425168 2.090642 0.161678
v 0.290758 1.702138 0.140146
v 0.352835 3.288342 0.009635
v 0.224999 3.288455 0.009615
v -0.224999 3.288455 0.009615
v -0.352835 3.288342 0.009635
v -0.290758 1.702137 0.140146
v 0.063918 3.288401 0.009625
v -0.063918 3.288401 0.009625
v 0.110163 0.869886 0.009827
v 0.118520 1.093745 0.026040
v 0.140503 1.258591 0.054058
v -0.110163 0.869886 0.009827
v -0.118520 1.093745 0.026040
v -0.140503 1.258591 0.054058
v -0.176044 1.420622 0.092125
v -0.142155 -0.612210 0.005176
v 0.176044 1.420622 0.092125
v 0.203886 -2.075902 0.005000
vn -0.0257 0.1393 -0.9899
vn -0.2261 0.0637 -0.9720
vn -0.1737 0.0338 -0.9842
vn -0.0210 0.0864 -0.9960
vn 0.1290 -0.2091 -0.9694
vn -0.1283 -0.1602 -0.9787
vn -0.1144 -0.1273 -0.9852
vn 0.1115 -0.1871 -0.9760
vn 0.0011 0.1459 -0.9893
vn 0.0001 0.1459 -0.9893
vn 0.0001 0.0915 -0.9958
vn 0.0012 0.0913 -0.9958
vn -0.0000 0.1459 -0.9893
vn -0.0000 0.0915 -0.9958
vn -0.0005 0.1458 -0.9893
vn -0.0011 0.0913 -0.9958
vn -0.0001 0.0915 -0.9958
vn -0.0005 0.1972 -0.9804
vn -0.0000 0.1971 -0.9804
vn -0.0000 0.2358 -0.9718
vn -0.0001 0.2358 -0.9718
vn 0.1129 -0.1834 -0.9765
vn -0.1285 -0.1869 -0.9739
vn -0.1151 -0.1545 -0.9813
vn 0.1298 -0.1585 -0.9788
vn 0.1129 -0.1600 -0.9806
vn -0.1129 -0.2106 -0.9710
vn -0.1302 -0.1850 -0.9741
vn 0.1296 -0.1279 -0.9833
vn 0.0449 0.0019 -0.9990
vn 0.3916 0.0085 -0.9201
vn 0.3354 0.0088 -0.9420
vn 0.0376 0.0009 -0.9993
vn -0.3354 0.0086 -0.9421
vn -0.0376 0.0020 -0.9993
vn -0.0307 0.0010 -0.9995
vn -0.2791 0.0087 -0.9602
vn -0.0000 0.0013 -1.0000
vn -0.0000 0.0002 -1.0000
vn 0.0661 -0.0032 -0.9978
vn -0.0092 0.0251 -0.9996
vn -0.0093 0.0275 -0.9996
vn 0.0084 0.0259 -0.9996
vn -0.1034 -0.1698 -0.9800
vn 0.1129 -0.1723 -0.9786
vn 0.1034 -0.1448 -0.9840
vn -0.0988 -0.1435 -0.9847
vn -0.0937 -0.1139 -0.9891
vn 0.0988 -0.1153 -0.9884
vn 0.0932 -0.0824 -0.9922
vn -0.0629 -0.0729 -0.9954
vn -0.0642 -0.0125 -0.9979
vn 0.0067 -0.0376 -0.9993
vn -0.0000 0.0210 -0.9998
vn -0.0078 0.0240 -0.9997
vn 0.0627 -0.0125 -0.9980
vn -0.0085 0.0267 -0.9996
vn 0.0012 0.0285 -0.9996
vn 0.0001 0.0245 -0.9997
vn -0.1129 -0.1866 -0.9759
vn 0.1129 -0.1550 -0.9814
vn 0.1034 -0.1360 -0.9853
vn -0.1034 -0.1521 -0.9829
vn -0.0988 -0.1160 -0.9883
vn 0.0988 -0.1138 -0.9886
vn 0.1006 -0.0897 -0.9909
vn -0.0635 -0.0707 -0.9955
vn 0.0051 -0.0110 -0.9999
vn 0.1180 -0.0571 -0.9914
vn 0.1390 -0.0130 -0.9902
vn 0.0174 0.0212 -0.9996
vn -0.1034 -0.1540 -0.9826
vn 0.1034 -0.1882 -0.9767
vn 0.0987 -0.1533 -0.9832
vn -0.0988 -0.1351 -0.9859
vn -0.0973 -0.1134 -0.9888
vn 0.0948 -0.1172 -0.9886
vn 0.0942 -0.0783 -0.9925
vn -0.0973 -0.0906 -0.9911
vn -0.1005 -0.0603 -0.9931
vn 0.0645 -0.0327 -0.9974
vn -0.0045 0.0187 -0.9998
vn -0.1180 -0.0139 -0.9929
vn 0.1740 0.0732 -0.9820
vn 0.0210 0.1394 -0.9900
vn 0.0174 0.0862 -0.9961
vn 0.1391 0.0379 -0.9896
vn 0.0001 0.1971 -0.9804
vn 0.0307 -0.0009 -0.9995
vn 0.2791 0.0131 -0.9602
vn 0.2431 -0.0251 -0.9697
vn 0.0257 -0.0673 -0.9974
vn -0.2418 0.0132 -0.9702
vn -0.0252 -0.0008 -0.9997
vn -0.0194 -0.0657 -0.9977
vn -0.1641 -0.0169 -0.9863
vn -0.0000 -0.0022 -1.0000
vn -0.0000 -0.0709 -0.9975
vn 0.0305 0.1907 -0.9812
vn 0.2752 0.1117 -0.9549
vn 0.3092 0.1660 -0.9364
vn 0.0343 0.2308 -0.9724
vn -0.2269 0.1168 -0.9669
vn -0.0257 0.1903 -0.9814
vn -0.0305 0.2300 -0.9727
vn -0.2761 0.1653 -0.9468
vn -0.0000 0.0071 -1.0000
vn -0.0000 0.0460 -0.9989
vn -0.0000 0.1151 -0.9934
vn -0.0000 0.1497 -0.9887
vn -0.0000 0.1863 -0.9825
vn -0.0000 0.2210 -0.9753
vn 0.3917 0.0132 -0.9200
vn 0.0449 0.0077 -0.9990
vn 0.0476 0.0455 -0.9978
vn 0.4110 0.0368 -0.9109
vn 0.3919 0.0778 -0.9167
vn 0.0450 0.1122 -0.9927
vn 0.0416 0.1459 -0.9884
vn 0.3663 0.1007 -0.9251
vn 0.3379 0.1278 -0.9325
vn 0.0380 0.1816 -0.9826
vn 0.0343 0.2158 -0.9758
vn 0.3091 0.1566 -0.9381
vn -0.0483 0.0076 -0.9988
vn -0.4168 0.0125 -0.9089
vn -0.4171 0.0375 -0.9081
vn -0.0484 0.0456 -0.9978
vn -0.0476 0.1127 -0.9925
vn -0.4115 0.0800 -0.9079
vn -0.3923 0.1028 -0.9141
vn -0.0450 0.1465 -0.9882
vn -0.0416 0.1824 -0.9823
vn -0.3668 0.1297 -0.9212
vn -0.3385 0.1582 -0.9276
vn -0.0380 0.2166 -0.9755
vn -0.0233 -0.1518 0.9881
vn -0.0156 -0.0954 0.9953
vn -0.1672 -0.1440 0.9753
vn -0.2243 -0.2189 0.9496
vn 0.1129 0.1735 0.9783
vn 0.1298 0.2177 0.9673
vn -0.1292 0.2726 0.9534
vn -0.1129 0.2236 0.9681
vn -0.0005 -0.1456 0.9893
vn -0.0011 -0.0914 0.9958
vn -0.0001 -0.0916 0.9958
vn -0.0000 -0.1456 0.9893
vn -0.0000 -0.0916 0.9958
vn 0.0001 -0.0916 0.9958
vn 0.0011 -0.0914 0.9958
vn 0.0005 -0.1456 0.9893
vn 0.0003 -0.1967 0.9805
vn -0.0001 -0.2356 0.9718
vn -0.0000 -0.2356 0.9718
vn -0.0000 -0.1966 0.9805
vn 0.1129 0.2003 0.9732
vn 0.1294 0.2428 0.9614
vn -0.1294 0.2428 0.9614
vn -0.1129 0.2003 0.9732
vn 0.1129 0.2236 0.9681
vn 0.1292 0.2726 0.9534
vn -0.1298 0.2177 0.9673
vn -0.1129 0.1735 0.9783
vn 0.0449 -0.0006 0.9990
vn 0.0376 0.0006 0.9993
vn 0.3353 0.0085 0.9421
vn 0.3915 0.0062 0.9202
vn -0.3915 0.0062 0.9202
vn -0.3353 0.0085 0.9421
vn -0.0376 0.0006 0.9993
vn -0.0449 -0.0006 0.9990
vn -0.0000 -0.0012 1.0000
vn -0.0000 -0.0002 1.0000
vn 0.0085 0.0652 0.9978
vn -0.0013 -0.0185 0.9998
vn 0.0020 -0.0191 0.9998
vn -0.0076 0.0636 0.9979
vn -0.1129 0.1722 0.9786
vn -0.1034 0.1447 0.9840
vn 0.1034 0.1447 0.9840
vn 0.1129 0.1722 0.9786
vn -0.0988 0.1164 0.9883
vn -0.0885 0.0890 0.9921
vn 0.0885 0.0890 0.9921
vn 0.0988 0.1164 0.9883
vn -0.0382 0.0625 0.9973
vn -0.0014 -0.0185 0.9998
vn 0.0014 -0.0185 0.9998
vn 0.0382 0.0625 0.9973
vn 0.0076 0.0636 0.9979
vn -0.0020 -0.0191 0.9998
vn 0.0013 -0.0185 0.9998
vn -0.0085 0.0652 0.9978
vn -0.1129 0.1579 0.9810
vn -0.1035 0.1375 0.9851
vn 0.1034 0.1535 0.9827
vn 0.1129 0.1893 0.9754
vn -0.0988 0.1176 0.9881
vn -0.0887 0.0923 0.9918
vn 0.0981 0.0798 0.9920
vn 0.0987 0.1177 0.9881
vn -0.0346 0.0509 0.9981
vn 0.0086 -0.0208 0.9997
vn 0.1144 -0.0496 0.9922
vn 0.1037 0.0290 0.9942
vn -0.1129 0.1893 0.9754
vn -0.1034 0.1535 0.9827
vn 0.1035 0.1375 0.9851
vn 0.1129 0.1579 0.9810
vn -0.0987 0.1177 0.9881
vn -0.0981 0.0798 0.9920
vn 0.0887 0.0923 0.9918
vn 0.0988 0.1176 0.9881
vn -0.1037 0.0290 0.9942
vn -0.1144 -0.0496 0.9922
vn -0.0086 -0.0208 0.9997
vn 0.0346 0.0509 0.9981
vn 0.2243 -0.2189 0.9496
vn 0.1672 -0.1440 0.9753
vn 0.0156 -0.0954 0.9953
vn 0.0233 -0.1518 0.9881
vn 0.0001 -0.2356 0.9718
vn -0.0003 -0.1967 0.9805
vn 0.0307 -0.0009 0.9995
vn 0.0257 -0.0673 0.9974
vn 0.2431 -0.0251 0.9697
vn 0.2791 0.0131 0.9602
vn -0.2791 0.0131 0.9602
vn -0.2431 -0.0251 0.9697
vn -0.0257 -0.0673 0.9974
vn -0.0307 -0.0009 0.9995
vn -0.0000 -0.0022 1.0000
vn -0.0000 -0.0709 0.9975
vn 0.0237 -0.2035 0.9788
vn 0.0305 -0.2411 0.9700
vn 0.2753 -0.2864 0.9177
vn 0.2239 -0.2654 0.9378
vn -0.2239 -0.2654 0.9378
vn -0.2753 -0.2864 0.9177
vn -0.0305 -0.2411 0.9700
vn -0.0237 -0.2035 0.9788
vn -0.0000 -0.0070 1.0000
vn -0.0000 -0.0456 0.9990
vn -0.0000 -0.1150 0.9934
vn -0.0000 -0.1497 0.9887
vn -0.0000 -0.1864 0.9825
vn -0.0000 -0.2213 0.9752
vn 0.3916 0.0003 0.9201
vn 0.4173 -0.0458 0.9076
vn 0.0485 -0.0459 0.9978
vn 0.0449 -0.0063 0.9990
vn 0.4112 -0.1301 0.9022
vn 0.3918 -0.1731 0.9036
vn 0.0450 -0.1527 0.9873
vn 0.0476 -0.1171 0.9920
vn 0.3662 -0.2174 0.9048
vn 0.3377 -0.2577 0.9053
vn 0.0379 -0.2254 0.9735
vn 0.0416 -0.1901 0.9809
vn -0.0449 -0.0063 0.9990
vn -0.0485 -0.0459 0.9978
vn -0.4173 -0.0458 0.9076
vn -0.3916 0.0003 0.9201
vn -0.0476 -0.1171 0.9920
vn -0.0450 -0.1527 0.9873
vn -0.3918 -0.1731 0.9036
vn -0.4112 -0.1301 0.9022
vn -0.0416 -0.1901 0.9809
vn -0.0379 -0.2254 0.9735
vn -0.3377 -0.2577 0.9053
vn -0.3662 -0.2174 0.9048
vn -0.0000 -0.7295 -0.6840
vn -0.0000 -0.7296 -0.6839
vn -0.0000 -0.7295 0.6839
vn 0.3184 0.2621 -0.9110
vn -0.2770 0.0283 -0.9604
vn -0.2763 0.4117 0.8684
vn 0.3171 0.6039 0.7312
vn 0.4246 0.0629 -0.9032
vn -0.3317 0.1696 -0.9280
vn -0.3304 0.5274 0.7828
vn 0.4233 0.4203 0.8026
vn 0.8828 0.0284 -0.4689
vn 0.9173 0.0219 -0.3976
vn 0.9171 0.0209 0.3982
vn 0.8827 0.0282 0.4691
vn 0.3287 0.1909 -0.9249
vn -0.3403 0.0917 -0.9358
vn -0.3392 0.4596 0.8208
vn 0.3274 0.5451 0.7718
vn -0.0000 -0.7295 -0.6839
vn 0.0416 -0.7225 -0.6901
vn 0.3538 -0.6003 -0.7172
vn 0.3538 -0.6003 0.7172
vn 0.0416 -0.7225 0.6901
vn -0.4517 -0.6209 -0.6406
vn -0.0389 -0.7196 -0.6933
vn -0.0389 -0.7196 0.6933
vn -0.4517 -0.6209 0.6406
vn 0.5758 -0.1596 -0.8019
vn 0.5923 -0.2144 -0.7767
vn 0.5934 0.0636 0.8024
vn 0.5765 0.0782 0.8134
vn -0.6284 -0.1188 -0.7687
vn -0.5945 -0.1086 -0.7967
vn -0.5946 0.1254 0.7942
vn -0.6285 0.1507 0.7631
vn -0.8820 0.0527 -0.4683
vn -0.8381 0.0795 -0.5397
vn -0.8380 0.0796 0.5398
vn -0.8818 0.0527 0.4687
vn 0.5826 0.0279 -0.8123
vn 0.5799 -0.0965 -0.8090
vn 0.5668 0.0959 0.8183
vn 0.4919 0.1649 0.8549
vn -0.5765 -0.0836 -0.8128
vn -0.5570 0.0118 -0.8304
vn -0.5456 0.1797 0.8186
vn -0.5767 0.1080 0.8098
vn -0.1881 0.2013 -0.9613
vn 0.2350 0.2960 -0.9258
vn 0.1828 0.3570 0.9161
vn -0.1585 0.3098 0.9375
vn 0.5767 -0.1077 -0.8099
vn 0.5946 -0.1185 -0.7953
vn 0.5942 0.1601 0.7882
vn 0.5765 0.1301 0.8067
vn 0.5259 -0.0030 -0.8505
vn 0.5700 -0.0832 -0.8174
vn 0.5560 0.1127 0.8235
vn 0.4375 0.1439 0.8876
vn -0.6271 -0.2080 -0.7507
vn -0.5943 -0.1557 -0.7890
vn -0.5939 0.0782 0.8007
vn -0.6266 0.0609 0.7770
vn -0.5766 -0.0974 -0.8112
vn -0.5642 0.0188 -0.8254
vn -0.5532 0.1855 0.8122
vn -0.5767 0.0967 0.8112
vn -0.2370 0.2019 -0.9503
vn 0.2823 0.2549 -0.9248
vn 0.1957 0.3293 0.9237
vn -0.1829 0.3182 0.9302
vn 0.5762 -0.0586 -0.8152
vn 0.5918 -0.0275 -0.8056
vn 0.5899 0.2491 0.7681
vn 0.5751 0.1787 0.7983
vn 0.5819 -0.1015 -0.8069
vn 0.5725 -0.0812 -0.8159
vn 0.5719 0.1094 0.8130
vn 0.5814 0.0378 0.8127
vn 0.6519 -0.1650 -0.7401
vn 0.6069 -0.1283 -0.7843
vn 0.6062 -0.0564 0.7933
vn 0.6513 -0.1907 0.7345
vn -0.6244 -0.0228 -0.7807
vn -0.5933 -0.0581 -0.8029
vn -0.5938 0.1754 0.7852
vn -0.6248 0.2448 0.7414
vn -0.5766 -0.0814 -0.8130
vn -0.5723 -0.1032 -0.8135
vn -0.5717 0.0373 0.8196
vn -0.5767 0.1084 0.8097
vn -0.5809 -0.1297 -0.8036
vn -0.6045 -0.1593 -0.7805
vn -0.5958 -0.1857 0.7814
vn -0.5783 -0.0559 0.8139
vn 0.7847 -0.2441 -0.5697
vn 0.7174 -0.2159 -0.6624
vn 0.7185 -0.3310 0.6116
vn 0.7901 -0.3965 0.4675
vn 0.6210 0.0174 -0.7836
vn 0.6514 0.0971 -0.7525
vn 0.6491 0.3870 0.6549
vn 0.6183 0.3131 0.7209
vn -0.7597 -0.1834 -0.6238
vn -0.6687 -0.2415 -0.7033
vn -0.6699 0.0429 0.7412
vn -0.7629 0.0788 0.6417
vn 0.6247 -0.2492 -0.7400
vn 0.6683 -0.2141 -0.7125
vn 0.6692 0.0861 0.7381
vn 0.6260 0.0497 0.7782
vn -0.7359 0.1725 -0.6547
vn -0.6662 0.0291 -0.7452
vn -0.6672 0.3090 0.6778
vn -0.7368 0.4187 0.5309
vn -0.6479 -0.1941 -0.7366
vn -0.7173 -0.2163 -0.6623
vn -0.7030 -0.3965 0.5904
vn -0.6313 -0.3210 0.7060
vn 0.6283 -0.1131 -0.7697
vn 0.6679 -0.0573 -0.7421
vn 0.6672 0.2419 0.7045
vn 0.6278 0.1874 0.7555
vn -0.7598 -0.0027 -0.6502
vn -0.6740 -0.1109 -0.7304
vn -0.6753 0.1740 0.7167
vn -0.7620 0.2559 0.5949
vn 0.9401 0.0193 -0.3405
vn 0.9477 0.0022 -0.3192
vn 0.9478 -0.0263 0.3178
vn 0.9398 0.0136 0.3415
vn 0.9444 -0.0304 -0.3275
vn 0.9361 -0.0478 -0.3486
vn 0.9350 -0.1505 0.3211
vn 0.9436 -0.1056 0.3138
vn 0.9237 -0.0622 -0.3781
vn 0.9080 -0.0709 -0.4129
vn 0.9060 -0.2436 0.3462
vn 0.9222 -0.1985 0.3318
vn -0.9458 0.0032 -0.3247
vn -0.9478 0.0184 -0.3183
vn -0.9473 0.0148 0.3202
vn -0.9462 -0.0272 0.3224
vn -0.9252 -0.0485 -0.3763
vn -0.9374 -0.0319 -0.3469
vn -0.9383 -0.1100 0.3278
vn -0.9269 -0.1573 0.3408
vn -0.8910 -0.0688 -0.4487
vn -0.9093 -0.0618 -0.4116
vn -0.9111 -0.2076 0.3560
vn -0.8908 -0.2556 0.3757
vn -0.8024 -0.1756 -0.5704
vn -0.8646 -0.0922 -0.4940
vn -0.8595 -0.3095 0.4068
vn -0.7939 -0.3829 0.4724
vn -0.9400 0.0212 -0.3404
vn -0.9172 0.0280 -0.3975
vn -0.9169 0.0279 0.3982
vn -0.9396 0.0204 0.3417
vn 0.8863 -0.0971 -0.4528
vn 0.8433 -0.1901 -0.5028
vn 0.8459 -0.3670 0.3871
vn 0.8840 -0.2935 0.3638
vn 0.8491 0.0773 -0.5225
vn 0.8390 0.0534 -0.5414
vn 0.8390 0.0534 0.5415
vn 0.8491 0.0773 0.5225
vn -0.0210 0.1394 -0.9900
vn -0.1740 0.0732 -0.9820
vn -0.1391 0.0379 -0.9896
vn -0.0174 0.0862 -0.9961
vn 0.1129 -0.2106 -0.9710
vn -0.1129 -0.1600 -0.9806
vn -0.1296 -0.1279 -0.9833
vn 0.1302 -0.1850 -0.9741
vn 0.0005 0.1458 -0.9893
vn 0.0011 0.0913 -0.9958
vn -0.0001 0.1459 -0.9893
vn -0.0011 0.1459 -0.9893
vn -0.0012 0.0913 -0.9958
vn -0.0001 0.1971 -0.9804
vn 0.1285 -0.1869 -0.9739
vn -0.1129 -0.1834 -0.9765
vn -0.1298 -0.1585 -0.9788
vn 0.1151 -0.1545 -0.9813
vn 0.1283 -0.1602 -0.9787
vn -0.1290 -0.2091 -0.9694
vn -0.1115 -0.1871 -0.9760
vn 0.1144 -0.1273 -0.9852
vn 0.0376 0.0020 -0.9993
vn 0.3354 0.0086 -0.9421
vn 0.2791 0.0087 -0.9602
vn 0.0307 0.0010 -0.9995
vn -0.3916 0.0085 -0.9201
vn -0.0449 0.0019 -0.9990
vn -0.0376 0.0009 -0.9993
vn -0.3354 0.0088 -0.9420
vn 0.0085 0.0267 -0.9996
vn -0.0627 -0.0125 -0.9980
vn -0.0001 0.0245 -0.9997
vn -0.0012 0.0285 -0.9996
vn -0.1129 -0.1723 -0.9786
vn 0.1034 -0.1698 -0.9800
vn 0.0988 -0.1435 -0.9847
vn -0.1034 -0.1448 -0.9840
vn -0.0988 -0.1153 -0.9884
vn 0.0937 -0.1139 -0.9891
vn 0.0629 -0.0729 -0.9954
vn -0.0932 -0.0824 -0.9922
vn -0.0067 -0.0376 -0.9993
vn 0.0642 -0.0125 -0.9979
vn 0.0078 0.0240 -0.9997
vn 0.0092 0.0251 -0.9996
vn -0.0661 -0.0032 -0.9978
vn -0.0084 0.0259 -0.9996
vn 0.0093 0.0275 -0.9996
vn -0.1034 -0.1882 -0.9767
vn 0.1034 -0.1540 -0.9826
vn 0.0988 -0.1351 -0.9859
vn -0.0987 -0.1533 -0.9832
vn -0.0948 -0.1172 -0.9886
vn 0.0973 -0.1134 -0.9888
vn 0.0973 -0.0906 -0.9911
vn -0.0942 -0.0783 -0.9925
vn -0.0645 -0.0327 -0.9974
vn 0.1005 -0.0603 -0.9931
vn 0.1180 -0.0139 -0.9929
vn 0.0045 0.0187 -0.9998
vn -0.1129 -0.1550 -0.9814
vn 0.1129 -0.1866 -0.9759
vn 0.1034 -0.1521 -0.9829
vn -0.1034 -0.1360 -0.9853
vn -0.0988 -0.1138 -0.9886
vn 0.0988 -0.1160 -0.9883
vn 0.0635 -0.0707 -0.9955
vn -0.1006 -0.0897 -0.9909
vn -0.1180 -0.0571 -0.9914
vn -0.0051 -0.0110 -0.9999
vn -0.0174 0.0212 -0.9996
vn -0.1390 -0.0130 -0.9902
vn 0.2261 0.0637 -0.9720
vn 0.0257 0.1393 -0.9899
vn 0.0210 0.0864 -0.9960
vn 0.1737 0.0338 -0.9842
vn 0.0005 0.1972 -0.9804
vn 0.0001 0.2358 -0.9718
vn 0.0252 -0.0008 -0.9997
vn 0.2418 0.0132 -0.9702
vn 0.1641 -0.0169 -0.9863
vn 0.0194 -0.0657 -0.9977
vn -0.2791 0.0131 -0.9602
vn -0.0307 -0.0009 -0.9995
vn -0.0257 -0.0673 -0.9974
vn -0.2431 -0.0251 -0.9697
vn 0.0257 0.1903 -0.9814
vn 0.2269 0.1168 -0.9669
vn 0.2761 0.1653 -0.9468
vn 0.0305 0.2300 -0.9727
vn -0.2752 0.1117 -0.9549
vn -0.0305 0.1907 -0.9812
vn -0.0343 0.2308 -0.9724
vn -0.3092 0.1660 -0.9364
vn 0.4168 0.0125 -0.9089
vn 0.0483 0.0076 -0.9988
vn 0.0484 0.0456 -0.9978
vn 0.4171 0.0375 -0.9081
vn 0.4115 0.0800 -0.9079
vn 0.0476 0.1127 -0.9925
vn 0.0450 0.1465 -0.9882
vn 0.3923 0.1028 -0.9141
vn 0.3668 0.1297 -0.9212
vn 0.0416 0.1824 -0.9823
vn 0.0380 0.2166 -0.9755
vn 0.3385 0.1582 -0.9276
vn -0.0449 0.0077 -0.9990
vn -0.3917 0.0132 -0.9200
vn -0.4110 0.0368 -0.9109
vn -0.0476 0.0455 -0.9978
vn -0.0450 0.1122 -0.9927
vn -0.3919 0.0778 -0.9167
vn -0.3663 0.1007 -0.9251
vn -0.0416 0.1459 -0.9884
vn -0.0380 0.1816 -0.9826
vn -0.3379 0.1278 -0.9325
vn -0.3091 0.1566 -0.9381
vn -0.0343 0.2158 -0.9758
vn -0.0160 -0.1518 0.9883
vn -0.0118 -0.0956 0.9954
vn -0.1312 -0.1408 0.9813
vn -0.1671 -0.2121 0.9629
vn 0.1278 0.1742 0.9764
vn 0.1072 0.2163 0.9704
vn -0.1111 0.2741 0.9553
vn -0.1271 0.2227 0.9666
vn -0.0009 -0.1456 0.9893
vn -0.0010 -0.0914 0.9958
vn 0.0010 -0.0914 0.9958
vn 0.0009 -0.1456 0.9893
vn 0.1273 0.1965 0.9722
vn 0.1117 0.2484 0.9622
vn -0.1117 0.2484 0.9622
vn -0.1273 0.1965 0.9722
vn 0.1271 0.2227 0.9666
vn 0.1111 0.2741 0.9553
vn -0.1072 0.2163 0.9704
vn -0.1278 0.1742 0.9764
vn 0.0376 -0.0005 0.9993
vn 0.0307 0.0006 0.9995
vn 0.2791 0.0083 0.9602
vn 0.3353 0.0063 0.9421
vn -0.3353 0.0063 0.9421
vn -0.2791 0.0083 0.9602
vn -0.0307 0.0006 0.9995
vn -0.0376 -0.0005 0.9993
vn 0.0034 0.0678 0.9977
vn 0.0012 -0.0192 0.9998
vn 0.0001 -0.0185 0.9998
vn -0.0024 0.0673 0.9977
vn -0.1034 0.1750 0.9791
vn -0.0988 0.1462 0.9843
vn 0.0988 0.1462 0.9843
vn 0.1034 0.1750 0.9791
vn -0.0880 0.1197 0.9889
vn -0.0391 0.1049 0.9937
vn 0.0391 0.1049 0.9937
vn 0.0880 0.1197 0.9889
vn -0.0027 0.0473 0.9989
vn -0.0000 -0.0191 0.9998
vn 0.0027 0.0473 0.9989
vn 0.0024 0.0673 0.9977
vn -0.0001 -0.0185 0.9998
vn -0.0012 -0.0192 0.9998
vn -0.0034 0.0678 0.9977
vn -0.1035 0.1566 0.9822
vn -0.0988 0.1365 0.9857
vn 0.0987 0.1546 0.9830
vn 0.1034 0.1907 0.9762
vn -0.0884 0.1146 0.9895
vn -0.0362 0.1059 0.9937
vn 0.1033 0.0810 0.9913
vn 0.0980 0.1179 0.9882
vn 0.0064 0.0635 0.9980
vn 0.0112 -0.0203 0.9997
vn 0.1311 -0.0488 0.9902
vn 0.1140 0.0308 0.9930
vn -0.1034 0.1907 0.9762
vn -0.0987 0.1546 0.9830
vn 0.0988 0.1365 0.9857
vn 0.1035 0.1566 0.9822
vn -0.0980 0.1179 0.9882
vn -0.1033 0.0810 0.9913
vn 0.0362 0.1059 0.9937
vn 0.0884 0.1146 0.9895
vn -0.1140 0.0308 0.9930
vn -0.1311 -0.0488 0.9902
vn -0.0112 -0.0203 0.9997
vn -0.0064 0.0635 0.9980
vn 0.1671 -0.2121 0.9629
vn 0.1312 -0.1408 0.9813
vn 0.0118 -0.0956 0.9954
vn 0.0160 -0.1518 0.9883
vn 0.0252 -0.0008 0.9997
vn 0.0194 -0.0657 0.9976
vn 0.1641 -0.0169 0.9863
vn 0.2418 0.0132 0.9702
vn -0.2418 0.0132 0.9702
vn -0.1641 -0.0169 0.9863
vn -0.0194 -0.0657 0.9976
vn -0.0252 -0.0008 0.9997
vn 0.0303 -0.2030 0.9787
vn 0.0344 -0.2403 0.9701
vn 0.3087 -0.2811 0.9087
vn 0.2757 -0.2654 0.9239
vn -0.2757 -0.2654 0.9239
vn -0.3087 -0.2811 0.9087
vn -0.0344 -0.2403 0.9701
vn -0.0303 -0.2030 0.9787
vn -0.0001 -0.0456 0.9990
vn -0.0001 -0.1497 0.9887
vn -0.0001 -0.1150 0.9934
vn 0.4166 -0.0003 0.9091
vn 0.4113 -0.0467 0.9103
vn 0.0477 -0.0460 0.9978
vn 0.0484 -0.0064 0.9988
vn 0.3924 -0.1342 0.9100
vn 0.3669 -0.1782 0.9130
vn 0.0417 -0.1533 0.9873
vn 0.0451 -0.1177 0.9920
vn 0.3384 -0.2231 0.9142
vn 0.3091 -0.2635 0.9138
vn 0.0344 -0.2262 0.9735
vn 0.0380 -0.1908 0.9809
vn -0.0484 -0.0064 0.9988
vn -0.0477 -0.0460 0.9978
vn -0.4113 -0.0467 0.9103
vn -0.4166 -0.0003 0.9091
vn -0.0451 -0.1177 0.9920
vn -0.0417 -0.1533 0.9873
vn -0.3669 -0.1782 0.9130
vn -0.3924 -0.1342 0.9100
vn -0.0380 -0.1908 0.9809
vn -0.0344 -0.2262 0.9735
vn -0.3091 -0.2635 0.9138
vn -0.3384 -0.2231 0.9142
vn 0.0001 -0.0456 0.9990
vn 0.0001 -0.1150 0.9934
vn 0.0001 -0.1497 0.9887
vn 0.3317 0.1696 -0.9280
vn -0.4246 0.0629 -0.9032
vn -0.4233 0.4203 0.8026
vn 0.3304 0.5274 0.7828
vn 0.2770 0.0283 -0.9604
vn -0.3184 0.2621 -0.9110
vn -0.3171 0.6039 0.7312
vn 0.2763 0.4117 0.8684
vn 0.9172 0.0280 -0.3975
vn 0.9400 0.0212 -0.3404
vn 0.9396 0.0204 0.3417
vn 0.9169 0.0279 0.3982
vn 0.3403 0.0917 -0.9358
vn -0.3287 0.1909 -0.9249
vn -0.3274 0.5451 0.7718
vn 0.3392 0.4596 0.8208
vn 0.0389 -0.7196 -0.6933
vn 0.4517 -0.6209 -0.6406
vn 0.4517 -0.6209 0.6406
vn 0.0389 -0.7196 0.6933
vn -0.3538 -0.6003 -0.7173
vn -0.0416 -0.7225 -0.6901
vn -0.0416 -0.7225 0.6901
vn -0.3538 -0.6003 0.7172
vn 0.5943 -0.1557 -0.7890
vn 0.6271 -0.2080 -0.7507
vn 0.6266 0.0609 0.7770
vn 0.5939 0.0782 0.8007
vn -0.5946 -0.1185 -0.7953
vn -0.5767 -0.1077 -0.8099
vn -0.5765 0.1301 0.8067
vn -0.5942 0.1601 0.7882
vn -0.8390 0.0534 -0.5414
vn -0.8491 0.0773 -0.5225
vn -0.8491 0.0773 0.5225
vn -0.8390 0.0534 0.5415
vn 0.5642 0.0188 -0.8254
vn 0.5766 -0.0974 -0.8112
vn 0.5767 0.0967 0.8112
vn 0.5532 0.1855 0.8122
vn -0.5700 -0.0832 -0.8174
vn -0.5259 -0.0030 -0.8505
vn -0.4375 0.1439 0.8876
vn -0.5560 0.1127 0.8235
vn -0.2823 0.2549 -0.9248
vn 0.2370 0.2019 -0.9503
vn 0.1829 0.3182 0.9302
vn -0.1957 0.3293 0.9237
vn 0.5945 -0.1086 -0.7967
vn 0.6284 -0.1188 -0.7687
vn 0.6285 0.1507 0.7631
vn 0.5946 0.1254 0.7942
vn 0.5570 0.0118 -0.8304
vn 0.5765 -0.0836 -0.8128
vn 0.5767 0.1080 0.8098
vn 0.5456 0.1797 0.8186
vn -0.5923 -0.2144 -0.7767
vn -0.5758 -0.1596 -0.8019
vn -0.5765 0.0782 0.8134
vn -0.5934 0.0636 0.8024
vn -0.5799 -0.0965 -0.8090
vn -0.5826 0.0279 -0.8123
vn -0.4919 0.1649 0.8549
vn -0.5668 0.0959 0.8183
vn -0.2350 0.2960 -0.9258
vn 0.1881 0.2013 -0.9613
vn 0.1585 0.3098 0.9375
vn -0.1828 0.3570 0.9161
vn 0.5933 -0.0581 -0.8029
vn 0.6244 -0.0228 -0.7807
vn 0.6248 0.2448 0.7414
vn 0.5938 0.1754 0.7852
vn 0.5723 -0.1032 -0.8135
vn 0.5766 -0.0814 -0.8130
vn 0.5767 0.1084 0.8097
vn 0.5717 0.0373 0.8196
vn 0.6045 -0.1593 -0.7805
vn 0.5809 -0.1297 -0.8036
vn 0.5783 -0.0559 0.8139
vn 0.5958 -0.1857 0.7814
vn -0.5918 -0.0275 -0.8056
vn -0.5761 -0.0586 -0.8152
vn -0.5751 0.1787 0.7983
vn -0.5899 0.2491 0.7681
vn -0.5725 -0.0812 -0.8159
vn -0.5819 -0.1015 -0.8069
vn -0.5814 0.0378 0.8127
vn -0.5719 0.1094 0.8130
vn -0.6069 -0.1283 -0.7843
vn -0.6519 -0.1650 -0.7401
vn -0.6513 -0.1907 0.7345
vn -0.6062 -0.0564 0.7933
vn 0.7173 -0.2163 -0.6623
vn 0.6479 -0.1941 -0.7366
vn 0.6313 -0.3210 0.7060
vn 0.7030 -0.3965 0.5904
vn 0.6662 0.0291 -0.7452
vn 0.7359 0.1725 -0.6547
vn 0.7368 0.4187 0.5309
vn 0.6672 0.3090 0.6778
vn -0.6683 -0.2141 -0.7125
vn -0.6247 -0.2492 -0.7400
vn -0.6260 0.0497 0.7782
vn -0.6692 0.0861 0.7381
vn 0.6687 -0.2415 -0.7033
vn 0.7597 -0.1834 -0.6238
vn 0.7629 0.0788 0.6417
vn 0.6699 0.0429 0.7412
vn -0.6514 0.0971 -0.7525
vn -0.6210 0.0174 -0.7836
vn -0.6183 0.3131 0.7209
vn -0.6491 0.3870 0.6549
vn -0.7174 -0.2159 -0.6624
vn -0.7847 -0.2441 -0.5697
vn -0.7901 -0.3965 0.4675
vn -0.7185 -0.3310 0.6116
vn 0.6740 -0.1109 -0.7304
vn 0.7598 -0.0027 -0.6502
vn 0.7620 0.2559 0.5949
vn 0.6753 0.1740 0.7167
vn -0.6679 -0.0573 -0.7421
vn -0.6283 -0.1131 -0.7697
vn -0.6278 0.1874 0.7555
vn -0.6672 0.2419 0.7045
vn 0.9478 0.0184 -0.3183
vn 0.9458 0.0032 -0.3247
vn 0.9462 -0.0272 0.3224
vn 0.9473 0.0148 0.3202
vn 0.9374 -0.0319 -0.3469
vn 0.9252 -0.0485 -0.3763
vn 0.9269 -0.1573 0.3408
vn 0.9383 -0.1100 0.3278
vn 0.9093 -0.0618 -0.4116
vn 0.8910 -0.0688 -0.4487
vn 0.8908 -0.2556 0.3757
vn 0.9111 -0.2076 0.3560
vn -0.9477 0.0022 -0.3192
vn -0.9401 0.0193 -0.3405
vn -0.9398 0.0136 0.3415
vn -0.9478 -0.0263 0.3178
vn -0.9361 -0.0478 -0.3486
vn -0.9444 -0.0304 -0.3275
vn -0.9436 -0.1056 0.3138
vn -0.9350 -0.1505 0.3211
vn -0.9080 -0.0709 -0.4129
vn -0.9237 -0.0622 -0.3781
vn -0.9222 -0.1985 0.3318
vn -0.9060 -0.2436 0.3462
vn -0.8433 -0.1901 -0.5028
vn -0.8863 -0.0971 -0.4528
vn -0.8840 -0.2935 0.3638
vn -0.8459 -0.3670 0.3871
vn -0.9173 0.0219 -0.3976
vn -0.8828 0.0284 -0.4689
vn -0.8827 0.0282 0.4691
vn -0.9171 0.0209 0.3982
vn 0.8646 -0.0922 -0.4940
vn 0.8024 -0.1756 -0.5704
vn 0.7939 -0.3829 0.4724
vn 0.8595 -0.3095 0.4068
vn 0.8381 0.0795 -0.5397
vn 0.8820 0.0527 -0.4683
vn 0.8818 0.0527 0.4687
vn 0.8380 0.0796 0.5398
vt 0.895833 0.033333
vt 0.800000 0.103944
vt 0.800000 0.033333
vt 0.966667 0.033333
vt 0.895833 0.103944
vt 0.966667 0.103944
vt 0.895833 0.198222
vt 0.800000 0.198222
vt 0.833333 0.797115
vt 0.900000 0.891823
vt 0.836188 0.890708
vt 0.900000 0.797115
vt 0.963812 0.890708
vt 0.950000 0.948399
vt 0.900000 0.959707
vt 0.850000 0.948399
vt 0.200000 0.033333
vt 0.300000 0.103944
vt 0.200000 0.103944
vt 0.300000 0.033333
vt 0.400000 0.103944
vt 0.400000 0.198222
vt 0.300000 0.198222
vt 0.200000 0.198222
vt 0.400000 0.033333
vt 0.500000 0.103944
vt 0.600000 0.033333
vt 0.500000 0.033333
vt 0.600000 0.103944
vt 0.500000 0.198222
vt 0.700000 0.033333
vt 0.700000 0.103944
vt 0.700000 0.198222
vt 0.600000 0.198222
vt 0.800454 0.004167
vt 0.700308 0.004167
vt 0.600155 0.004167
vt 0.702466 0.000000
vt 0.803633 0.000000
vt 0.500000 0.797115
vt 0.436188 0.890708
vt 0.433333 0.797115
vt 0.563812 0.890708
vt 0.500000 0.891823
vt 0.550000 0.948399
vt 0.500000 0.959707
vt 0.450000 0.948399
vt 0.100000 0.797115
vt 0.036188 0.890708
vt 0.033333 0.797115
vt 0.166667 0.797115
vt 0.100000 0.891823
vt 0.163812 0.890708
vt 0.100000 0.959707
vt 0.050000 0.948399
vt 0.098262 0.000000
vt 0.199439 0.000000
vt 0.195513 0.000000
vt 0.026386 0.000000
vt 0.103429 0.000000
vt 0.032465 0.000000
vt 0.104167 0.000000
vt 0.200000 0.000000
vt 0.973614 0.000000
vt 0.896572 0.000000
vt 0.967535 0.000000
vt 0.901738 0.000000
vt 0.800561 0.000000
vt 0.800000 0.000000
vt 0.895833 0.000000
vt 0.966667 0.000000
vt 0.297003 0.000000
vt 0.399813 0.000000
vt 0.398501 0.000000
vt 0.299625 0.000000
vt 0.300000 0.000000
vt 0.400000 0.000000
vt 0.700000 0.365085
vt 0.800000 0.294154
vt 0.800000 0.392891
vt 0.600000 0.294154
vt 0.700000 0.291947
vt 0.566667 0.797115
vt 0.500000 0.700688
vt 0.566667 0.700688
vt 0.433333 0.700688
vt 0.500000 0.602691
vt 0.566667 0.602691
vt 0.500000 0.498661
vt 0.570139 0.499244
vt 0.433333 0.602691
vt 0.429861 0.499244
vt 0.500000 0.393977
vt 0.600000 0.392891
vt 0.400000 0.294154
vt 0.500000 0.294988
vt 0.601499 0.000000
vt 0.500000 0.000000
vt 0.600187 0.000000
vt 0.600000 0.000000
vt 0.804487 0.000000
vt 0.700375 0.000000
vt 0.702997 0.000000
vt 0.700000 0.000000
vt 0.300000 0.365085
vt 0.400000 0.392891
vt 0.200000 0.294154
vt 0.300000 0.291947
vt 0.166667 0.700688
vt 0.100000 0.700688
vt 0.033333 0.700688
vt 0.100000 0.602691
vt 0.166667 0.602691
vt 0.170139 0.499244
vt 0.033333 0.602691
vt 0.100694 0.498698
vt 0.033333 0.394273
vt 0.103472 0.394125
vt 0.200000 0.392891
vt 0.104167 0.295025
vt 0.033333 0.295062
vt 0.033333 0.198222
vt 0.104167 0.198222
vt 0.966667 0.797115
vt 0.900000 0.700688
vt 0.966667 0.700688
vt 0.833333 0.700688
vt 0.833333 0.602691
vt 0.900000 0.602691
vt 0.966667 0.602691
vt 0.899306 0.498698
vt 0.966667 0.498735
vt 0.829861 0.499244
vt 0.896528 0.394125
vt 0.966667 0.394273
vt 0.966667 0.295062
vt 0.895833 0.295025
vt 0.966667 0.198222
vt 0.033333 0.033333
vt 0.104167 0.103944
vt 0.033333 0.103944
vt 0.104167 0.033333
vt 0.299692 0.004167
vt 0.399845 0.004167
vt 0.199546 0.004167
vt 0.196367 0.000000
vt 0.297534 0.000000
vt 0.398761 0.000000
vt 0.200000 0.000000
vt 0.033333 0.000000
vt 0.104707 0.000000
vt 0.036188 0.000000
vt 0.106327 0.000000
vt 0.895293 0.000000
vt 0.963812 0.000000
vt 0.800000 0.000000
vt 0.800000 0.000000
vt 0.893673 0.000000
vt 0.950000 0.000000
vt 0.400000 0.000000
vt 0.300000 0.000000
vt 0.103584 0.004167
vt 0.032661 0.004167
vt 0.027958 0.000000
vt 0.099508 0.000000
vt 0.500000 0.004167
vt 0.601239 0.000000
vt 0.967339 0.004167
vt 0.896416 0.004167
vt 0.900492 0.000000
vt 0.972042 0.000000
vt 0.708925 0.000000
vt 0.604465 0.000000
vt 0.813355 0.000000
vt 0.714454 0.000000
vt 0.607236 0.000000
vt 0.607872 0.000000
vt 0.821582 0.000000
vt 0.715707 0.000000
vt 0.823346 0.000000
vt 0.712862 0.000000
vt 0.606455 0.000000
vt 0.603750 0.000000
vt 0.819019 0.000000
vt 0.707465 0.000000
vt 0.811006 0.000000
vt 0.012689 0.000000
vt 0.086609 0.000000
vt 0.178418 0.000000
vt 0.075890 0.000000
vt 0.000171 0.000000
vt 0.073798 0.000000
vt -0.002093 0.000000
vt 0.176654 0.000000
vt 0.180981 0.000000
vt 0.079628 0.000000
vt 0.004885 0.000000
vt 0.090035 0.000000
vt 0.017011 0.000000
vt 0.188994 0.000000
vt 0.395535 0.000000
vt 0.392764 0.000000
vt 0.500000 0.000000
vt 0.392128 0.000000
vt 0.393545 0.000000
vt 0.396250 0.000000
vt 0.913391 0.000000
vt 0.987311 0.000000
vt 0.924110 0.000000
vt 0.999829 0.000000
vt 0.926202 0.000000
vt 1.002093 0.000000
vt 0.920372 0.000000
vt 0.995115 0.000000
vt 0.909965 0.000000
vt 0.982989 0.000000
vt 0.186645 0.000000
vt 0.291076 0.000000
vt 0.285546 0.000000
vt 0.284293 0.000000
vt 0.287138 0.000000
vt 0.292535 0.000000
vt 0.800000 0.099778
vt 0.900000 0.000000
vt 0.800000 0.198222
vt 0.900000 0.099815
vt 0.900000 0.198371
vt 1.000000 0.100000
vt 1.000000 0.000000
vt 0.800000 0.793596
vt 0.900000 0.897091
vt 0.900000 0.796528
vt 0.800000 0.896798
vt 0.900000 1.000000
vt 1.000000 1.000000
vt 1.000000 0.896798
vt 1.000000 0.793596
vt 0.200000 0.000000
vt 0.300000 0.099778
vt 0.300000 0.000000
vt 0.200000 0.099778
vt 0.300000 0.198222
vt 0.400000 0.198222
vt 0.400000 0.099778
vt 0.400000 0.000000
vt 0.500000 0.099778
vt 0.500000 0.198222
vt 0.600000 0.099778
vt 0.600000 0.000000
vt 0.600000 0.198222
vt 0.700000 0.099778
vt 0.700000 0.198222
vt 0.800454 0.000000
vt 0.803633 0.000000
vt 0.700308 0.000000
vt 0.600155 0.000000
vt 0.400000 0.896798
vt 0.500000 0.796528
vt 0.400000 0.793596
vt 0.400000 1.000000
vt 0.500000 0.897091
vt 0.600000 1.000000
vt 0.600000 0.896798
vt 0.600000 0.793596
vt 0.000000 0.896798
vt 0.100000 0.796528
vt 0.000000 0.793596
vt 0.000000 1.000000
vt 0.100000 0.897091
vt 0.100000 1.000000
vt 0.200000 0.896798
vt 0.200000 0.793596
vt 0.199439 0.000000
vt 0.195513 0.000000
vt 0.103429 0.000000
vt 0.026386 0.000000
vt 0.973614 0.000000
vt 0.896572 0.000000
vt 0.800561 0.000000
vt 0.398501 0.000000
vt 0.299625 0.000000
vt 0.800000 0.294548
vt 0.700000 0.389334
vt 0.800000 0.389334
vt 0.700000 0.294445
vt 0.600000 0.294548
vt 0.600000 0.389334
vt 0.500000 0.700775
vt 0.600000 0.700950
vt 0.500000 0.603626
vt 0.400000 0.700950
vt 0.600000 0.608303
vt 0.500000 0.498763
vt 0.600000 0.498819
vt 0.500000 0.393450
vt 0.400000 0.498819
vt 0.400000 0.608303
vt 0.500000 0.294857
vt 0.400000 0.294548
vt 0.400000 0.389334
vt 0.600188 0.000000
vt 0.700375 0.000000
vt 0.702997 0.000000
vt 0.700000 0.000000
vt 0.600000 0.000000
vt 0.300000 0.389334
vt 0.300000 0.294445
vt 0.200000 0.198222
vt 0.200000 0.294548
vt 0.200000 0.389334
vt 0.200000 0.700950
vt 0.200000 0.608303
vt 0.100000 0.700775
vt 0.100000 0.603626
vt 0.000000 0.700950
vt 0.200000 0.498819
vt 0.100000 0.393450
vt 0.100000 0.498763
vt 0.000000 0.389334
vt 0.000000 0.498819
vt 0.000000 0.608303
vt 0.100000 0.294894
vt 0.100000 0.198371
vt 0.000000 0.200000
vt 0.000000 0.294667
vt 0.900000 0.700775
vt 1.000000 0.700950
vt 0.900000 0.603626
vt 0.800000 0.608303
vt 0.800000 0.700950
vt 1.000000 0.608303
vt 0.900000 0.498763
vt 1.000000 0.389334
vt 1.000000 0.498819
vt 0.900000 0.393450
vt 0.800000 0.498819
vt 1.000000 0.294667
vt 1.000000 0.200000
vt 0.900000 0.294894
vt 0.000000 0.000000
vt 0.100000 0.099815
vt 0.100000 0.000000
vt 0.000000 0.100000
vt 0.299692 0.000000
vt 0.399845 0.000000
vt 0.199546 0.000000
vt 0.200000 0.000000
vt 0.104707 0.000000
vt 0.106327 0.000000
vt 0.036188 0.000000
vt 0.102890 0.000000
vt 0.099508 0.000000
vt 0.027958 0.000000
vt 0.029884 0.000694
vt 0.601239 0.000000
vt 0.398761 0.000000
vt 0.970116 0.000694
vt 0.972042 0.000000
vt 0.897110 0.000000
vt 0.900492 0.000000
vt 0.708924 0.000000
vt 0.714454 0.000000
vt 0.607872 0.000000
vt 0.715707 0.000000
vt 0.712862 0.000000
vt 0.823346 0.000000
vt 0.821582 0.000000
vt 0.603750 0.000000
vt 0.811006 0.000000
vt 0.075890 0.000000
vt 0.186645 0.000000
vt 0.000171 0.000000
vt 0.090035 0.000000
vt 0.395535 0.000000
vt 0.392128 0.000000
vt 0.913391 0.000000
vt 0.924110 0.000000
vt 0.987311 0.000000
vt 0.920372 0.000000
vt 0.999830 0.000000
vt 0.909965 0.000000
vt 0.982989 0.000000
vt 0.285546 0.000000
vt 0.284293 0.000000
vt 0.287138 0.000000
vt 0.292535 0.000000
vt 0.033410 0.965520
vt 0.150000 0.948399
vt 0.100000 0.988852
vt 0.200000 1.000000
vt 0.900000 0.988852
vt 0.833411 0.965520
vt 0.966590 0.965520
vt 0.800000 1.000000
vt 0.007419 0.000000
vt 0.008333 0.000000
vt 0.001019 0.000000
vt 0.433411 0.965520
vt 0.566590 0.965520
vt 0.500000 0.988852
vt 0.500000 1.000000
vt 0.050000 0.000000
vt 0.105247 0.000000
vt 0.894753 0.000000
vt 0.960957 0.000000
vt 0.804167 0.603158
vt 0.804167 0.700732
vt 0.595833 0.796822
vt 0.595833 0.700732
vt 0.991667 0.000000
vt 0.987809 0.000000
vt 0.772917 0.419353
vt 0.800695 0.501341
vt 0.595833 0.603158
vt 0.627083 0.419353
vt 0.599306 0.501341
vt 0.700000 0.392919
vt 0.404167 0.700732
vt 0.404167 0.603158
vt 0.404167 0.796821
vt 0.372917 0.419353
vt 0.400695 0.501341
vt 0.195833 0.700732
vt 0.195833 0.796822
vt 0.195833 0.603158
vt 0.199306 0.501341
vt 0.227083 0.419353
vt 0.300000 0.392919
vt 0.004167 0.700732
vt 0.004167 0.603158
vt 0.004167 0.796821
vt 0.033333 0.498735
vt 0.004167 0.393862
vt 0.004167 0.498749
vt 0.004167 0.198371
vt 0.004167 0.294997
vt 0.995833 0.796822
vt 0.995833 0.700732
vt 0.995833 0.603158
vt 0.995833 0.393862
vt 0.995833 0.498749
vt 0.995833 0.294997
vt 0.995833 0.198371
vt 0.004861 0.030556
vt 0.004167 0.103287
vt 0.007485 0.893024
vt 0.192515 0.893024
vt 0.166590 0.965520
vt 0.804167 0.796821
vt 0.807485 0.893024
vt 0.992516 0.893024
vt 0.995833 0.103287
vt 0.995139 0.030556
vt 0.407485 0.893024
vt 0.592515 0.893024
vt -0.013399 0.000000
vt -0.026549 0.000000
vt 0.000171 0.000000
vt -0.028867 0.000000
vt -0.021480 0.000000
vt -0.008752 0.000000
vt 1.026549 0.000000
vt 1.013399 0.000000
vt 0.998981 0.000000
vt 1.028867 0.000000
vt 1.021480 0.000000
vt 1.008752 0.000000
vt 0.997292 0.000000
vt 0.993064 0.003472
vt 0.992581 0.000000
vt 0.002709 0.000000
vt 0.006936 0.003472
vt 0.012191 0.000000
vt 0.039043 0.000000
s 0
f 145/1/1 206/2/1 8/3/1
f 2/4/2 429/5/2 145/1/2
f 207/6/3 199/7/3 429/5/3
f 429/5/4 39/8/4 206/2/4
f 40/9/5 430/10/5 204/11/5
f 194/12/6 205/13/6 430/10/6
f 430/10/7 4/14/7 152/15/7
f 204/11/8 152/15/8 9/16/8
f 5/17/9 431/18/9 201/19/9
f 149/20/10 209/21/10 431/18/10
f 431/18/11 32/22/11 185/23/11
f 201/19/12 185/23/12 28/24/12
f 6/25/13 432/26/13 209/21/13
f 7/27/13 432/26/13 150/28/13
f 211/29/14 178/30/14 432/26/14
f 209/21/14 178/30/14 32/22/14
f 151/31/13 211/29/13 7/27/13
f 8/3/15 433/32/15 151/31/15
f 206/2/16 171/33/16 433/32/16
f 433/32/17 36/34/17 211/29/17
f 151/31/18 256/35/18 8/3/18
f 7/27/19 434/36/19 151/31/19
f 257/37/20 224/38/20 434/36/20
f 434/36/21 50/39/21 256/35/21
f 172/40/22 208/41/22 31/42/22
f 172/40/23 210/43/23 435/44/23
f 435/44/24 10/45/24 154/46/24
f 435/44/25 11/47/25 208/41/25
f 186/48/26 202/49/26 20/50/26
f 27/51/27 436/52/27 186/48/27
f 203/53/28 147/54/28 436/52/28
f 436/52/29 3/55/29 202/49/29
f 226/56/30 155/57/30 61/58/30
f 69/59/31 437/60/31 226/56/31
f 153/61/32 214/62/32 437/60/32
f 437/60/33 14/63/33 155/57/33
f 66/64/34 438/65/34 258/66/34
f 242/67/35 253/68/35 438/65/35
f 438/65/36 18/69/36 159/70/36
f 258/66/37 159/70/37 16/71/37
f 249/72/38 163/73/38 58/74/38
f 61/58/38 439/75/38 249/72/38
f 155/57/39 212/76/39 439/75/39
f 439/75/39 15/77/39 163/73/39
f 168/78/40 169/79/40 41/80/40
f 168/78/41 170/81/41 440/82/41
f 170/81/42 171/33/42 440/82/42
f 440/82/43 39/8/43 169/79/43
f 35/83/44 441/84/44 164/85/44
f 31/42/45 441/84/45 172/40/45
f 173/86/46 174/87/46 441/84/46
f 164/85/47 174/87/47 37/88/47
f 37/88/48 442/89/48 167/90/48
f 33/91/49 442/89/49 174/87/49
f 175/92/50 176/93/50 442/89/50
f 167/90/51 176/93/51 38/94/51
f 176/93/52 170/81/52 38/94/52
f 176/93/53 177/95/53 443/96/53
f 443/96/54 32/22/54 178/30/54
f 443/96/55 36/34/55 170/81/55
f 54/97/38 444/98/38 179/99/38
f 58/74/38 444/98/38 236/98/38
f 163/73/39 158/98/39 444/98/39
f 179/99/39 158/98/39 17/100/39
f 49/101/38 445/102/38 253/68/38
f 216/103/38 179/99/38 445/102/38
f 445/102/39 17/100/39 213/104/39
f 253/68/39 213/104/39 18/69/39
f 183/105/56 177/95/56 34/106/56
f 183/105/57 184/107/57 446/108/57
f 446/108/58 28/24/58 185/23/58
f 177/95/59 185/23/59 32/22/59
f 186/48/60 180/109/60 27/51/60
f 20/50/61 447/110/61 186/48/61
f 187/111/62 188/112/62 447/110/62
f 447/110/63 29/113/63 180/109/63
f 188/112/64 182/114/64 29/113/64
f 22/115/65 448/116/65 188/112/65
f 448/116/66 21/117/66 190/118/66
f 182/114/67 190/118/67 30/119/67
f 30/119/68 449/120/68 184/107/68
f 190/118/69 191/121/69 449/120/69
f 449/120/70 19/122/70 192/123/70
f 184/107/71 192/123/71 28/24/71
f 23/124/72 450/125/72 193/126/72
f 194/12/73 162/127/73 450/125/73
f 450/125/74 42/128/74 195/129/74
f 193/126/75 195/129/75 25/130/75
f 25/130/76 451/131/76 196/132/76
f 195/129/77 166/133/77 451/131/77
f 166/133/78 197/134/78 451/131/78
f 451/131/79 26/135/79 196/132/79
f 197/134/80 198/136/80 26/135/80
f 41/80/81 452/137/81 197/134/81
f 169/79/82 199/7/82 452/137/82
f 452/137/83 24/138/83 198/136/83
f 1/139/84 453/140/84 200/141/84
f 148/142/85 201/19/85 453/140/85
f 453/140/86 28/24/86 192/123/86
f 200/141/87 192/123/87 19/122/87
f 6/25/19 454/143/19 260/144/19
f 149/20/88 261/145/88 454/143/88
f 454/143/20 62/146/20 252/147/20
f 260/144/20 252/147/20 57/148/20
f 214/62/89 262/149/89 14/63/89
f 13/150/90 455/151/90 214/62/90
f 264/152/91 157/153/91 455/151/91
f 455/151/92 46/149/92 262/149/92
f 16/71/93 456/154/93 165/155/93
f 159/70/94 181/156/94 456/154/94
f 456/154/95 43/157/95 160/158/95
f 165/155/96 160/158/96 47/159/96
f 212/76/97 259/160/97 15/77/97
f 14/63/97 457/161/97 212/76/97
f 262/149/98 156/76/98 457/161/98
f 457/161/98 45/77/98 259/160/98
f 17/100/97 458/98/97 254/100/97
f 15/77/97 458/98/97 158/98/97
f 259/160/98 146/98/98 458/98/98
f 254/100/98 146/98/98 44/100/98
f 5/17/99 459/162/99 261/145/99
f 148/142/100 263/163/100 459/162/100
f 459/162/101 70/164/101 234/165/101
f 261/145/102 234/165/102 62/146/102
f 150/28/19 257/37/19 7/27/19
f 150/28/19 260/144/19 460/166/19
f 460/166/20 57/148/20 241/98/20
f 460/166/20 53/167/20 257/37/20
f 145/1/103 255/168/103 2/4/103
f 8/3/104 461/169/104 145/1/104
f 256/35/105 248/170/105 461/169/105
f 461/169/106 65/171/106 255/168/106
f 54/97/107 462/172/107 215/173/107
f 216/103/107 217/174/107 462/172/107
f 217/174/108 218/175/108 462/172/108
f 462/172/108 56/176/108 215/173/108
f 218/175/109 219/177/109 56/176/109
f 51/178/109 463/179/109 218/175/109
f 220/180/110 221/181/110 463/179/110
f 463/179/110 55/182/110 219/177/110
f 221/181/111 222/183/111 55/182/111
f 52/184/111 464/185/111 221/181/111
f 223/186/112 224/38/112 464/185/112
f 464/185/112 53/167/112 222/183/112
f 226/56/113 225/187/113 69/59/113
f 61/58/114 465/188/114 226/56/114
f 465/188/115 63/189/115 228/190/115
f 225/187/116 228/190/116 71/191/116
f 71/191/117 466/192/117 229/193/117
f 228/190/118 230/194/118 466/192/118
f 466/192/119 64/195/119 231/196/119
f 229/193/120 231/196/120 72/197/120
f 72/197/121 467/198/121 232/199/121
f 231/196/122 233/200/122 467/198/122
f 467/198/123 62/146/123 234/165/123
f 232/199/124 234/165/124 70/164/124
f 236/98/107 235/201/107 58/74/107
f 236/98/107 215/173/107 468/98/107
f 215/173/108 237/98/108 468/98/108
f 235/201/108 237/98/108 60/202/108
f 60/202/109 469/203/109 238/204/109
f 56/176/109 469/203/109 237/98/109
f 219/177/110 239/98/110 469/203/110
f 238/204/110 239/98/110 59/205/110
f 59/205/111 470/203/111 240/206/111
f 55/182/111 470/203/111 239/98/111
f 222/183/112 241/98/112 470/203/112
f 240/206/112 241/98/112 57/148/112
f 49/101/125 471/207/125 217/174/125
f 242/67/126 243/208/126 471/207/126
f 243/208/127 244/209/127 471/207/127
f 471/207/128 51/178/128 217/174/128
f 244/209/129 220/180/129 51/178/129
f 68/210/130 472/211/130 244/209/130
f 245/212/131 246/213/131 472/211/131
f 472/211/132 52/184/132 220/180/132
f 246/213/133 223/186/133 52/184/133
f 67/214/134 473/215/134 246/213/134
f 247/216/135 248/170/135 473/215/135
f 473/215/136 50/39/136 223/186/136
f 249/72/107 227/217/107 61/58/107
f 58/74/107 474/218/107 249/72/107
f 474/218/108 60/202/108 250/219/108
f 227/217/108 250/219/108 63/189/108
f 63/189/109 475/220/109 230/194/109
f 250/219/109 238/204/109 475/220/109
f 475/220/110 59/205/110 251/221/110
f 230/194/110 251/221/110 64/195/110
f 64/195/111 476/222/111 233/200/111
f 251/221/111 240/206/111 476/222/111
f 476/222/112 57/148/112 252/147/112
f 233/200/112 252/147/112 62/146/112
f 18/69/97 477/104/97 181/156/97
f 213/104/97 254/100/97 477/104/97
f 477/104/98 44/100/98 161/104/98
f 181/156/98 161/104/98 43/157/98
f 326/223/137 265/224/137 80/69/137
f 111/225/138 478/226/138 326/223/138
f 319/227/139 327/228/139 478/226/139
f 478/226/140 74/229/140 265/224/140
f 112/230/141 479/231/141 314/232/141
f 324/233/142 272/234/142 479/231/142
f 479/231/143 76/235/143 325/236/143
f 314/232/144 325/236/144 95/237/144
f 77/238/145 480/239/145 269/240/145
f 321/241/146 305/242/146 480/239/146
f 480/239/147 104/243/147 329/244/147
f 269/240/148 329/244/148 78/245/148
f 78/245/148 481/246/148 270/98/148
f 329/244/149 298/247/149 481/246/149
f 298/247/149 331/248/149 481/246/149
f 481/246/148 79/249/148 270/98/148
f 331/248/148 271/104/148 79/249/148
f 108/250/150 482/251/150 331/248/150
f 291/252/151 326/223/151 482/251/151
f 482/251/152 80/69/152 271/104/152
f 376/253/153 271/104/153 80/69/153
f 122/254/154 483/255/154 376/253/154
f 344/38/155 377/256/155 483/255/155
f 483/255/156 79/249/156 271/104/156
f 328/257/157 292/258/157 103/259/157
f 83/260/158 484/261/158 328/257/158
f 484/261/159 82/262/159 330/263/159
f 292/258/160 330/263/160 107/264/160
f 322/265/161 306/266/161 92/267/161
f 75/268/162 485/269/162 322/265/162
f 267/270/163 323/271/163 485/269/163
f 485/269/164 99/272/164 306/266/164
f 275/273/165 346/56/165 133/274/165
f 86/63/166 486/275/166 275/273/166
f 334/62/167 273/61/167 486/275/167
f 486/275/168 141/276/168 346/56/168
f 138/277/169 487/278/169 362/67/169
f 378/66/170 279/70/170 487/278/170
f 487/278/171 90/69/171 373/279/171
f 362/67/172 373/279/172 121/101/172
f 283/73/173 369/72/173 130/280/173
f 87/77/174 488/281/174 283/73/174
f 332/76/174 275/273/174 488/281/174
f 488/281/173 133/274/173 369/72/173
f 289/282/175 288/283/175 113/284/175
f 111/225/176 489/285/176 289/282/176
f 291/252/177 290/286/177 489/285/177
f 288/283/178 290/286/178 110/287/178
f 107/264/179 490/288/179 292/258/179
f 284/289/180 294/290/180 490/288/180
f 294/290/181 293/291/181 490/288/181
f 490/288/182 103/259/182 292/258/182
f 109/292/183 491/293/183 294/290/183
f 287/294/184 296/295/184 491/293/184
f 296/295/185 295/296/185 491/293/185
f 491/293/186 105/297/186 294/290/186
f 290/286/187 296/295/187 110/287/187
f 108/250/188 492/298/188 290/286/188
f 492/298/189 104/243/189 297/299/189
f 296/295/190 297/299/190 106/300/190
f 126/97/173 493/98/173 356/98/173
f 299/301/174 278/98/174 493/98/174
f 278/98/174 283/73/174 493/98/174
f 493/98/173 130/280/173 356/98/173
f 121/101/173 494/302/173 336/303/173
f 373/279/174 333/304/174 494/302/174
f 494/302/174 89/305/174 299/301/174
f 336/303/173 299/301/173 126/97/173
f 297/299/191 303/306/191 106/300/191
f 297/299/192 305/242/192 495/307/192
f 495/307/193 100/308/193 304/309/193
f 303/306/194 304/309/194 102/310/194
f 300/311/195 306/266/195 99/272/195
f 101/312/196 496/313/196 300/311/196
f 308/314/197 307/315/197 496/313/197
f 496/313/198 92/267/198 306/266/198
f 302/316/199 308/314/199 101/312/199
f 302/316/200 310/317/200 497/318/200
f 497/318/201 93/319/201 309/320/201
f 497/318/202 94/321/202 308/314/202
f 102/310/203 498/322/203 310/317/203
f 304/309/204 312/323/204 498/322/204
f 498/322/205 91/324/205 311/325/205
f 310/317/206 311/325/206 93/319/206
f 95/237/207 499/326/207 314/232/207
f 313/327/208 315/328/208 499/326/208
f 499/326/209 114/329/209 282/330/209
f 314/232/210 282/330/210 112/230/210
f 97/331/211 500/332/211 315/328/211
f 98/333/212 500/332/212 316/334/212
f 317/335/213 286/336/213 500/332/213
f 315/328/214 286/336/214 114/329/214
f 318/337/215 317/335/215 98/333/215
f 96/338/216 501/339/216 318/337/216
f 319/227/217 289/282/217 501/339/217
f 501/339/218 113/284/218 317/335/218
f 73/340/219 502/341/219 268/342/219
f 320/343/220 312/323/220 502/341/220
f 502/341/221 100/308/221 321/241/221
f 268/342/222 321/241/222 77/238/222
f 78/245/156 503/344/156 269/240/156
f 380/345/155 372/147/155 503/344/155
f 503/344/223 134/146/223 381/346/223
f 269/240/224 381/346/224 77/238/224
f 382/347/225 334/62/225 86/63/225
f 118/149/226 504/348/226 382/347/226
f 277/349/227 384/350/227 504/348/227
f 504/348/228 85/150/228 334/62/228
f 88/71/229 505/154/229 279/70/229
f 285/155/230 280/158/230 505/154/230
f 505/154/231 115/156/231 301/156/231
f 279/70/232 301/156/232 90/69/232
f 379/160/233 332/76/233 87/77/233
f 117/77/234 506/161/234 379/160/234
f 276/76/234 382/347/234 506/161/234
f 506/161/233 86/63/233 332/76/233
f 89/305/233 507/98/233 278/98/233
f 374/305/234 266/98/234 507/98/234
f 266/98/234 379/160/234 507/98/234
f 507/98/233 87/77/233 278/98/233
f 77/238/235 508/351/235 268/342/235
f 381/346/236 354/352/236 508/351/236
f 508/351/237 142/353/237 383/354/237
f 268/342/238 383/354/238 73/340/238
f 377/256/156 270/98/156 79/249/156
f 125/355/155 509/203/155 377/256/155
f 509/203/155 129/356/155 380/345/155
f 270/98/156 380/345/156 78/245/156
f 375/357/239 265/224/239 74/229/239
f 137/358/240 510/359/240 375/357/240
f 368/360/241 376/253/241 510/359/241
f 510/359/242 80/69/242 265/224/242
f 126/97/243 511/361/243 336/303/243
f 128/176/244 511/361/244 335/173/244
f 338/362/244 337/174/244 511/361/244
f 336/303/243 337/174/243 121/101/243
f 339/363/245 338/362/245 128/176/245
f 127/182/246 512/364/246 339/363/246
f 341/365/246 340/366/246 512/364/246
f 512/364/245 123/367/245 338/362/245
f 342/368/247 341/365/247 127/182/247
f 125/355/248 513/185/248 342/368/248
f 344/38/248 343/369/248 513/185/248
f 513/185/247 124/184/247 341/365/247
f 345/187/249 346/56/249 141/276/249
f 345/187/250 348/370/250 514/188/250
f 514/188/251 135/189/251 347/371/251
f 514/188/252 133/274/252 346/56/252
f 143/372/253 515/192/253 348/370/253
f 349/193/254 351/196/254 515/192/254
f 515/192/255 136/195/255 350/194/255
f 348/370/256 350/194/256 135/189/256
f 144/197/257 516/373/257 351/196/257
f 352/199/258 354/352/258 516/373/258
f 516/373/259 134/146/259 353/200/259
f 351/196/260 353/200/260 136/195/260
f 355/374/243 356/98/243 130/280/243
f 355/374/244 357/203/244 517/203/244
f 357/203/244 335/173/244 517/203/244
f 356/98/243 335/173/243 126/97/243
f 132/202/245 518/203/245 357/203/245
f 358/375/246 359/98/246 518/203/246
f 359/98/246 339/363/246 518/203/246
f 518/203/245 128/176/245 357/203/245
f 131/205/247 519/203/247 359/98/247
f 360/206/248 361/98/248 519/203/248
f 361/98/248 342/368/248 519/203/248
f 519/203/247 127/182/247 359/98/247
f 121/101/261 520/376/261 362/67/261
f 123/367/262 520/376/262 337/174/262
f 364/377/263 363/378/263 520/376/263
f 362/67/264 363/378/264 138/277/264
f 340/366/265 364/377/265 123/367/265
f 124/184/266 521/211/266 340/366/266
f 366/379/267 365/212/267 521/211/267
f 521/211/268 140/380/268 364/377/268
f 343/369/269 366/379/269 124/184/269
f 122/254/270 522/381/270 343/369/270
f 368/360/271 367/382/271 522/381/271
f 522/381/272 139/214/272 366/379/272
f 347/371/243 369/72/243 133/274/243
f 347/371/244 370/383/244 523/218/244
f 523/218/244 132/202/244 355/374/244
f 523/218/243 130/280/243 369/72/243
f 135/189/245 524/384/245 370/383/245
f 350/194/246 371/385/246 524/384/246
f 524/384/246 131/205/246 358/375/246
f 370/383/245 358/375/245 132/202/245
f 136/195/247 525/386/247 371/385/247
f 353/200/248 372/147/248 525/386/248
f 525/386/248 129/356/248 360/206/248
f 371/385/247 360/206/247 131/205/247
f 90/69/233 526/104/233 333/304/233
f 301/156/234 281/304/234 526/104/234
f 526/104/234 116/305/234 374/305/234
f 333/304/233 374/305/233 89/305/233
f 44/100/273 527/98/273 416/100/273
f 45/77/274 527/98/274 146/98/274
f 527/98/275 117/77/275 266/98/275
f 527/98/275 116/305/275 416/100/275
f 147/54/276 387/387/276 3/55/276
f 12/388/277 528/389/277 147/54/277
f 528/389/278 84/390/278 267/270/278
f 387/387/279 267/270/279 75/268/279
f 9/16/280 529/391/280 389/392/280
f 152/15/281 388/393/281 529/391/281
f 388/393/282 272/234/282 529/391/282
f 529/391/283 81/394/283 389/392/283
f 13/150/284 530/395/284 393/396/284
f 153/61/285 425/397/285 530/395/285
f 425/397/286 273/61/286 530/395/286
f 530/395/287 85/150/287 393/396/287
f 154/46/288 391/398/288 11/47/288
f 154/46/289 390/399/289 531/400/289
f 390/399/290 274/401/290 531/400/290
f 391/398/291 274/401/291 83/260/291
f 156/76/292 417/160/292 45/77/292
f 46/149/292 532/161/292 156/76/292
f 532/161/275 118/149/275 276/76/275
f 417/160/275 276/76/275 117/77/275
f 157/153/293 418/149/293 46/149/293
f 48/402/294 533/403/294 157/153/294
f 533/403/295 120/402/295 277/349/295
f 418/149/296 277/349/296 118/149/296
f 47/159/297 534/404/297 419/405/297
f 160/158/298 415/156/298 534/404/298
f 415/156/299 280/158/299 534/404/299
f 534/404/300 119/159/300 419/405/300
f 43/157/292 535/104/292 415/156/292
f 161/104/292 416/100/292 535/104/292
f 416/100/275 281/304/275 535/104/275
f 535/104/275 115/156/275 415/156/275
f 162/127/301 414/406/301 42/128/301
f 40/9/302 536/407/302 162/127/302
f 536/407/303 112/230/303 282/330/303
f 414/406/304 282/330/304 114/329/304
f 164/85/305 409/408/305 35/83/305
f 37/88/306 537/409/306 164/85/306
f 537/409/307 109/292/307 284/289/307
f 409/408/308 284/289/308 107/264/308
f 165/155/309 394/410/309 16/71/309
f 47/159/310 538/411/310 165/155/310
f 538/411/311 119/159/311 285/155/311
f 394/410/312 285/155/312 88/71/312
f 166/133/313 413/412/313 41/80/313
f 42/128/314 539/413/314 166/133/314
f 539/413/315 114/329/315 286/336/315
f 413/412/316 286/336/316 113/284/316
f 167/90/317 410/414/317 37/88/317
f 167/90/318 411/415/318 540/416/318
f 411/415/319 287/294/319 540/416/319
f 410/414/320 287/294/320 109/292/320
f 168/78/321 411/415/321 38/94/321
f 41/80/322 541/417/322 168/78/322
f 541/417/323 113/284/323 288/283/323
f 411/415/324 288/283/324 110/287/324
f 33/91/325 542/418/325 407/419/325
f 173/86/326 406/420/326 542/418/326
f 406/420/327 293/291/327 542/418/327
f 542/418/328 105/297/328 407/419/328
f 175/92/329 408/421/329 34/106/329
f 175/92/330 407/419/330 543/422/330
f 407/419/331 295/296/331 543/422/331
f 408/421/332 295/296/332 106/300/332
f 27/51/333 544/423/333 403/424/333
f 180/109/334 404/425/334 544/423/334
f 404/425/335 300/311/335 544/423/335
f 544/423/336 99/272/336 403/424/336
f 29/113/337 545/426/337 404/425/337
f 182/114/338 405/427/338 545/426/338
f 405/427/339 302/316/339 545/426/339
f 545/426/340 101/312/340 404/425/340
f 30/119/341 546/428/341 405/427/341
f 183/105/342 408/421/342 546/428/342
f 408/421/343 303/306/343 546/428/343
f 546/428/344 102/310/344 405/427/344
f 22/115/345 547/429/345 398/430/345
f 187/111/346 396/431/346 547/429/346
f 396/431/347 307/315/347 547/429/347
f 547/429/348 94/321/348 398/430/348
f 189/432/349 397/433/349 21/117/349
f 189/432/350 398/430/350 548/434/350
f 398/430/351 309/320/351 548/434/351
f 397/433/352 309/320/352 93/319/352
f 191/121/353 395/435/353 19/122/353
f 21/117/354 549/436/354 191/121/354
f 549/436/355 93/319/355 311/325/355
f 395/435/356 311/325/356 91/324/356
f 193/126/357 399/437/357 23/124/357
f 25/130/358 550/438/358 193/126/358
f 550/438/359 97/331/359 313/327/359
f 399/437/360 313/327/360 95/237/360
f 196/132/361 401/439/361 25/130/361
f 196/132/362 402/440/362 551/441/362
f 402/440/363 316/334/363 551/441/363
f 401/439/364 316/334/364 97/331/364
f 26/135/365 552/442/365 402/440/365
f 198/136/366 400/443/366 552/442/366
f 400/443/367 318/337/367 552/442/367
f 552/442/368 98/333/368 402/440/368
f 200/141/369 385/444/369 1/139/369
f 19/122/370 553/445/370 200/141/370
f 553/445/371 91/324/371 320/343/371
f 385/444/372 320/343/372 73/340/372
f 20/50/373 554/446/373 396/431/373
f 3/55/374 554/446/374 202/49/374
f 554/446/375 75/268/375 322/265/375
f 554/446/376 92/267/376 396/431/376
f 12/388/377 555/447/377 392/448/377
f 203/53/378 403/424/378 555/447/378
f 403/424/379 323/271/379 555/447/379
f 555/447/380 84/390/380 392/448/380
f 204/11/381 412/449/381 40/9/381
f 9/16/382 556/450/382 204/11/382
f 556/450/383 81/394/383 324/233/383
f 412/449/384 324/233/384 112/230/384
f 4/14/385 557/451/385 388/393/385
f 23/124/386 557/451/386 205/13/386
f 557/451/387 95/237/387 325/236/387
f 557/451/388 76/235/388 388/393/388
f 24/138/389 558/452/389 400/443/389
f 207/6/390 386/453/390 558/452/390
f 386/453/391 327/228/391 558/452/391
f 558/452/392 96/338/392 400/443/392
f 31/42/393 559/454/393 406/420/393
f 11/47/394 559/454/394 208/41/394
f 559/454/395 83/260/395 328/257/395
f 559/454/396 103/259/396 406/420/396
f 10/45/397 560/455/397 390/399/397
f 35/83/398 560/455/398 210/43/398
f 560/455/399 107/264/399 330/263/399
f 560/455/400 82/262/400 390/399/400
f 69/59/401 561/456/401 425/397/401
f 225/187/402 427/457/402 561/456/402
f 561/456/403 143/372/403 345/187/403
f 425/397/404 345/187/404 141/276/404
f 229/193/405 427/457/405 71/458/405
f 72/197/406 562/459/406 229/193/406
f 562/459/407 144/197/407 349/193/407
f 427/457/408 349/193/408 143/372/408
f 232/199/409 428/460/409 72/197/409
f 70/164/410 563/461/410 232/199/410
f 563/461/411 142/353/411 352/199/411
f 428/460/412 352/199/412 144/197/412
f 243/208/413 424/462/413 68/210/413
f 66/64/414 564/463/414 243/208/414
f 422/464/415 363/378/415 564/463/415
f 564/463/416 140/380/416 424/462/416
f 67/214/417 565/465/417 423/466/417
f 245/212/418 424/462/418 565/465/418
f 424/462/419 365/212/419 565/465/419
f 565/465/420 139/214/420 423/466/420
f 65/171/421 566/467/421 421/468/421
f 247/216/422 423/466/422 566/467/422
f 423/466/423 367/382/423 566/467/423
f 566/467/424 137/358/424 421/468/424
f 2/4/425 567/469/425 386/453/425
f 255/168/426 421/468/426 567/469/426
f 421/468/427 375/357/427 567/469/427
f 567/469/428 74/229/428 386/453/428
f 258/66/429 422/464/429 66/64/429
f 16/71/430 568/470/430 258/66/430
f 568/470/431 88/71/431 378/66/431
f 422/464/432 378/66/432 138/277/432
f 263/163/433 426/471/433 70/164/433
f 1/139/434 569/472/434 263/163/434
f 569/472/435 73/340/435 383/354/435
f 426/471/436 383/354/436 142/353/436
f 48/402/437 570/473/437 420/474/437
f 264/152/438 393/396/438 570/473/438
f 393/396/439 384/350/439 570/473/439
f 570/473/440 120/402/440 420/474/440
f 145/1/441 429/5/441 206/2/441
f 2/4/442 207/6/442 429/5/442
f 207/6/443 24/138/443 199/7/443
f 429/5/444 199/7/444 39/8/444
f 40/9/445 194/12/445 430/10/445
f 194/12/446 23/124/446 205/13/446
f 430/10/447 205/13/447 4/14/447
f 204/11/448 430/10/448 152/15/448
f 5/17/449 149/20/449 431/18/449
f 149/20/13 6/25/13 209/21/13
f 431/18/11 209/21/11 32/22/11
f 201/19/450 431/18/450 185/23/450
f 6/25/13 150/28/13 432/26/13
f 7/27/13 211/29/13 432/26/13
f 211/29/14 36/34/14 178/30/14
f 209/21/14 432/26/14 178/30/14
f 151/31/451 433/32/451 211/29/451
f 8/3/452 206/2/452 433/32/452
f 206/2/453 39/8/453 171/33/453
f 433/32/17 171/33/17 36/34/17
f 151/31/454 434/36/454 256/35/454
f 7/27/19 257/37/19 434/36/19
f 257/37/20 53/167/20 224/38/20
f 434/36/20 224/38/20 50/39/20
f 172/40/455 435/44/455 208/41/455
f 172/40/456 35/83/456 210/43/456
f 435/44/457 210/43/457 10/45/457
f 435/44/458 154/46/458 11/47/458
f 186/48/459 436/52/459 202/49/459
f 27/51/460 203/53/460 436/52/460
f 203/53/461 12/388/461 147/54/461
f 436/52/462 147/54/462 3/55/462
f 226/56/463 437/60/463 155/57/463
f 69/59/464 153/61/464 437/60/464
f 153/61/465 13/150/465 214/62/465
f 437/60/466 214/62/466 14/63/466
f 66/64/467 242/67/467 438/65/467
f 242/67/468 49/101/468 253/68/468
f 438/65/469 253/68/469 18/69/469
f 258/66/470 438/65/470 159/70/470
f 249/72/38 439/75/38 163/73/38
f 61/58/38 155/57/38 439/75/38
f 155/57/39 14/63/39 212/76/39
f 439/75/39 212/76/39 15/77/39
f 168/78/471 440/82/471 169/79/471
f 168/78/472 38/94/472 170/81/472
f 170/81/473 36/34/473 171/33/473
f 440/82/474 171/33/474 39/8/474
f 35/83/475 172/40/475 441/84/475
f 31/42/476 173/86/476 441/84/476
f 173/86/477 33/91/477 174/87/477
f 164/85/478 441/84/478 174/87/478
f 37/88/479 174/87/479 442/89/479
f 33/91/480 175/92/480 442/89/480
f 175/92/481 34/106/481 176/93/481
f 167/90/482 442/89/482 176/93/482
f 176/93/483 443/96/483 170/81/483
f 176/93/484 34/106/484 177/95/484
f 443/96/485 177/95/485 32/22/485
f 443/96/54 178/30/54 36/34/54
f 54/97/38 236/98/38 444/98/38
f 58/74/38 163/73/38 444/98/38
f 163/73/39 15/77/39 158/98/39
f 179/99/39 444/98/39 158/98/39
f 49/101/38 216/103/38 445/102/38
f 216/103/38 54/97/38 179/99/38
f 445/102/39 179/99/39 17/100/39
f 253/68/39 445/102/39 213/104/39
f 183/105/486 446/108/486 177/95/486
f 183/105/487 30/119/487 184/107/487
f 446/108/488 184/107/488 28/24/488
f 177/95/489 446/108/489 185/23/489
f 186/48/490 447/110/490 180/109/490
f 20/50/491 187/111/491 447/110/491
f 187/111/492 22/115/492 188/112/492
f 447/110/493 188/112/493 29/113/493
f 188/112/494 448/116/494 182/114/494
f 22/115/495 189/432/495 448/116/495
f 448/116/496 189/432/496 21/117/496
f 182/114/497 448/116/497 190/118/497
f 30/119/498 190/118/498 449/120/498
f 190/118/499 21/117/499 191/121/499
f 449/120/500 191/121/500 19/122/500
f 184/107/501 449/120/501 192/123/501
f 23/124/502 194/12/502 450/125/502
f 194/12/503 40/9/503 162/127/503
f 450/125/504 162/127/504 42/128/504
f 193/126/505 450/125/505 195/129/505
f 25/130/506 195/129/506 451/131/506
f 195/129/507 42/128/507 166/133/507
f 166/133/508 41/80/508 197/134/508
f 451/131/509 197/134/509 26/135/509
f 197/134/510 452/137/510 198/136/510
f 41/80/511 169/79/511 452/137/511
f 169/79/512 39/8/512 199/7/512
f 452/137/513 199/7/513 24/138/513
f 1/139/514 148/142/514 453/140/514
f 148/142/515 5/17/515 201/19/515
f 453/140/516 201/19/516 28/24/516
f 200/141/517 453/140/517 192/123/517
f 6/25/19 149/20/19 454/143/19
f 149/20/518 5/17/518 261/145/518
f 454/143/519 261/145/519 62/146/519
f 260/144/20 454/143/20 252/147/20
f 214/62/520 455/151/520 262/149/520
f 13/150/521 264/152/521 455/151/521
f 264/152/522 48/402/522 157/153/522
f 455/151/523 157/153/523 46/149/523
f 16/71/524 159/70/524 456/154/524
f 159/70/525 18/69/525 181/156/525
f 456/154/526 181/156/526 43/157/526
f 165/155/527 456/154/527 160/158/527
f 212/76/97 457/161/97 259/160/97
f 14/63/97 262/149/97 457/161/97
f 262/149/98 46/149/98 156/76/98
f 457/161/98 156/76/98 45/77/98
f 17/100/97 158/98/97 458/98/97
f 15/77/97 259/160/97 458/98/97
f 259/160/98 45/77/98 146/98/98
f 254/100/98 458/98/98 146/98/98
f 5/17/528 148/142/528 459/162/528
f 148/142/529 1/139/529 263/163/529
f 459/162/530 263/163/530 70/164/530
f 261/145/531 459/162/531 234/165/531
f 150/28/19 460/166/19 257/37/19
f 150/28/19 6/25/19 260/144/19
f 460/166/20 260/144/20 57/148/20
f 460/166/20 241/98/20 53/167/20
f 145/1/532 461/169/532 255/168/532
f 8/3/533 256/35/533 461/169/533
f 256/35/534 50/39/534 248/170/534
f 461/169/535 248/170/535 65/171/535
f 54/97/107 216/103/107 462/172/107
f 216/103/107 49/101/107 217/174/107
f 217/174/108 51/178/108 218/175/108
f 462/172/108 218/175/108 56/176/108
f 218/175/109 463/179/109 219/177/109
f 51/178/109 220/180/109 463/179/109
f 220/180/110 52/184/110 221/181/110
f 463/179/110 221/181/110 55/182/110
f 221/181/111 464/185/111 222/183/111
f 52/184/111 223/186/111 464/185/111
f 223/186/112 50/39/112 224/38/112
f 464/185/112 224/38/112 53/167/112
f 226/56/536 465/188/536 225/187/536
f 61/58/537 227/217/537 465/188/537
f 465/188/538 227/217/538 63/189/538
f 225/187/539 465/188/539 228/190/539
f 71/191/540 228/190/540 466/192/540
f 228/190/541 63/189/541 230/194/541
f 466/192/542 230/194/542 64/195/542
f 229/193/543 466/192/543 231/196/543
f 72/197/544 231/196/544 467/198/544
f 231/196/545 64/195/545 233/200/545
f 467/198/546 233/200/546 62/146/546
f 232/199/547 467/198/547 234/165/547
f 236/98/107 468/98/107 235/201/107
f 236/98/107 54/97/107 215/173/107
f 215/173/108 56/176/108 237/98/108
f 235/201/108 468/98/108 237/98/108
f 60/202/109 237/98/109 469/203/109
f 56/176/109 219/177/109 469/203/109
f 219/177/110 55/182/110 239/98/110
f 238/204/110 469/203/110 239/98/110
f 59/205/111 239/98/111 470/203/111
f 55/182/111 222/183/111 470/203/111
f 222/183/112 53/167/112 241/98/112
f 240/206/112 470/203/112 241/98/112
f 49/101/548 242/67/548 471/207/548
f 242/67/549 66/64/549 243/208/549
f 243/208/550 68/210/550 244/209/550
f 471/207/551 244/209/551 51/178/551
f 244/209/552 472/211/552 220/180/552
f 68/210/553 245/212/553 472/211/553
f 245/212/554 67/214/554 246/213/554
f 472/211/555 246/213/555 52/184/555
f 246/213/556 473/215/556 223/186/556
f 67/214/557 247/216/557 473/215/557
f 247/216/558 65/171/558 248/170/558
f 473/215/559 248/170/559 50/39/559
f 249/72/107 474/218/107 227/217/107
f 58/74/107 235/201/107 474/218/107
f 474/218/108 235/201/108 60/202/108
f 227/217/108 474/218/108 250/219/108
f 63/189/109 250/219/109 475/220/109
f 250/219/109 60/202/109 238/204/109
f 475/220/110 238/204/110 59/205/110
f 230/194/110 475/220/110 251/221/110
f 64/195/111 251/221/111 476/222/111
f 251/221/111 59/205/111 240/206/111
f 476/222/112 240/206/112 57/148/112
f 233/200/112 476/222/112 252/147/112
f 18/69/97 213/104/97 477/104/97
f 213/104/97 17/100/97 254/100/97
f 477/104/98 254/100/98 44/100/98
f 181/156/98 477/104/98 161/104/98
f 326/223/560 478/226/560 265/224/560
f 111/225/561 319/227/561 478/226/561
f 319/227/562 96/338/562 327/228/562
f 478/226/563 327/228/563 74/229/563
f 112/230/564 324/233/564 479/231/564
f 324/233/565 81/394/565 272/234/565
f 479/231/566 272/234/566 76/235/566
f 314/232/567 479/231/567 325/236/567
f 77/238/568 321/241/568 480/239/568
f 321/241/569 100/308/569 305/242/569
f 480/239/149 305/242/149 104/243/149
f 269/240/148 480/239/148 329/244/148
f 78/245/148 329/244/148 481/246/148
f 329/244/149 104/243/149 298/247/149
f 298/247/149 108/250/149 331/248/149
f 481/246/148 331/248/148 79/249/148
f 331/248/148 482/251/148 271/104/148
f 108/250/149 291/252/149 482/251/149
f 291/252/570 111/225/570 326/223/570
f 482/251/571 326/223/571 80/69/571
f 376/253/156 483/255/156 271/104/156
f 122/254/155 344/38/155 483/255/155
f 344/38/155 125/355/155 377/256/155
f 483/255/156 377/256/156 79/249/156
f 328/257/572 484/261/572 292/258/572
f 83/260/573 274/401/573 484/261/573
f 484/261/574 274/401/574 82/262/574
f 292/258/575 484/261/575 330/263/575
f 322/265/576 485/269/576 306/266/576
f 75/268/577 267/270/577 485/269/577
f 267/270/578 84/390/578 323/271/578
f 485/269/579 323/271/579 99/272/579
f 275/273/580 486/275/580 346/56/580
f 86/63/581 334/62/581 486/275/581
f 334/62/582 85/150/582 273/61/582
f 486/275/583 273/61/583 141/276/583
f 138/277/584 378/66/584 487/278/584
f 378/66/585 88/71/585 279/70/585
f 487/278/586 279/70/586 90/69/586
f 362/67/587 487/278/587 373/279/587
f 283/73/173 488/281/173 369/72/173
f 87/77/174 332/76/174 488/281/174
f 332/76/174 86/63/174 275/273/174
f 488/281/173 275/273/173 133/274/173
f 289/282/588 489/285/588 288/283/588
f 111/225/589 291/252/589 489/285/589
f 291/252/590 108/250/590 290/286/590
f 288/283/591 489/285/591 290/286/591
f 107/264/592 284/289/592 490/288/592
f 284/289/593 109/292/593 294/290/593
f 294/290/594 105/297/594 293/291/594
f 490/288/595 293/291/595 103/259/595
f 109/292/596 287/294/596 491/293/596
f 287/294/597 110/287/597 296/295/597
f 296/295/598 106/300/598 295/296/598
f 491/293/599 295/296/599 105/297/599
f 290/286/600 492/298/600 296/295/600
f 108/250/601 298/247/601 492/298/601
f 492/298/601 298/247/601 104/243/601
f 296/295/602 492/298/602 297/299/602
f 126/97/173 299/301/173 493/98/173
f 299/301/174 89/305/174 278/98/174
f 278/98/174 87/77/174 283/73/174
f 493/98/173 283/73/173 130/280/173
f 121/101/173 373/279/173 494/302/173
f 373/279/174 90/69/174 333/304/174
f 494/302/174 333/304/174 89/305/174
f 336/303/173 494/302/173 299/301/173
f 297/299/603 495/307/603 303/306/603
f 297/299/604 104/243/604 305/242/604
f 495/307/605 305/242/605 100/308/605
f 303/306/606 495/307/606 304/309/606
f 300/311/607 496/313/607 306/266/607
f 101/312/608 308/314/608 496/313/608
f 308/314/609 94/321/609 307/315/609
f 496/313/610 307/315/610 92/267/610
f 302/316/611 497/318/611 308/314/611
f 302/316/612 102/310/612 310/317/612
f 497/318/613 310/317/613 93/319/613
f 497/318/614 309/320/614 94/321/614
f 102/310/615 304/309/615 498/322/615
f 304/309/616 100/308/616 312/323/616
f 498/322/617 312/323/617 91/324/617
f 310/317/618 498/322/618 311/325/618
f 95/237/619 313/327/619 499/326/619
f 313/327/620 97/331/620 315/328/620
f 499/326/621 315/328/621 114/329/621
f 314/232/622 499/326/622 282/330/622
f 97/331/623 316/334/623 500/332/623
f 98/333/624 317/335/624 500/332/624
f 317/335/625 113/284/625 286/336/625
f 315/328/626 500/332/626 286/336/626
f 318/337/627 501/339/627 317/335/627
f 96/338/628 319/227/628 501/339/628
f 319/227/629 111/225/629 289/282/629
f 501/339/630 289/282/630 113/284/630
f 73/340/631 320/343/631 502/341/631
f 320/343/632 91/324/632 312/323/632
f 502/341/633 312/323/633 100/308/633
f 268/342/634 502/341/634 321/241/634
f 78/245/156 380/345/156 503/344/156
f 380/345/155 129/356/155 372/147/155
f 503/344/155 372/147/155 134/146/155
f 269/240/156 503/344/156 381/346/156
f 382/347/635 504/348/635 334/62/635
f 118/149/636 277/349/636 504/348/636
f 277/349/637 120/402/637 384/350/637
f 504/348/638 384/350/638 85/150/638
f 88/71/639 285/155/639 505/154/639
f 285/155/640 119/159/640 280/158/640
f 505/154/641 280/158/641 115/156/641
f 279/70/642 505/154/642 301/156/642
f 379/160/233 506/161/233 332/76/233
f 117/77/234 276/76/234 506/161/234
f 276/76/234 118/149/234 382/347/234
f 506/161/233 382/347/233 86/63/233
f 89/305/233 374/305/233 507/98/233
f 374/305/234 116/305/234 266/98/234
f 266/98/234 117/77/234 379/160/234
f 507/98/233 379/160/233 87/77/233
f 77/238/643 381/346/643 508/351/643
f 381/346/644 134/146/644 354/352/644
f 508/351/645 354/352/645 142/353/645
f 268/342/646 508/351/646 383/354/646
f 377/256/156 509/203/156 270/98/156
f 125/355/155 361/98/155 509/203/155
f 509/203/155 361/98/155 129/356/155
f 270/98/156 509/203/156 380/345/156
f 375/357/647 510/359/647 265/224/647
f 137/358/648 368/360/648 510/359/648
f 368/360/649 122/254/649 376/253/649
f 510/359/650 376/253/650 80/69/650
f 126/97/243 335/173/243 511/361/243
f 128/176/244 338/362/244 511/361/244
f 338/362/651 123/367/651 337/174/651
f 336/303/243 511/361/243 337/174/243
f 339/363/245 512/364/245 338/362/245
f 127/182/246 341/365/246 512/364/246
f 341/365/652 124/184/652 340/366/652
f 512/364/653 340/366/653 123/367/653
f 342/368/247 513/185/247 341/365/247
f 125/355/248 344/38/248 513/185/248
f 344/38/248 122/254/248 343/369/248
f 513/185/247 343/369/247 124/184/247
f 345/187/654 514/188/654 346/56/654
f 345/187/655 143/372/655 348/370/655
f 514/188/656 348/370/656 135/189/656
f 514/188/657 347/371/657 133/274/657
f 143/372/658 349/193/658 515/192/658
f 349/193/659 144/197/659 351/196/659
f 515/192/660 351/196/660 136/195/660
f 348/370/661 515/192/661 350/194/661
f 144/197/662 352/199/662 516/373/662
f 352/199/663 142/353/663 354/352/663
f 516/373/664 354/352/664 134/146/664
f 351/196/665 516/373/665 353/200/665
f 355/374/243 517/203/243 356/98/243
f 355/374/244 132/202/244 357/203/244
f 357/203/244 128/176/244 335/173/244
f 356/98/243 517/203/243 335/173/243
f 132/202/245 358/375/245 518/203/245
f 358/375/246 131/205/246 359/98/246
f 359/98/246 127/182/246 339/363/246
f 518/203/245 339/363/245 128/176/245
f 131/205/247 360/206/247 519/203/247
f 360/206/248 129/356/248 361/98/248
f 361/98/248 125/355/248 342/368/248
f 519/203/247 342/368/247 127/182/247
f 121/101/666 337/174/666 520/376/666
f 123/367/667 364/377/667 520/376/667
f 364/377/668 140/380/668 363/378/668
f 362/67/669 520/376/669 363/378/669
f 340/366/670 521/211/670 364/377/670
f 124/184/671 366/379/671 521/211/671
f 366/379/672 139/214/672 365/212/672
f 521/211/673 365/212/673 140/380/673
f 343/369/674 522/381/674 366/379/674
f 122/254/675 368/360/675 522/381/675
f 368/360/676 137/358/676 367/382/676
f 522/381/677 367/382/677 139/214/677
f 347/371/243 523/218/243 369/72/243
f 347/371/678 135/189/678 370/383/678
f 523/218/244 370/383/244 132/202/244
f 523/218/243 355/374/243 130/280/243
f 135/189/679 350/194/679 524/384/679
f 350/194/680 136/195/680 371/385/680
f 524/384/246 371/385/246 131/205/246
f 370/383/245 524/384/245 358/375/245
f 136/195/247 353/200/247 525/386/247
f 353/200/248 134/146/248 372/147/248
f 525/386/248 372/147/248 129/356/248
f 371/385/247 525/386/247 360/206/247
f 90/69/233 301/156/233 526/104/233
f 301/156/234 115/156/234 281/304/234
f 526/104/234 281/304/234 116/305/234
f 333/304/233 526/104/233 374/305/233
f 44/100/292 146/98/292 527/98/292
f 45/77/273 417/160/273 527/98/273
f 527/98/275 417/160/275 117/77/275
f 527/98/275 266/98/275 116/305/275
f 147/54/681 528/389/681 387/387/681
f 12/388/682 392/448/682 528/389/682
f 528/389/683 392/448/683 84/390/683
f 387/387/684 528/389/684 267/270/684
f 9/16/685 152/15/685 529/391/685
f 152/15/686 4/14/686 388/393/686
f 388/393/687 76/235/687 272/234/687
f 529/391/688 272/234/688 81/394/688
f 13/150/689 153/61/689 530/395/689
f 153/61/690 69/59/690 425/397/690
f 425/397/691 141/276/691 273/61/691
f 530/395/692 273/61/692 85/150/692
f 154/46/693 531/400/693 391/398/693
f 154/46/694 10/45/694 390/399/694
f 390/399/695 82/262/695 274/401/695
f 391/398/696 531/400/696 274/401/696
f 156/76/292 532/161/292 417/160/292
f 46/149/292 418/149/292 532/161/292
f 532/161/275 418/149/275 118/149/275
f 417/160/275 532/161/275 276/76/275
f 157/153/697 533/403/697 418/149/697
f 48/402/698 420/474/698 533/403/698
f 533/403/699 420/474/699 120/402/699
f 418/149/700 533/403/700 277/349/700
f 47/159/701 160/158/701 534/404/701
f 160/158/702 43/157/702 415/156/702
f 415/156/703 115/156/703 280/158/703
f 534/404/704 280/158/704 119/159/704
f 43/157/292 161/104/292 535/104/292
f 161/104/273 44/100/273 416/100/273
f 416/100/275 116/305/275 281/304/275
f 535/104/275 281/304/275 115/156/275
f 162/127/705 536/407/705 414/406/705
f 40/9/706 412/449/706 536/407/706
f 536/407/707 412/449/707 112/230/707
f 414/406/708 536/407/708 282/330/708
f 164/85/709 537/409/709 409/408/709
f 37/88/710 410/414/710 537/409/710
f 537/409/711 410/414/711 109/292/711
f 409/408/712 537/409/712 284/289/712
f 165/155/713 538/411/713 394/410/713
f 47/159/714 419/405/714 538/411/714
f 538/411/715 419/405/715 119/159/715
f 394/410/716 538/411/716 285/155/716
f 166/133/717 539/413/717 413/412/717
f 42/128/718 414/406/718 539/413/718
f 539/413/719 414/406/719 114/329/719
f 413/412/720 539/413/720 286/336/720
f 167/90/721 540/416/721 410/414/721
f 167/90/722 38/94/722 411/415/722
f 411/415/723 110/287/723 287/294/723
f 410/414/724 540/416/724 287/294/724
f 168/78/725 541/417/725 411/415/725
f 41/80/726 413/412/726 541/417/726
f 541/417/727 413/412/727 113/284/727
f 411/415/728 541/417/728 288/283/728
f 33/91/729 173/86/729 542/418/729
f 173/86/730 31/42/730 406/420/730
f 406/420/731 103/259/731 293/291/731
f 542/418/732 293/291/732 105/297/732
f 175/92/733 543/422/733 408/421/733
f 175/92/734 33/91/734 407/419/734
f 407/419/735 105/297/735 295/296/735
f 408/421/736 543/422/736 295/296/736
f 27/51/737 180/109/737 544/423/737
f 180/109/738 29/113/738 404/425/738
f 404/425/739 101/312/739 300/311/739
f 544/423/740 300/311/740 99/272/740
f 29/113/741 182/114/741 545/426/741
f 182/114/742 30/119/742 405/427/742
f 405/427/743 102/310/743 302/316/743
f 545/426/744 302/316/744 101/312/744
f 30/119/745 183/105/745 546/428/745
f 183/105/746 34/106/746 408/421/746
f 408/421/747 106/300/747 303/306/747
f 546/428/748 303/306/748 102/310/748
f 22/115/749 187/111/749 547/429/749
f 187/111/750 20/50/750 396/431/750
f 396/431/751 92/267/751 307/315/751
f 547/429/752 307/315/752 94/321/752
f 189/432/753 548/434/753 397/433/753
f 189/432/754 22/115/754 398/430/754
f 398/430/755 94/321/755 309/320/755
f 397/433/756 548/434/756 309/320/756
f 191/121/757 549/436/757 395/435/757
f 21/117/758 397/433/758 549/436/758
f 549/436/759 397/433/759 93/319/759
f 395/435/760 549/436/760 311/325/760
f 193/126/761 550/438/761 399/437/761
f 25/130/762 401/439/762 550/438/762
f 550/438/763 401/439/763 97/331/763
f 399/437/764 550/438/764 313/327/764
f 196/132/765 551/441/765 401/439/765
f 196/132/766 26/135/766 402/440/766
f 402/440/767 98/333/767 316/334/767
f 401/439/768 551/441/768 316/334/768
f 26/135/769 198/136/769 552/442/769
f 198/136/770 24/138/770 400/443/770
f 400/443/771 96/338/771 318/337/771
f 552/442/772 318/337/772 98/333/772
f 200/141/773 553/445/773 385/444/773
f 19/122/774 395/435/774 553/445/774
f 553/445/775 395/435/775 91/324/775
f 385/444/776 553/445/776 320/343/776
f 20/50/777 202/49/777 554/446/777
f 3/55/778 387/387/778 554/446/778
f 554/446/779 387/387/779 75/268/779
f 554/446/780 322/265/780 92/267/780
f 12/388/781 203/53/781 555/447/781
f 203/53/782 27/51/782 403/424/782
f 403/424/783 99/272/783 323/271/783
f 555/447/784 323/271/784 84/390/784
f 204/11/785 556/450/785 412/449/785
f 9/16/786 389/392/786 556/450/786
f 556/450/787 389/392/787 81/394/787
f 412/449/788 556/450/788 324/233/788
f 4/14/789 205/13/789 557/451/789
f 23/124/790 399/437/790 557/451/790
f 557/451/791 399/437/791 95/237/791
f 557/451/792 325/236/792 76/235/792
f 24/138/793 207/6/793 558/452/793
f 207/6/794 2/4/794 386/453/794
f 386/453/795 74/229/795 327/228/795
f 558/452/796 327/228/796 96/338/796
f 31/42/797 208/41/797 559/454/797
f 11/47/798 391/398/798 559/454/798
f 559/454/799 391/398/799 83/260/799
f 559/454/800 328/257/800 103/259/800
f 10/45/801 210/43/801 560/455/801
f 35/83/802 409/408/802 560/455/802
f 560/455/803 409/408/803 107/264/803
f 560/455/804 330/263/804 82/262/804
f 69/59/805 225/187/805 561/456/805
f 225/187/806 71/458/806 427/457/806
f 561/456/807 427/457/807 143/372/807
f 425/397/808 561/456/808 345/187/808
f 229/193/809 562/459/809 427/457/809
f 72/197/810 428/460/810 562/459/810
f 562/459/811 428/460/811 144/197/811
f 427/457/812 562/459/812 349/193/812
f 232/199/813 563/461/813 428/460/813
f 70/164/814 426/471/814 563/461/814
f 563/461/815 426/471/815 142/353/815
f 428/460/816 563/461/816 352/199/816
f 243/208/817 564/463/817 424/462/817
f 66/64/818 422/464/818 564/463/818
f 422/464/819 138/277/819 363/378/819
f 564/463/820 363/378/820 140/380/820
f 67/214/821 245/212/821 565/465/821
f 245/212/822 68/210/822 424/462/822
f 424/462/823 140/380/823 365/212/823
f 565/465/824 365/212/824 139/214/824
f 65/171/825 247/216/825 566/467/825
f 247/216/826 67/214/826 423/466/826
f 423/466/827 139/214/827 367/382/827
f 566/467/828 367/382/828 137/358/828
f 2/4/829 255/168/829 567/469/829
f 255/168/830 65/171/830 421/468/830
f 421/468/831 137/358/831 375/357/831
f 567/469/832 375/357/832 74/229/832
f 258/66/833 568/470/833 422/464/833
f 16/71/834 394/410/834 568/470/834
f 568/470/835 394/410/835 88/71/835
f 422/464/836 568/470/836 378/66/836
f 263/163/837 569/472/837 426/471/837
f 1/139/838 385/444/838 569/472/838
f 569/472/839 385/444/839 73/340/839
f 426/471/840 569/472/840 383/354/840
f 48/402/841 264/152/841 570/473/841
f 264/152/842 13/150/842 393/396/842
f 393/396/843 85/150/843 384/350/843
f 570/473/844 384/350/844 120/402/844
