# Blender 5.2.0 LTS
# www.blender.org
mtllib Rotate.mtl
o 平面
v -0.147053 0.019194 -0.647503
v -0.147053 0.019194 -0.647503
v -0.247111 0.000536 0.566650
v -0.147053 0.019194 -0.647503
v -0.148644 0.019194 -0.648366
v -0.373922 0.000536 0.566650
v -0.122111 0.000536 0.566650
v -0.147053 0.019194 -0.647503
v -0.715123 0.019194 -0.386885
v -0.055920 0.019194 -0.029183
v -0.385521 0.019194 -0.208034
v -0.496980 0.019194 -0.268515
v -0.275654 0.019194 -0.148417
v -0.055920 0.198284 -0.029183
v -0.147053 0.198284 -0.647503
v -0.148644 0.198284 -0.648366
v -0.147053 0.198284 -0.647503
v -0.373922 0.179626 0.566650
v -0.247111 0.179626 0.566650
v -0.147053 0.198284 -0.647503
v -0.147053 0.198284 -0.647503
v -0.385521 0.198284 -0.208034
v -0.496980 0.198284 -0.268515
v -0.122111 0.179626 0.566650
v -0.275654 0.198284 -0.148417
v -0.715123 0.198284 -0.386885
v -0.430782 0.019194 0.057012
v -0.549916 0.019194 0.026772
v -0.313348 0.019194 0.086821
v -0.430782 0.198284 0.057012
v -0.549916 0.198284 0.026772
v -0.313348 0.198284 0.086821
v -0.400857 0.009161 0.229716
v -0.523830 0.009161 0.214596
v -0.279640 0.009161 0.244621
v -0.400857 0.188250 0.229716
v -0.523830 0.188250 0.214596
v -0.279640 0.188250 0.244621
v -0.386042 0.004193 0.315218
v -0.510915 0.004193 0.307583
v -0.262952 0.004193 0.322743
v -0.386042 0.183283 0.315218
v -0.510915 0.183283 0.307583
v -0.262952 0.183283 0.322743
vn -0.0000 -1.0000 -0.0000
vn -0.0000 1.0000 -0.0000
vn 0.9874 -0.0000 0.1582
vn -0.4170 -0.0000 -0.9089
vn -0.4769 -0.0000 0.8789
vn 0.9893 -0.0000 -0.1458
vn -0.0000 -0.0000 1.0000
vn 0.4769 -0.0000 -0.8789
vn -0.8840 -0.0000 0.4675
vn -0.9843 -0.0000 -0.1765
vn 0.9779 -0.0000 -0.2089
vn -0.0140 0.9984 0.0553
vn -0.0154 0.9980 0.0607
vn 0.0073 -0.9982 -0.0593
vn 0.0080 -0.9978 -0.0652
vn 0.0039 -0.9979 -0.0643
vn 0.0036 -0.9983 -0.0586
vn -0.0073 0.9982 0.0593
vn -0.0067 0.9985 0.0543
vn -0.9905 -0.0000 0.1376
vn 0.8660 -0.0000 -0.5001
vn -0.0009 0.9999 0.0146
vn -0.0009 0.9999 0.0151
vn -0.0000 -0.9999 -0.0145
vn -0.0000 -0.9999 -0.0150
vn -0.0080 0.9978 0.0652
vn 0.0140 -0.9984 -0.0553
vn 0.0154 -0.9980 -0.0607
vn 0.0067 -0.9985 -0.0543
vn -0.0039 0.9979 0.0643
vn -0.0036 0.9983 0.0586
vn -0.0000 0.9999 0.0145
vn -0.0000 0.9999 0.0150
vn 0.0009 -0.9999 -0.0146
vn 0.0009 -0.9999 -0.0151
vt 0.750000 0.500000
vt 1.000000 1.000000
vt 1.000000 0.500000
vt 0.248189 1.000000
vt 0.500000 0.500000
vt 0.248189 0.500000
vt 0.000000 0.500000
vt 0.750000 1.000000
vt 0.500000 0.250000
vt 0.750000 0.250000
vt 0.248189 0.250000
vt 0.000000 1.000000
vt 0.500000 1.000000
vt 0.248189 0.250000
vt 0.750000 0.000000
vt 0.500000 0.000000
vt 0.248189 0.063116
vt 0.248189 0.000000
vt 0.248189 0.063116
vt 0.750000 0.125000
vt 0.750000 0.125000
vt 0.248189 0.125000
vt 0.500000 0.125000
vt 0.248189 0.125000
vt 0.500000 0.125000
vt 0.500000 0.063116
vt 0.750000 0.063116
vt 0.500000 0.063116
vt 0.750000 0.063116
s 0
f 13/1/1 2/2/1 10/3/1
f 5/4/1 11/5/1 12/6/1
f 9/7/1 5/4/1 12/6/1
f 11/5/1 8/8/1 13/1/1
f 27/9/1 13/1/1 29/10/1
f 28/11/1 11/5/1 27/9/1
f 25/1/2 15/2/2 20/8/2
f 22/5/2 16/4/2 23/6/2
f 26/7/1 16/4/1 17/12/1
f 22/5/2 20/8/2 21/13/2
f 30/9/2 25/1/2 22/5/2
f 31/14/2 22/5/2 23/6/2
f 13/1/3 32/10/3 29/10/3
f 8/8/2 21/13/2 20/8/2
f 9/7/4 17/12/4 1/12/4
f 10/3/5 25/1/5 13/1/5
f 2/2/6 14/3/6 10/3/6
f 7/15/7 19/16/7 3/16/7
f 1/12/5 16/4/5 5/4/5
f 2/2/2 20/8/2 15/2/2
f 12/6/5 26/7/5 9/7/5
f 5/4/8 21/13/8 4/13/8
f 40/17/9 18/18/9 43/19/9
f 3/16/7 18/18/7 6/18/7
f 28/11/10 23/6/10 12/6/10
f 29/10/11 38/20/11 35/21/11
f 37/22/12 30/9/12 31/14/12
f 36/23/13 32/10/13 30/9/13
f 34/24/14 27/9/14 33/25/14
f 33/25/15 29/10/15 35/21/15
f 39/26/16 35/21/16 41/27/16
f 40/17/17 33/25/17 39/26/17
f 42/28/18 38/20/18 36/23/18
f 43/19/19 36/23/19 37/22/19
f 35/21/11 44/29/11 41/27/11
f 28/11/20 37/22/20 31/14/20
f 41/27/21 24/15/21 7/15/21
f 18/18/22 42/28/22 43/19/22
f 19/16/23 44/29/23 42/28/23
f 6/18/24 39/26/24 3/16/24
f 3/16/25 41/27/25 7/15/25
f 34/24/20 43/19/20 37/22/20
f 13/1/2 8/8/2 2/2/2
f 5/4/1 4/13/1 11/5/1
f 9/7/2 1/12/2 5/4/2
f 11/5/2 4/13/2 8/8/2
f 27/9/1 11/5/1 13/1/1
f 28/11/1 12/6/1 11/5/1
f 25/1/2 14/3/2 15/2/2
f 22/5/2 21/13/2 16/4/2
f 26/7/2 23/6/2 16/4/2
f 22/5/2 25/1/2 20/8/2
f 30/9/2 32/10/2 25/1/2
f 31/14/2 30/9/2 22/5/2
f 13/1/3 25/1/3 32/10/3
f 8/8/2 4/13/2 21/13/2
f 9/7/4 26/7/4 17/12/4
f 10/3/5 14/3/5 25/1/5
f 2/2/6 15/2/6 14/3/6
f 7/15/7 24/15/7 19/16/7
f 1/12/5 17/12/5 16/4/5
f 2/2/2 8/8/2 20/8/2
f 12/6/5 23/6/5 26/7/5
f 5/4/8 16/4/8 21/13/8
f 40/17/9 6/18/9 18/18/9
f 3/16/7 19/16/7 18/18/7
f 28/11/10 31/14/10 23/6/10
f 29/10/11 32/10/11 38/20/11
f 37/22/18 36/23/18 30/9/18
f 36/23/26 38/20/26 32/10/26
f 34/24/27 28/11/27 27/9/27
f 33/25/28 27/9/28 29/10/28
f 39/26/14 33/25/14 35/21/14
f 40/17/29 34/24/29 33/25/29
f 42/28/30 44/29/30 38/20/30
f 43/19/31 42/28/31 36/23/31
f 35/21/11 38/20/11 44/29/11
f 28/11/20 34/24/20 37/22/20
f 41/27/21 44/29/21 24/15/21
f 18/18/32 19/16/32 42/28/32
f 19/16/33 24/15/33 44/29/33
f 6/18/34 40/17/34 39/26/34
f 3/16/35 39/26/35 41/27/35
f 34/24/20 40/17/20 43/19/20
o 平面.001
v -0.147053 0.019194 -0.647503
v -0.147053 0.019194 -0.647503
v -0.247111 0.000536 0.566650
v -0.147053 0.019194 -0.647503
v -0.148644 0.019194 -0.648366
v -0.373922 0.000536 0.566650
v -0.122111 0.000536 0.566650
v -0.147053 0.019194 -0.647503
v -0.715123 0.019194 -0.386885
v -0.055920 0.019194 -0.029183
v -0.385521 0.019194 -0.208034
v -0.496980 0.019194 -0.268515
v -0.275654 0.019194 -0.148417
v -0.055920 0.198284 -0.029183
v -0.147053 0.198284 -0.647503
v -0.148644 0.198284 -0.648366
v -0.147053 0.198284 -0.647503
v -0.373922 0.179626 0.566650
v -0.247111 0.179626 0.566650
v -0.147053 0.198284 -0.647503
v -0.147053 0.198284 -0.647503
v -0.385521 0.198284 -0.208034
v -0.496980 0.198284 -0.268515
v -0.122111 0.179626 0.566650
v -0.275654 0.198284 -0.148417
v -0.715123 0.198284 -0.386885
v -0.430782 0.019194 0.057012
v -0.549916 0.019194 0.026772
v -0.313348 0.019194 0.086821
v -0.430782 0.198284 0.057012
v -0.549916 0.198284 0.026772
v -0.313348 0.198284 0.086821
v -0.400857 0.009161 0.229716
v -0.523830 0.009161 0.214596
v -0.279640 0.009161 0.244621
v -0.400857 0.188250 0.229716
v -0.523830 0.188250 0.214596
v -0.279640 0.188250 0.244621
v -0.386042 0.004193 0.315218
v -0.510915 0.004193 0.307583
v -0.262952 0.004193 0.322743
v -0.386042 0.183283 0.315218
v -0.510915 0.183283 0.307583
v -0.262952 0.183283 0.322743
vn -0.0000 -1.0000 -0.0000
vn -0.0000 1.0000 -0.0000
vn 0.9874 -0.0000 0.1582
vn -0.4170 -0.0000 -0.9089
vn -0.4769 -0.0000 0.8789
vn 0.9893 -0.0000 -0.1458
vn -0.0000 -0.0000 1.0000
vn 0.4769 -0.0000 -0.8789
vn -0.8840 -0.0000 0.4675
vn -0.9843 -0.0000 -0.1765
vn 0.9779 -0.0000 -0.2089
vn -0.0140 0.9984 0.0553
vn -0.0154 0.9980 0.0607
vn 0.0073 -0.9982 -0.0593
vn 0.0080 -0.9978 -0.0652
vn 0.0039 -0.9979 -0.0643
vn 0.0036 -0.9983 -0.0586
vn -0.0073 0.9982 0.0593
vn -0.0067 0.9985 0.0543
vn -0.9905 -0.0000 0.1376
vn 0.8660 -0.0000 -0.5001
vn -0.0009 0.9999 0.0146
vn -0.0009 0.9999 0.0151
vn -0.0000 -0.9999 -0.0145
vn -0.0000 -0.9999 -0.0150
vn -0.0080 0.9978 0.0652
vn 0.0140 -0.9984 -0.0553
vn 0.0154 -0.9980 -0.0607
vn 0.0067 -0.9985 -0.0543
vn -0.0039 0.9979 0.0643
vn -0.0036 0.9983 0.0586
vn -0.0000 0.9999 0.0145
vn -0.0000 0.9999 0.0150
vn 0.0009 -0.9999 -0.0146
vn 0.0009 -0.9999 -0.0151
vt 0.750000 0.500000
vt 1.000000 1.000000
vt 1.000000 0.500000
vt 0.248189 1.000000
vt 0.500000 0.500000
vt 0.248189 0.500000
vt 0.000000 0.500000
vt 0.750000 1.000000
vt 0.500000 0.250000
vt 0.750000 0.250000
vt 0.248189 0.250000
vt 0.000000 1.000000
vt 0.500000 1.000000
vt 0.248189 0.250000
vt 0.750000 0.000000
vt 0.500000 0.000000
vt 0.248189 0.063116
vt 0.248189 0.000000
vt 0.248189 0.063116
vt 0.750000 0.125000
vt 0.750000 0.125000
vt 0.248189 0.125000
vt 0.500000 0.125000
vt 0.248189 0.125000
vt 0.500000 0.125000
vt 0.500000 0.063116
vt 0.750000 0.063116
vt 0.500000 0.063116
vt 0.750000 0.063116
s 0
f 57/30/36 46/31/36 54/32/36
f 49/33/36 55/34/36 56/35/36
f 53/36/36 49/33/36 56/35/36
f 55/34/36 52/37/36 57/30/36
f 71/38/36 57/30/36 73/39/36
f 72/40/36 55/34/36 71/38/36
f 69/30/37 59/31/37 64/37/37
f 66/34/37 60/33/37 67/35/37
f 70/36/36 60/33/36 61/41/36
f 66/34/37 64/37/37 65/42/37
f 74/38/37 69/30/37 66/34/37
f 75/43/37 66/34/37 67/35/37
f 57/30/38 76/39/38 73/39/38
f 52/37/37 65/42/37 64/37/37
f 53/36/39 61/41/39 45/41/39
f 54/32/40 69/30/40 57/30/40
f 46/31/41 58/32/41 54/32/41
f 51/44/42 63/45/42 47/45/42
f 45/41/40 60/33/40 49/33/40
f 46/31/37 64/37/37 59/31/37
f 56/35/40 70/36/40 53/36/40
f 49/33/43 65/42/43 48/42/43
f 84/46/44 62/47/44 87/48/44
f 47/45/42 62/47/42 50/47/42
f 72/40/45 67/35/45 56/35/45
f 73/39/46 82/49/46 79/50/46
f 81/51/47 74/38/47 75/43/47
f 80/52/48 76/39/48 74/38/48
f 78/53/49 71/38/49 77/54/49
f 77/54/50 73/39/50 79/50/50
f 83/55/51 79/50/51 85/56/51
f 84/46/52 77/54/52 83/55/52
f 86/57/53 82/49/53 80/52/53
f 87/48/54 80/52/54 81/51/54
f 79/50/46 88/58/46 85/56/46
f 72/40/55 81/51/55 75/43/55
f 85/56/56 68/44/56 51/44/56
f 62/47/57 86/57/57 87/48/57
f 63/45/58 88/58/58 86/57/58
f 50/47/59 83/55/59 47/45/59
f 47/45/60 85/56/60 51/44/60
f 78/53/55 87/48/55 81/51/55
f 57/30/37 52/37/37 46/31/37
f 49/33/36 48/42/36 55/34/36
f 53/36/37 45/41/37 49/33/37
f 55/34/37 48/42/37 52/37/37
f 71/38/36 55/34/36 57/30/36
f 72/40/36 56/35/36 55/34/36
f 69/30/37 58/32/37 59/31/37
f 66/34/37 65/42/37 60/33/37
f 70/36/37 67/35/37 60/33/37
f 66/34/37 69/30/37 64/37/37
f 74/38/37 76/39/37 69/30/37
f 75/43/37 74/38/37 66/34/37
f 57/30/38 69/30/38 76/39/38
f 52/37/37 48/42/37 65/42/37
f 53/36/39 70/36/39 61/41/39
f 54/32/40 58/32/40 69/30/40
f 46/31/41 59/31/41 58/32/41
f 51/44/42 68/44/42 63/45/42
f 45/41/40 61/41/40 60/33/40
f 46/31/37 52/37/37 64/37/37
f 56/35/40 67/35/40 70/36/40
f 49/33/43 60/33/43 65/42/43
f 84/46/44 50/47/44 62/47/44
f 47/45/42 63/45/42 62/47/42
f 72/40/45 75/43/45 67/35/45
f 73/39/46 76/39/46 82/49/46
f 81/51/53 80/52/53 74/38/53
f 80/52/61 82/49/61 76/39/61
f 78/53/62 72/40/62 71/38/62
f 77/54/63 71/38/63 73/39/63
f 83/55/49 77/54/49 79/50/49
f 84/46/64 78/53/64 77/54/64
f 86/57/65 88/58/65 82/49/65
f 87/48/66 86/57/66 80/52/66
f 79/50/46 82/49/46 88/58/46
f 72/40/55 78/53/55 81/51/55
f 85/56/56 88/58/56 68/44/56
f 62/47/67 63/45/67 86/57/67
f 63/45/68 68/44/68 88/58/68
f 50/47/69 84/46/69 83/55/69
f 47/45/70 83/55/70 85/56/70
f 78/53/55 84/46/55 87/48/55
o 平面.002
v 0.172189 0.057583 0.657567
v 0.172189 0.057583 0.657567
v 0.272247 0.038925 -0.556586
v 0.172189 0.057583 0.657567
v 0.173780 0.057583 0.658431
v 0.399058 0.038925 -0.556586
v 0.147247 0.038925 -0.556586
v 0.172189 0.057583 0.657567
v 0.740259 0.057583 0.396950
v 0.081056 0.057583 0.039247
v 0.410657 0.057583 0.218098
v 0.522116 0.057583 0.278579
v 0.300790 0.057583 0.158481
v 0.081056 0.236673 0.039247
v 0.172189 0.236673 0.657567
v 0.173780 0.236673 0.658431
v 0.172189 0.236673 0.657567
v 0.399058 0.218014 -0.556586
v 0.272247 0.218014 -0.556586
v 0.172189 0.236673 0.657567
v 0.172189 0.236673 0.657567
v 0.410657 0.236673 0.218098
v 0.522116 0.236673 0.278579
v 0.147247 0.218014 -0.556586
v 0.300790 0.236673 0.158481
v 0.740259 0.236673 0.396950
v 0.455918 0.057583 -0.046948
v 0.575052 0.057583 -0.016708
v 0.338484 0.057583 -0.076757
v 0.455918 0.236673 -0.046948
v 0.575052 0.236673 -0.016708
v 0.338484 0.236673 -0.076757
v 0.425993 0.047549 -0.219652
v 0.548966 0.047549 -0.204532
v 0.304776 0.047549 -0.234556
v 0.425993 0.226639 -0.219652
v 0.548966 0.226639 -0.204532
v 0.304776 0.226639 -0.234556
v 0.411178 0.042582 -0.305153
v 0.536051 0.042582 -0.297519
v 0.288088 0.042582 -0.312679
v 0.411178 0.221672 -0.305153
v 0.536051 0.221672 -0.297519
v 0.288088 0.221672 -0.312679
vn -0.0000 -1.0000 -0.0000
vn -0.0000 1.0000 -0.0000
vn -0.9874 -0.0000 -0.1582
vn 0.4170 -0.0000 0.9089
vn 0.4769 -0.0000 -0.8789
vn -0.9893 -0.0000 0.1458
vn -0.0000 -0.0000 -1.0000
vn -0.4769 -0.0000 0.8789
vn 0.8840 -0.0000 -0.4675
vn 0.9843 -0.0000 0.1765
vn -0.9779 -0.0000 0.2089
vn 0.0140 0.9984 -0.0553
vn 0.0154 0.9980 -0.0607
vn -0.0073 -0.9982 0.0593
vn -0.0080 -0.9978 0.0652
vn -0.0039 -0.9979 0.0643
vn -0.0036 -0.9983 0.0586
vn 0.0073 0.9982 -0.0593
vn 0.0067 0.9985 -0.0543
vn 0.9905 -0.0000 -0.1376
vn -0.8660 -0.0000 0.5001
vn 0.0009 0.9999 -0.0146
vn 0.0009 0.9999 -0.0151
vn -0.0000 -0.9999 0.0145
vn -0.0000 -0.9999 0.0150
vn 0.0080 0.9978 -0.0652
vn -0.0140 -0.9984 0.0553
vn -0.0154 -0.9980 0.0607
vn -0.0067 -0.9985 0.0543
vn 0.0039 0.9979 -0.0643
vn 0.0036 0.9983 -0.0586
vn -0.0000 0.9999 -0.0145
vn -0.0000 0.9999 -0.0150
vn -0.0009 -0.9999 0.0146
vn -0.0009 -0.9999 0.0151
vt 0.750000 0.500000
vt 1.000000 1.000000
vt 1.000000 0.500000
vt 0.248189 1.000000
vt 0.500000 0.500000
vt 0.248189 0.500000
vt 0.000000 0.500000
vt 0.750000 1.000000
vt 0.500000 0.250000
vt 0.750000 0.250000
vt 0.248189 0.250000
vt 0.000000 1.000000
vt 0.500000 1.000000
vt 0.248189 0.250000
vt 0.750000 0.000000
vt 0.500000 0.000000
vt 0.248189 0.063116
vt 0.248189 0.000000
vt 0.248189 0.063116
vt 0.750000 0.125000
vt 0.750000 0.125000
vt 0.248189 0.125000
vt 0.500000 0.125000
vt 0.248189 0.125000
vt 0.500000 0.125000
vt 0.500000 0.063116
vt 0.750000 0.063116
vt 0.500000 0.063116
vt 0.750000 0.063116
s 0
f 101/59/71 90/60/71 98/61/71
f 93/62/71 99/63/71 100/64/71
f 97/65/71 93/62/71 100/64/71
f 99/63/71 96/66/71 101/59/71
f 115/67/71 101/59/71 117/68/71
f 116/69/71 99/63/71 115/67/71
f 113/59/72 103/60/72 108/66/72
f 110/63/72 104/62/72 111/64/72
f 114/65/71 104/62/71 105/70/71
f 110/63/72 108/66/72 109/71/72
f 118/67/72 113/59/72 110/63/72
f 119/72/72 110/63/72 111/64/72
f 101/59/73 120/68/73 117/68/73
f 96/66/72 109/71/72 108/66/72
f 97/65/74 105/70/74 89/70/74
f 98/61/75 113/59/75 101/59/75
f 90/60/76 102/61/76 98/61/76
f 95/73/77 107/74/77 91/74/77
f 89/70/75 104/62/75 93/62/75
f 90/60/72 108/66/72 103/60/72
f 100/64/75 114/65/75 97/65/75
f 93/62/78 109/71/78 92/71/78
f 128/75/79 106/76/79 131/77/79
f 91/74/77 106/76/77 94/76/77
f 116/69/80 111/64/80 100/64/80
f 117/68/81 126/78/81 123/79/81
f 125/80/82 118/67/82 119/72/82
f 124/81/83 120/68/83 118/67/83
f 122/82/84 115/67/84 121/83/84
f 121/83/85 117/68/85 123/79/85
f 127/84/86 123/79/86 129/85/86
f 128/75/87 121/83/87 127/84/87
f 130/86/88 126/78/88 124/81/88
f 131/77/89 124/81/89 125/80/89
f 123/79/81 132/87/81 129/85/81
f 116/69/90 125/80/90 119/72/90
f 129/85/91 112/73/91 95/73/91
f 106/76/92 130/86/92 131/77/92
f 107/74/93 132/87/93 130/86/93
f 94/76/94 127/84/94 91/74/94
f 91/74/95 129/85/95 95/73/95
f 122/82/90 131/77/90 125/80/90
f 101/59/72 96/66/72 90/60/72
f 93/62/71 92/71/71 99/63/71
f 97/65/72 89/70/72 93/62/72
f 99/63/72 92/71/72 96/66/72
f 115/67/71 99/63/71 101/59/71
f 116/69/71 100/64/71 99/63/71
f 113/59/72 102/61/72 103/60/72
f 110/63/72 109/71/72 104/62/72
f 114/65/72 111/64/72 104/62/72
f 110/63/72 113/59/72 108/66/72
f 118/67/72 120/68/72 113/59/72
f 119/72/72 118/67/72 110/63/72
f 101/59/73 113/59/73 120/68/73
f 96/66/72 92/71/72 109/71/72
f 97/65/74 114/65/74 105/70/74
f 98/61/75 102/61/75 113/59/75
f 90/60/76 103/60/76 102/61/76
f 95/73/77 112/73/77 107/74/77
f 89/70/75 105/70/75 104/62/75
f 90/60/72 96/66/72 108/66/72
f 100/64/75 111/64/75 114/65/75
f 93/62/78 104/62/78 109/71/78
f 128/75/79 94/76/79 106/76/79
f 91/74/77 107/74/77 106/76/77
f 116/69/80 119/72/80 111/64/80
f 117/68/81 120/68/81 126/78/81
f 125/80/88 124/81/88 118/67/88
f 124/81/96 126/78/96 120/68/96
f 122/82/97 116/69/97 115/67/97
f 121/83/98 115/67/98 117/68/98
f 127/84/84 121/83/84 123/79/84
f 128/75/99 122/82/99 121/83/99
f 130/86/100 132/87/100 126/78/100
f 131/77/101 130/86/101 124/81/101
f 123/79/81 126/78/81 132/87/81
f 116/69/90 122/82/90 125/80/90
f 129/85/91 132/87/91 112/73/91
f 106/76/102 107/74/102 130/86/102
f 107/74/103 112/73/103 132/87/103
f 94/76/104 128/75/104 127/84/104
f 91/74/105 127/84/105 129/85/105
f 122/82/90 128/75/90 131/77/90
o 平面.003
v 0.172189 0.057583 0.657567
v 0.172189 0.057583 0.657567
v 0.272247 0.038925 -0.556586
v 0.172189 0.057583 0.657567
v 0.173780 0.057583 0.658431
v 0.399058 0.038925 -0.556586
v 0.147247 0.038925 -0.556586
v 0.172189 0.057583 0.657567
v 0.740259 0.057583 0.396950
v 0.081056 0.057583 0.039247
v 0.410657 0.057583 0.218098
v 0.522116 0.057583 0.278579
v 0.300790 0.057583 0.158481
v 0.081056 0.236673 0.039247
v 0.172189 0.236673 0.657567
v 0.173780 0.236673 0.658431
v 0.172189 0.236673 0.657567
v 0.399058 0.218014 -0.556586
v 0.272247 0.218014 -0.556586
v 0.172189 0.236673 0.657567
v 0.172189 0.236673 0.657567
v 0.410657 0.236673 0.218098
v 0.522116 0.236673 0.278579
v 0.147247 0.218014 -0.556586
v 0.300790 0.236673 0.158481
v 0.740259 0.236673 0.396950
v 0.455918 0.057583 -0.046948
v 0.575052 0.057583 -0.016708
v 0.338484 0.057583 -0.076757
v 0.455918 0.236673 -0.046948
v 0.575052 0.236673 -0.016708
v 0.338484 0.236673 -0.076757
v 0.425993 0.047549 -0.219652
v 0.548966 0.047549 -0.204532
v 0.304776 0.047549 -0.234556
v 0.425993 0.226639 -0.219652
v 0.548966 0.226639 -0.204532
v 0.304776 0.226639 -0.234556
v 0.411178 0.042582 -0.305153
v 0.536051 0.042582 -0.297519
v 0.288088 0.042582 -0.312679
v 0.411178 0.221672 -0.305153
v 0.536051 0.221672 -0.297519
v 0.288088 0.221672 -0.312679
vn -0.0000 -1.0000 -0.0000
vn -0.0000 1.0000 -0.0000
vn -0.9874 -0.0000 -0.1582
vn 0.4170 -0.0000 0.9089
vn 0.4769 -0.0000 -0.8789
vn -0.9893 -0.0000 0.1458
vn -0.0000 -0.0000 -1.0000
vn -0.4769 -0.0000 0.8789
vn 0.8840 -0.0000 -0.4675
vn 0.9843 -0.0000 0.1765
vn -0.9779 -0.0000 0.2089
vn 0.0140 0.9984 -0.0553
vn 0.0154 0.9980 -0.0607
vn -0.0073 -0.9982 0.0593
vn -0.0080 -0.9978 0.0652
vn -0.0039 -0.9979 0.0643
vn -0.0036 -0.9983 0.0586
vn 0.0073 0.9982 -0.0593
vn 0.0067 0.9985 -0.0543
vn 0.9905 -0.0000 -0.1376
vn -0.8660 -0.0000 0.5001
vn 0.0009 0.9999 -0.0146
vn 0.0009 0.9999 -0.0151
vn -0.0000 -0.9999 0.0145
vn -0.0000 -0.9999 0.0150
vn 0.0080 0.9978 -0.0652
vn -0.0140 -0.9984 0.0553
vn -0.0154 -0.9980 0.0607
vn -0.0067 -0.9985 0.0543
vn 0.0039 0.9979 -0.0643
vn 0.0036 0.9983 -0.0586
vn -0.0000 0.9999 -0.0145
vn -0.0000 0.9999 -0.0150
vn -0.0009 -0.9999 0.0146
vn -0.0009 -0.9999 0.0151
vt 0.750000 0.500000
vt 1.000000 1.000000
vt 1.000000 0.500000
vt 0.248189 1.000000
vt 0.500000 0.500000
vt 0.248189 0.500000
vt 0.000000 0.500000
vt 0.750000 1.000000
vt 0.500000 0.250000
vt 0.750000 0.250000
vt 0.248189 0.250000
vt 0.000000 1.000000
vt 0.500000 1.000000
vt 0.248189 0.250000
vt 0.750000 0.000000
vt 0.500000 0.000000
vt 0.248189 0.063116
vt 0.248189 0.000000
vt 0.248189 0.063116
vt 0.750000 0.125000
vt 0.750000 0.125000
vt 0.248189 0.125000
vt 0.500000 0.125000
vt 0.248189 0.125000
vt 0.500000 0.125000
vt 0.500000 0.063116
vt 0.750000 0.063116
vt 0.500000 0.063116
vt 0.750000 0.063116
s 0
f 145/88/106 134/89/106 142/90/106
f 137/91/106 143/92/106 144/93/106
f 141/94/106 137/91/106 144/93/106
f 143/92/106 140/95/106 145/88/106
f 159/96/106 145/88/106 161/97/106
f 160/98/106 143/92/106 159/96/106
f 157/88/107 147/89/107 152/95/107
f 154/92/107 148/91/107 155/93/107
f 158/94/106 148/91/106 149/99/106
f 154/92/107 152/95/107 153/100/107
f 162/96/107 157/88/107 154/92/107
f 163/101/107 154/92/107 155/93/107
f 145/88/108 164/97/108 161/97/108
f 140/95/107 153/100/107 152/95/107
f 141/94/109 149/99/109 133/99/109
f 142/90/110 157/88/110 145/88/110
f 134/89/111 146/90/111 142/90/111
f 139/102/112 151/103/112 135/103/112
f 133/99/110 148/91/110 137/91/110
f 134/89/107 152/95/107 147/89/107
f 144/93/110 158/94/110 141/94/110
f 137/91/113 153/100/113 136/100/113
f 172/104/114 150/105/114 175/106/114
f 135/103/112 150/105/112 138/105/112
f 160/98/115 155/93/115 144/93/115
f 161/97/116 170/107/116 167/108/116
f 169/109/117 162/96/117 163/101/117
f 168/110/118 164/97/118 162/96/118
f 166/111/119 159/96/119 165/112/119
f 165/112/120 161/97/120 167/108/120
f 171/113/121 167/108/121 173/114/121
f 172/104/122 165/112/122 171/113/122
f 174/115/123 170/107/123 168/110/123
f 175/106/124 168/110/124 169/109/124
f 167/108/116 176/116/116 173/114/116
f 160/98/125 169/109/125 163/101/125
f 173/114/126 156/102/126 139/102/126
f 150/105/127 174/115/127 175/106/127
f 151/103/128 176/116/128 174/115/128
f 138/105/129 171/113/129 135/103/129
f 135/103/130 173/114/130 139/102/130
f 166/111/125 175/106/125 169/109/125
f 145/88/107 140/95/107 134/89/107
f 137/91/106 136/100/106 143/92/106
f 141/94/107 133/99/107 137/91/107
f 143/92/107 136/100/107 140/95/107
f 159/96/106 143/92/106 145/88/106
f 160/98/106 144/93/106 143/92/106
f 157/88/107 146/90/107 147/89/107
f 154/92/107 153/100/107 148/91/107
f 158/94/107 155/93/107 148/91/107
f 154/92/107 157/88/107 152/95/107
f 162/96/107 164/97/107 157/88/107
f 163/101/107 162/96/107 154/92/107
f 145/88/108 157/88/108 164/97/108
f 140/95/107 136/100/107 153/100/107
f 141/94/109 158/94/109 149/99/109
f 142/90/110 146/90/110 157/88/110
f 134/89/111 147/89/111 146/90/111
f 139/102/112 156/102/112 151/103/112
f 133/99/110 149/99/110 148/91/110
f 134/89/107 140/95/107 152/95/107
f 144/93/110 155/93/110 158/94/110
f 137/91/113 148/91/113 153/100/113
f 172/104/114 138/105/114 150/105/114
f 135/103/112 151/103/112 150/105/112
f 160/98/115 163/101/115 155/93/115
f 161/97/116 164/97/116 170/107/116
f 169/109/123 168/110/123 162/96/123
f 168/110/131 170/107/131 164/97/131
f 166/111/132 160/98/132 159/96/132
f 165/112/133 159/96/133 161/97/133
f 171/113/119 165/112/119 167/108/119
f 172/104/134 166/111/134 165/112/134
f 174/115/135 176/116/135 170/107/135
f 175/106/136 174/115/136 168/110/136
f 167/108/116 170/107/116 176/116/116
f 160/98/125 166/111/125 169/109/125
f 173/114/126 176/116/126 156/102/126
f 150/105/137 151/103/137 174/115/137
f 151/103/138 156/102/138 176/116/138
f 138/105/139 172/104/139 171/113/139
f 135/103/140 171/113/140 173/114/140
f 166/111/125 172/104/125 175/106/125
