# Blender 5.2.0 LTS
# www.blender.org
mtllib Triple.mtl
o 平面.001
v -0.000911 0.000000 -0.481196
v -0.000911 0.000000 -0.481196
v -0.000911 0.000000 -0.481196
v -0.002721 0.000000 -0.481190
v -0.000911 0.000000 -0.481196
v -0.374087 0.000000 0.020166
v 0.375908 0.000000 0.017435
v 0.000911 0.000000 0.018800
v -0.125899 0.000000 0.019262
v 0.125910 0.000000 0.018345
v 0.375908 0.179090 0.017435
v -0.000911 0.179090 -0.481196
v -0.002721 0.179090 -0.481190
v -0.000911 0.179090 -0.481196
v -0.000911 0.179090 -0.481196
v -0.000911 0.179090 -0.481196
v 0.000911 0.179090 0.018800
v -0.125899 0.179090 0.019262
v 0.125910 0.179090 0.018345
v -0.374087 0.179090 0.020166
v -0.003620 0.000000 0.266374
v -0.122754 0.000000 0.267064
v 0.130155 0.000000 0.267832
v -0.003620 0.179090 0.266374
v -0.122754 0.179090 0.267064
v 0.130155 0.179090 0.267832
v -0.000911 0.000000 0.339764
v -0.000911 0.000000 0.339764
v -0.000911 0.000000 0.339764
v -0.002721 0.000000 0.339771
v -0.000911 0.000000 0.339764
v -0.374087 0.000000 0.841127
v 0.375908 0.000000 0.838395
v 0.000911 0.000000 0.839761
v -0.125899 0.000000 0.840223
v 0.125910 0.000000 0.839306
v 0.375908 0.179090 0.838395
v -0.000911 0.179090 0.339764
v -0.002721 0.179090 0.339771
v -0.000911 0.179090 0.339764
v -0.000911 0.179090 0.339764
v -0.000911 0.179090 0.339764
v 0.000911 0.179090 0.839761
v -0.125899 0.179090 0.840223
v 0.125910 0.179090 0.839306
v -0.374087 0.179090 0.841127
v -0.003620 0.000000 1.087334
v -0.122754 0.000000 1.088025
v 0.130155 0.000000 1.088793
v -0.003620 0.179090 1.087334
v -0.122754 0.179090 1.088025
v 0.130155 0.179090 1.088793
v -0.000911 0.000000 -1.310630
v -0.000911 0.000000 -1.310630
v -0.000911 0.000000 -1.310630
v -0.002721 0.000000 -1.310624
v -0.000911 0.000000 -1.310630
v -0.374087 0.000000 -0.809268
v 0.375908 0.000000 -0.812000
v 0.000911 0.000000 -0.810634
v -0.125899 0.000000 -0.810172
v 0.125910 0.000000 -0.811089
v 0.375908 0.179090 -0.812000
v -0.000911 0.179090 -1.310630
v -0.002721 0.179090 -1.310624
v -0.000911 0.179090 -1.310630
v -0.000911 0.179090 -1.310630
v -0.000911 0.179090 -1.310630
v 0.000911 0.179090 -0.810634
v -0.125899 0.179090 -0.810172
v 0.125910 0.179090 -0.811089
v -0.374087 0.179090 -0.809268
v -0.003620 0.000000 -0.563061
v -0.122754 0.000000 -0.562370
v 0.130155 0.000000 -0.561603
v -0.003620 0.179090 -0.563061
v -0.122754 0.179090 -0.562370
v 0.130155 0.179090 -0.561603
vn -0.0000 -1.0000 -0.0000
vn -0.0000 1.0000 -0.0000
vn 0.9999 -0.0000 -0.0170
vn -0.8022 -0.0000 -0.5971
vn 0.0036 -0.0000 1.0000
vn 0.7978 -0.0000 -0.6029
vn -0.0036 -0.0000 -1.0000
vn -0.9999 -0.0000 0.0127
vn 0.0058 -0.0000 1.0000
vn -0.0109 -0.0000 0.9999
vt 0.750000 0.500000
vt 1.000000 1.000000
vt 1.000000 0.500000
vt 0.248189 1.000000
vt 0.500000 0.500000
vt 0.248189 0.500000
vt 0.000000 0.500000
vt 0.750000 1.000000
vt 0.500000 0.250000
vt 0.750000 0.250000
vt 0.248189 0.250000
vt 0.000000 1.000000
vt 0.500000 1.000000
vt 0.248189 0.250000
s 0
f 10/1/1 2/2/1 7/3/1
f 4/4/1 8/5/1 9/6/1
f 6/7/1 4/4/1 9/6/1
f 8/5/1 5/8/1 10/1/1
f 21/9/1 10/1/1 23/10/1
f 9/6/1 21/9/1 22/11/1
f 19/1/2 12/2/2 15/8/2
f 17/5/2 13/4/2 18/6/2
f 20/7/1 13/4/1 14/12/1
f 17/5/2 15/8/2 16/13/2
f 24/9/2 19/1/2 17/5/2
f 24/9/2 18/6/2 25/14/2
f 10/1/3 26/10/3 23/10/3
f 5/8/2 16/13/2 15/8/2
f 6/7/4 14/12/4 1/12/4
f 7/3/5 19/1/5 10/1/5
f 2/2/6 11/3/6 7/3/6
f 1/12/5 13/4/5 4/4/5
f 2/2/2 15/8/2 12/2/2
f 9/6/5 20/7/5 6/7/5
f 4/4/7 16/13/7 3/13/7
f 22/11/8 18/6/8 9/6/8
f 21/9/9 25/14/9 22/11/9
f 23/10/10 24/9/10 21/9/10
f 36/1/1 28/2/1 33/3/1
f 30/4/1 34/5/1 35/6/1
f 32/7/1 30/4/1 35/6/1
f 34/5/1 31/8/1 36/1/1
f 47/9/1 36/1/1 49/10/1
f 35/6/1 47/9/1 48/11/1
f 45/1/2 38/2/2 41/8/2
f 43/5/2 39/4/2 44/6/2
f 46/7/1 39/4/1 40/12/1
f 43/5/2 41/8/2 42/13/2
f 50/9/2 45/1/2 43/5/2
f 50/9/2 44/6/2 51/14/2
f 36/1/3 52/10/3 49/10/3
f 31/8/2 42/13/2 41/8/2
f 32/7/4 40/12/4 27/12/4
f 33/3/5 45/1/5 36/1/5
f 28/2/6 37/3/6 33/3/6
f 27/12/5 39/4/5 30/4/5
f 28/2/2 41/8/2 38/2/2
f 35/6/5 46/7/5 32/7/5
f 30/4/7 42/13/7 29/13/7
f 48/11/8 44/6/8 35/6/8
f 47/9/9 51/14/9 48/11/9
f 49/10/10 50/9/10 47/9/10
f 62/1/1 54/2/1 59/3/1
f 56/4/1 60/5/1 61/6/1
f 58/7/1 56/4/1 61/6/1
f 60/5/1 57/8/1 62/1/1
f 73/9/1 62/1/1 75/10/1
f 61/6/1 73/9/1 74/11/1
f 71/1/2 64/2/2 67/8/2
f 69/5/2 65/4/2 70/6/2
f 72/7/1 65/4/1 66/12/1
f 69/5/2 67/8/2 68/13/2
f 76/9/2 71/1/2 69/5/2
f 76/9/2 70/6/2 77/14/2
f 62/1/3 78/10/3 75/10/3
f 57/8/2 68/13/2 67/8/2
f 58/7/4 66/12/4 53/12/4
f 59/3/5 71/1/5 62/1/5
f 54/2/6 63/3/6 59/3/6
f 53/12/5 65/4/5 56/4/5
f 54/2/2 67/8/2 64/2/2
f 61/6/5 72/7/5 58/7/5
f 56/4/7 68/13/7 55/13/7
f 74/11/8 70/6/8 61/6/8
f 73/9/9 77/14/9 74/11/9
f 75/10/10 76/9/10 73/9/10
f 10/1/2 5/8/2 2/2/2
f 4/4/1 3/13/1 8/5/1
f 6/7/2 1/12/2 4/4/2
f 8/5/2 3/13/2 5/8/2
f 21/9/1 8/5/1 10/1/1
f 9/6/1 8/5/1 21/9/1
f 19/1/2 11/3/2 12/2/2
f 17/5/2 16/13/2 13/4/2
f 20/7/2 18/6/2 13/4/2
f 17/5/2 19/1/2 15/8/2
f 24/9/2 26/10/2 19/1/2
f 24/9/2 17/5/2 18/6/2
f 10/1/3 19/1/3 26/10/3
f 5/8/2 3/13/2 16/13/2
f 6/7/4 20/7/4 14/12/4
f 7/3/5 11/3/5 19/1/5
f 2/2/6 12/2/6 11/3/6
f 1/12/5 14/12/5 13/4/5
f 2/2/2 5/8/2 15/8/2
f 9/6/5 18/6/5 20/7/5
f 4/4/7 13/4/7 16/13/7
f 22/11/8 25/14/8 18/6/8
f 21/9/9 24/9/9 25/14/9
f 23/10/10 26/10/10 24/9/10
f 36/1/2 31/8/2 28/2/2
f 30/4/1 29/13/1 34/5/1
f 32/7/2 27/12/2 30/4/2
f 34/5/2 29/13/2 31/8/2
f 47/9/1 34/5/1 36/1/1
f 35/6/1 34/5/1 47/9/1
f 45/1/2 37/3/2 38/2/2
f 43/5/2 42/13/2 39/4/2
f 46/7/2 44/6/2 39/4/2
f 43/5/2 45/1/2 41/8/2
f 50/9/2 52/10/2 45/1/2
f 50/9/2 43/5/2 44/6/2
f 36/1/3 45/1/3 52/10/3
f 31/8/2 29/13/2 42/13/2
f 32/7/4 46/7/4 40/12/4
f 33/3/5 37/3/5 45/1/5
f 28/2/6 38/2/6 37/3/6
f 27/12/5 40/12/5 39/4/5
f 28/2/2 31/8/2 41/8/2
f 35/6/5 44/6/5 46/7/5
f 30/4/7 39/4/7 42/13/7
f 48/11/8 51/14/8 44/6/8
f 47/9/9 50/9/9 51/14/9
f 49/10/10 52/10/10 50/9/10
f 62/1/2 57/8/2 54/2/2
f 56/4/1 55/13/1 60/5/1
f 58/7/2 53/12/2 56/4/2
f 60/5/2 55/13/2 57/8/2
f 73/9/1 60/5/1 62/1/1
f 61/6/1 60/5/1 73/9/1
f 71/1/2 63/3/2 64/2/2
f 69/5/2 68/13/2 65/4/2
f 72/7/2 70/6/2 65/4/2
f 69/5/2 71/1/2 67/8/2
f 76/9/2 78/10/2 71/1/2
f 76/9/2 69/5/2 70/6/2
f 62/1/3 71/1/3 78/10/3
f 57/8/2 55/13/2 68/13/2
f 58/7/4 72/7/4 66/12/4
f 59/3/5 63/3/5 71/1/5
f 54/2/6 64/2/6 63/3/6
f 53/12/5 66/12/5 65/4/5
f 54/2/2 57/8/2 67/8/2
f 61/6/5 70/6/5 72/7/5
f 56/4/7 65/4/7 68/13/7
f 74/11/8 77/14/8 70/6/8
f 73/9/9 76/9/9 77/14/9
f 75/10/10 78/10/10 76/9/10
